<?xml version="1.0" standalone="no"?>
<!DOCTYPE svg PUBLIC "-//W3C//DTD SVG 1.1//EN" "http://www.w3.org/Graphics/SVG/1.1/DTD/svg11.dtd" >
<svg>
<metadata>
Created by FontForge 20090914 at Fri Sep 17 11:05:12 2021
 By www-data
Copyright 2020 The Poppins Project Authors (https://github.com/itfoundry/Poppins)
</metadata>
<defs>
<font id="Poppins-SemiBold" horiz-adv-x="309" >
  <font-face 
    font-family="Poppins SemiBold"
    font-weight="600"
    font-stretch="normal"
    units-per-em="1000"
    panose-1="0 0 7 0 0 0 0 0 0 0"
    ascent="800"
    descent="-200"
    x-height="554"
    cap-height="698"
    bbox="-543 -593.002 2510 1091"
    underline-thickness="50"
    underline-position="-50"
    unicode-range="U+000D-U+FB02"
  />
<missing-glyph horiz-adv-x="500" 
d="M0 700h500v-700h-500v700zM420 650h-340l170 -255zM50 95l170 255l-170 255v-510zM450 95v510l-170 -255zM420 50l-170 255l-170 -255h340z" />
    <glyph glyph-name=".notdef" horiz-adv-x="500" 
d="M0 700h500v-700h-500v700zM420 650h-340l170 -255zM50 95l170 255l-170 255v-510zM450 95v510l-170 -255zM420 50l-170 255l-170 -255h340z" />
    <glyph glyph-name="NULL" horiz-adv-x="0" 
 />
    <glyph glyph-name="NULL" horiz-adv-x="0" 
 />
    <glyph glyph-name="CR" unicode="&#xd;" horiz-adv-x="238" 
 />
    <glyph glyph-name="space" unicode=" " horiz-adv-x="238" 
 />
    <glyph glyph-name="exclam" unicode="!" horiz-adv-x="354" 
d="M250 710l-16 -483h-118l-17 483h151zM115.5 16.5c-16.333 15.667 -24.5 35.167 -24.5 58.5s8.16699 42.833 24.5 58.5s37.166 23.5 62.499 23.5c24.667 0 45 -7.83301 61 -23.5s24 -35.167 24 -58.5s-8 -42.833 -24 -58.5s-36.333 -23.5 -61 -23.5
c-25.333 0 -46.166 7.83301 -62.499 23.5z" />
    <glyph glyph-name="quotedbl" unicode="&#x22;" horiz-adv-x="364" 
d="M157 798l-12 -212h-95l-13 212h120zM327 798l-13 -212h-95l-13 212h121z" />
    <glyph glyph-name="numbersign" unicode="#" horiz-adv-x="887" 
d="M684 449l-33 -154h127v-125h-154l-36 -170h-133l36 170h-182l-36 -170h-132l36 170h-151v125h178l33 154h-150v125h177l35 166h132l-35 -166h182l35 166h133l-35 -166h128v-125h-155zM551 449h-182l-33 -154h182z" />
    <glyph glyph-name="dollar" unicode="$" horiz-adv-x="654" 
d="M540.5 103.5c-17.667 -30.333 -43.667 -55.332 -78 -74.999s-74.833 -31.167 -121.5 -34.5v-81h-64v82c-66.667 6 -120.334 26.167 -161.001 60.5s-61.667 80.833 -63 139.5h150c4 -48 28.667 -77 74 -87v191c-48 12 -86.667 24 -116 36s-54.666 31.333 -75.999 58
s-32 63 -32 109c0 58 20.833 105.333 62.5 142s95.5 57.667 161.5 63v81h64v-81c64 -5.33301 115.167 -24.666 153.5 -57.999s59.833 -79.333 64.5 -138h-151c-2 19.333 -8.83301 36.166 -20.5 50.499s-27.167 24.5 -46.5 30.5v-189c50 -12.667 89.5 -24.834 118.5 -36.501
s54.167 -30.667 75.5 -57s32 -62.5 32 -108.5c0 -34.667 -8.83301 -67.167 -26.5 -97.5zM219 455.501c13.333 -13.667 32.667 -24.832 58 -33.499v173c-24 -3.33301 -43 -12.333 -57 -27s-21 -34.334 -21 -59.001c0 -22 6.66699 -39.833 20 -53.5zM400.501 137.003
c14.333 16 21.501 35.333 21.501 58c0 22 -7 39.667 -21 53s-34 24.333 -60 33v-175c25.333 4.66699 45.166 15 59.499 31z" />
    <glyph glyph-name="percent" unicode="%" horiz-adv-x="829" 
d="M81.5 669c29.667 28.667 67.834 43 114.501 43s84.834 -14.333 114.501 -43s44.5 -68.334 44.5 -119.001c0 -51.333 -14.833 -91.333 -44.5 -120s-67.834 -43 -114.501 -43s-84.834 14.333 -114.501 43s-44.5 68.667 -44.5 120c0 50.667 14.833 90.334 44.5 119.001z
M679 700l-393 -700h-136l392 700h137zM140 550c0 -52.667 18.333 -79 55 -79c18 0 32 6.5 42 19.5s15 32.833 15 59.5c0 52 -19 78 -57 78c-36.667 0 -55 -26 -55 -78zM520.5 270.5c29.667 28.333 67.832 42.5 114.499 42.5s84.5 -14.167 113.5 -42.5
s43.5 -68.166 43.5 -119.499s-14.5 -91.333 -43.5 -120s-66.833 -43 -113.5 -43c-47.333 0 -85.666 14.333 -114.999 43s-44 68.667 -44 120s14.833 91.166 44.5 119.499zM576.998 151c0 -52.667 19 -79 57 -79c37.333 0 56 26.333 56 79c0 52 -18.667 78 -56 78
c-38 0 -57 -26 -57 -78z" />
    <glyph glyph-name="ampersand" unicode="&#x26;" horiz-adv-x="778" 
d="M606 0l-76.0029 75.001c-64.667 -58 -143.667 -87 -237 -87c-51.333 0 -96.5 8.83301 -135.5 26.5s-69.167 42.667 -90.5 75s-32 69.833 -32 112.5c0 46 13 87.333 39 124s64.333 66.334 115 89.001c-18 22 -31 43.167 -39 63.5s-12 42.166 -12 65.499
c0 32 8.33301 60.833 25 86.5s40.5 45.834 71.5 60.501s67.167 22 108.5 22c42 0 78 -8 108 -24s52.333 -37.333 67 -64s21 -56.334 19 -89.001h-136c0.666992 22 -4.66602 38.833 -15.999 50.5s-26.666 17.5 -45.999 17.5c-18.667 0 -34.167 -5.5 -46.5 -16.5
s-18.5 -25.167 -18.5 -42.5c0 -16.667 5 -33.167 15 -49.5s26.333 -36.5 49 -60.5l176 -174c1.33301 1.33301 2.33301 2.66602 3 3.99902l2 4l57 95h146l-70 -123c-13.333 -26 -27.666 -50.667 -42.999 -74l169 -167h-172zM441.997 162.001l-172 170.001
c-64.667 -28.667 -97 -69.334 -97 -122.001c0 -30 11.333 -55.167 34 -75.5s52.667 -30.5 90 -30.5c54.667 0 103 19.333 145 58z" />
    <glyph glyph-name="quotesingle" unicode="'" horiz-adv-x="195" 
d="M157 798l-12 -212h-95l-13 212h120z" />
    <glyph glyph-name="parenleft" unicode="(" horiz-adv-x="485" 
d="M160.5 43c-35.667 97.333 -53.498 201.665 -53.498 312.998c0 114 18.667 221.167 56 321.5s91.666 182.5 162.999 246.5h141v-13c-73.333 -70 -129.166 -154 -167.499 -252s-57.5 -199 -57.5 -303c0 -101.333 18.167 -199.166 54.5 -293.499
s88.166 -176.166 155.499 -245.499v-14h-141c-64.667 62.667 -114.834 142.667 -150.501 240z" />
    <glyph glyph-name="parenright" unicode=")" horiz-adv-x="485" 
d="M33 -197l0.00195312 14.001c67.333 69.333 119.166 151.166 155.499 245.499s54.5 192.166 54.5 293.499c0 104 -19.167 205 -57.5 303s-94.166 182 -167.499 252v13h141c71.333 -64 125.666 -146.167 162.999 -246.5s56 -207.5 56 -321.5
c0 -111.333 -17.833 -215.666 -53.5 -312.999s-85.834 -177.333 -150.501 -240h-141z" />
    <glyph glyph-name="asterisk" unicode="*" horiz-adv-x="518" 
d="M399 686l50 -90l-130 -47l130 -47l-52 -93l-108 89l23 -138h-104l22 138l-107 -91l-55 96l130 47l-129 45l51 92l111 -88l-23 139h105l-24 -139z" />
    <glyph glyph-name="plus" unicode="+" horiz-adv-x="674" 
d="M592 295h-189v-194h-132v194h-189v122h189v194h132v-194h189v-122z" />
    <glyph glyph-name="comma" unicode="," horiz-adv-x="254" 
d="M222 147l-117 -281h-90l65 281h142z" />
    <glyph glyph-name="hyphen" unicode="-" horiz-adv-x="583" 
d="M495 416v-118h-424v118h424z" />
    <glyph glyph-name="period" unicode="." horiz-adv-x="260" 
d="M68.5 16.5c-16.333 15.667 -24.5 35.167 -24.5 58.5s8.16699 42.833 24.5 58.5s37.166 23.5 62.499 23.5c24.667 0 45 -7.83301 61 -23.5s24 -35.167 24 -58.5s-8 -42.833 -24 -58.5s-36.333 -23.5 -61 -23.5c-25.333 0 -46.166 7.83301 -62.499 23.5z" />
    <glyph glyph-name="slash" unicode="/" horiz-adv-x="486" 
d="M444 947l-270 -1128h-137l270 1128h137z" />
    <glyph glyph-name="zero" unicode="0" horiz-adv-x="646" 
d="M115.5 645c41.667 65.333 110.834 98 207.501 98s165.834 -32.667 207.501 -98s62.5 -155.666 62.5 -270.999c0 -116 -20.833 -207 -62.5 -273s-110.834 -99 -207.501 -99s-165.834 33 -207.501 99s-62.5 157 -62.5 273c0 115.333 20.833 205.666 62.5 270.999z
M445.5 498.5c-6.33301 33.667 -18.998 61.167 -37.998 82.5s-47.167 32 -84.5 32s-65.5 -10.667 -84.5 -32s-31.667 -48.833 -38 -82.5s-9.5 -75.167 -9.5 -124.5c0 -50.667 3 -93.167 9 -127.5s18.667 -62 38 -83s47.666 -31.5 84.999 -31.5s65.666 10.5 84.999 31.5
s32 48.667 38 83s9 76.833 9 127.5c0 49.333 -3.16699 90.833 -9.5 124.5z" />
    <glyph glyph-name="one" unicode="1" horiz-adv-x="362" 
d="M36 600v129h241v-729h-144v600h-97z" />
    <glyph glyph-name="two" unicode="2" horiz-adv-x="574" 
d="M97 158c64 53.333 115 97.832 153 133.499s69.667 72.834 95 111.501s38 76.667 38 114c0 34 -8 60.667 -24 80s-40.667 29 -74 29s-59 -11.167 -77 -33.5s-27.333 -52.833 -28 -91.5h-136c2.66699 80 26.5 140.667 71.5 182s102.167 62 171.5 62
c76 0 134.333 -20.167 175 -60.5s61 -93.5 61 -159.5c0 -52 -14 -101.667 -42 -149s-60 -88.5 -96 -123.5s-83 -77.167 -141 -126.5h295v-116h-494v104z" />
    <glyph glyph-name="three" unicode="3" horiz-adv-x="599" 
d="M125.5 691.5c43.667 36.333 101.162 54.501 172.495 54.501c48.667 0 90.334 -8.5 125.001 -25.5s60.834 -40 78.501 -69s26.5 -61.833 26.5 -98.5c0 -42 -10.833 -77.5 -32.5 -106.5s-47.5 -48.5 -77.5 -58.5v-4c38.667 -12 68.834 -33.333 90.501 -64
s32.5 -70 32.5 -118c0 -40 -9.16699 -75.667 -27.5 -107s-45.333 -55.833 -81 -73.5s-78.5 -26.5 -128.5 -26.5c-75.333 0 -136.666 19 -183.999 57s-72.333 94 -75 168h136c1.33301 -32.667 12.5 -58.834 33.5 -78.501s49.833 -29.5 86.5 -29.5c34 0 60.167 9.5 78.5 28.5
s27.5 43.5 27.5 73.5c0 40 -12.667 68.667 -38 86s-64.666 26 -117.999 26h-29v115h29c94.667 0 142 31.667 142 95c0 28.667 -8.5 51 -25.5 67s-41.5 24 -73.5 24c-31.333 0 -55.5 -8.5 -72.5 -25.5s-26.833 -38.5 -29.5 -64.5h-137
c3.33301 66.667 26.833 118.167 70.5 154.5z" />
    <glyph glyph-name="four" unicode="4" horiz-adv-x="661" 
d="M47 142v110l327 468h163v-456h88v-122h-88v-142h-140v142h-350zM406 570l-205 -306h205v306z" />
    <glyph glyph-name="five" unicode="5" horiz-adv-x="644" 
d="M543 608l-324 -0.00195312v-171c14 17.333 34 31.5 60 42.5s53.667 16.5 83 16.5c53.333 0 97 -11.667 131 -35s58.667 -53.166 74 -89.499s23 -75.166 23 -116.499c0 -76.667 -21.833 -138.334 -65.5 -185.001s-105.834 -70 -186.501 -70c-76 0 -136.667 19 -182 57
s-71 87.667 -77 149h136c6 -26.667 19.5 -48 40.5 -64s47.833 -24 80.5 -24c39.333 0 69 12.333 89 37s30 57.334 30 98.001c0 41.333 -10.167 72.833 -30.5 94.5s-50.166 32.5 -89.499 32.5c-28 0 -51.333 -7 -70 -21s-32 -32.667 -40 -56h-134v428h452v-123z" />
    <glyph glyph-name="six" unicode="6" horiz-adv-x="640" 
d="M396.5 610c-16.333 14 -39.8291 21.001 -70.4961 21.001c-46 0 -79.833 -18.5 -101.5 -55.5s-32.834 -97.167 -33.501 -180.5c16 26.667 39.333 47.5 70 62.5s64 22.5 100 22.5c43.333 0 81.666 -9.33301 114.999 -28s59.333 -45.834 78 -81.501s28 -78.5 28 -128.5
c0 -47.333 -9.5 -89.5 -28.5 -126.5s-46.833 -65.833 -83.5 -86.5s-80.334 -31 -131.001 -31c-69.333 0 -123.833 15.333 -163.5 46s-67.334 73.5 -83.001 128.5s-23.5 122.833 -23.5 203.5c0 122 21 214.167 63 276.5s108.333 93.5 199 93.5c70 0 124.333 -19 163 -57
s61 -85.333 67 -142h-130c-6.66699 28 -18.167 49 -34.5 63zM240.004 334.001c-24 -20.667 -36.001 -50.668 -36.001 -90.001s11.167 -70.333 33.5 -93s53.833 -34 94.5 -34c36 0 64.5 11 85.5 33s31.5 51.667 31.5 89c0 38.667 -10.167 69.334 -30.5 92.001
s-50.166 34 -89.499 34c-35.333 0 -65 -10.333 -89 -31z" />
    <glyph glyph-name="seven" unicode="7" horiz-adv-x="548" 
d="M517 623l-266 -623h-142l268 607h-342v120h482v-104z" />
    <glyph glyph-name="eight" unicode="8" horiz-adv-x="643" 
d="M75 547c0 36 9.16504 68.833 27.498 98.5s46 53.334 83 71.001s82.167 26.5 135.5 26.5s98.5 -8.83301 135.5 -26.5s64.667 -41.334 83 -71.001s27.5 -62.5 27.5 -98.5c0 -36.667 -9 -68.834 -27 -96.501s-42 -49.167 -72 -64.5c36.667 -16 65.334 -39.333 86.001 -70
s31 -67 31 -109c0 -45.333 -11.5 -84.833 -34.5 -118.5s-54.5 -59.5 -94.5 -77.5s-85 -27 -135 -27s-94.833 9 -134.5 27s-71 43.833 -94 77.5s-34.5 73.167 -34.5 118.5c0 42 10.333 78.5 31 109.5s49.334 54.167 86.001 69.5c-66.667 34.667 -100 88.334 -100 161.001z
M401.498 603c-19.667 18 -46.5 27 -80.5 27c-33.333 0 -59.833 -9 -79.5 -27s-29.5 -43.667 -29.5 -77c0 -30 10.167 -54 30.5 -72s46.5 -27 78.5 -27s58.333 9.16699 79 27.5s31 42.5 31 72.5c0 32.667 -9.83301 58 -29.5 76zM228.498 296
c-23.667 -19.333 -35.5 -47 -35.5 -83c0 -33.333 11.5 -60.5 34.5 -81.5s54.167 -31.5 93.5 -31.5s70.333 10.667 93 32s34 48.333 34 81c0 35.333 -11.667 62.833 -35 82.5s-54 29.5 -92 29.5s-68.833 -9.66699 -92.5 -29z" />
    <glyph glyph-name="nine" unicode="9" horiz-adv-x="626" 
d="M251.5 137.5c19 -15.667 44.5 -23.499 76.5 -23.499c41.333 0 71.333 17.167 90 51.5s28 92.166 28 173.499c-15.333 -21.333 -36.833 -38 -64.5 -50s-57.5 -18 -89.5 -18c-42.667 0 -81.167 8.83301 -115.5 26.5s-61.5 44 -81.5 79s-30 77.5 -30 127.5
c0 74 22 132.833 66 176.5s104 65.5 180 65.5c94.667 0 161.5 -30.333 200.5 -91s58.5 -152 58.5 -274c0 -86.667 -7.5 -157.667 -22.5 -213s-40.667 -97.333 -77 -126s-85.833 -43 -148.5 -43c-49.333 0 -91.333 9.5 -126 28.5s-61.167 44 -79.5 75
s-28.833 65.167 -31.5 102.5h130c5.33301 -29.333 17.5 -51.833 36.5 -67.5zM403 417.001c20 21.333 30 49.999 30 85.999c0 39.333 -10.5 69.833 -31.5 91.5s-49.5 32.5 -85.5 32.5s-64.5 -11.167 -85.5 -33.5s-31.5 -51.833 -31.5 -88.5
c0 -35.333 10.167 -64.166 30.5 -86.499s50.833 -33.5 91.5 -33.5c34.667 0 62 10.667 82 32z" />
    <glyph glyph-name="colon" unicode=":" horiz-adv-x="263" 
d="M68.5 16.5c-16.333 15.667 -24.5 35.167 -24.5 58.5s8.16699 42.833 24.5 58.5s37.166 23.5 62.499 23.5c24.667 0 45 -7.83301 61 -23.5s24 -35.167 24 -58.5s-8 -42.833 -24 -58.5s-36.333 -23.5 -61 -23.5c-25.333 0 -46.166 7.83301 -62.499 23.5zM68.5 430.5
c-16.333 15.667 -24.5 35.167 -24.5 58.5s8.16699 42.833 24.5 58.5s37.166 23.5 62.499 23.5c24.667 0 45 -7.83301 61 -23.5s24 -35.167 24 -58.5s-8 -42.833 -24 -58.5s-36.333 -23.5 -61 -23.5c-25.333 0 -46.166 7.83301 -62.499 23.5z" />
    <glyph glyph-name="semicolon" unicode=";" horiz-adv-x="324" 
d="M93.5 426.5c-16.333 15.667 -24.5 35.167 -24.5 58.5s8.16699 42.833 24.5 58.5s37.166 23.5 62.499 23.5c24.667 0 45 -7.83301 61 -23.5s24 -35.167 24 -58.5s-8 -42.833 -24 -58.5s-36.333 -23.5 -61 -23.5c-25.333 0 -46.166 7.83301 -62.499 23.5zM248 147
l-117 -281h-90l65 281h142z" />
    <glyph glyph-name="less" unicode="&#x3c;" horiz-adv-x="584" 
d="M297 132l-218 224l218 224h176l-218 -224l218 -224h-176z" />
    <glyph glyph-name="equal" unicode="=" horiz-adv-x="738" 
d="M641 537v-122h-545v122h545zM641 297v-122h-545v122h545z" />
    <glyph glyph-name="greater" unicode="&#x3e;" horiz-adv-x="567" 
d="M89 580h177l218 -224l-218 -224h-177l219 224z" />
    <glyph glyph-name="question" unicode="?" horiz-adv-x="538" 
d="M431.5 665.5c42.333 -37.667 63.501 -89.5 63.501 -155.5c0 -65.333 -21 -115.166 -63 -149.499s-97.667 -51.5 -167 -51.5l-4 -77h-123l-5 170h45c58 0 102.667 7.66699 134 23s47 43.333 47 84c0 29.333 -8.5 52.666 -25.5 69.999s-40.167 26 -69.5 26
c-30.667 0 -54.5 -8.33301 -71.5 -25s-25.5 -39.667 -25.5 -69h-132c-0.666992 40.667 8 77 26 109s44.5 57 79.5 75s76.167 27 123.5 27c69.333 0 125.166 -18.833 167.499 -56.5zM136.501 16.5c-16.333 15.667 -24.5 35.167 -24.5 58.5s8.16699 42.833 24.5 58.5
s37.166 23.5 62.499 23.5c24.667 0 45 -7.83301 61 -23.5s24 -35.167 24 -58.5s-8 -42.833 -24 -58.5s-36.333 -23.5 -61 -23.5c-25.333 0 -46.166 7.83301 -62.499 23.5z" />
    <glyph glyph-name="at" unicode="@" horiz-adv-x="1051" 
d="M803 613c56.667 -28.667 100.168 -68.9961 130.501 -120.996s45.5 -112 45.5 -180c0 -54.667 -9.5 -106.334 -28.5 -155.001s-46.5 -88 -82.5 -118s-78.667 -45 -128 -45c-34.667 0 -62.667 7.16699 -84 21.5s-35 34.833 -41 61.5c-19.333 -26 -44.333 -46.5 -75 -61.5
s-63 -22.5 -97 -22.5c-50.667 0 -90.334 15.167 -119.001 45.5s-43 71.833 -43 124.5c0 50 10.333 96.667 31 140s49.334 78.166 86.001 104.499s78 39.5 124 39.5c57.333 0 96.666 -20 117.999 -60l9 52h117l-47 -270c-2 -12.667 -3 -24.334 -3 -35.001
c0 -16 3.33301 -28 10 -36s18 -12 34 -12c24 0 44.167 11.333 60.5 34s28.666 51 36.999 85s12.5 68 12.5 102c0 80.667 -24.667 143.167 -74 187.5s-119 66.5 -209 66.5c-76.667 0 -146 -18.5 -208 -55.5s-110.5 -87.333 -145.5 -151s-52.5 -134.5 -52.5 -212.5
c0 -82.667 24.5 -146.334 73.5 -191.001s118.5 -67 208.5 -67c64.667 0 121.667 11.667 171 35l20 -92c-63.333 -26.667 -133.666 -40 -210.999 -40c-74.667 0 -140 14.167 -196 42.5s-99.333 68.5 -130 120.5s-46 112.333 -46 181c0 98 22.833 187 68.5 267
s109 143 190 189s171.833 69 272.5 69c77.333 0 144.333 -14.333 201 -43zM553.001 118.004c20 14 35.833 32.667 47.5 56s17.5 48.333 17.5 75c0 28 -7.66699 50.667 -23 68s-36.666 26 -63.999 26c-24.667 0 -46.334 -7.5 -65.001 -22.5s-33.167 -34.5 -43.5 -58.5
s-15.5 -49.333 -15.5 -76c0 -27.333 6.66699 -49 20 -65s33.333 -24 60 -24c24 0 46 7 66 21z" />
    <glyph glyph-name="A" unicode="A" horiz-adv-x="716" 
d="M497 133h-278l-46 -133h-147l251 699h163l251 -699h-148zM459 245l-101 292l-101 -292h202z" />
    <glyph glyph-name="B" unicode="B" horiz-adv-x="643" 
d="M562 299c25.333 -32 38.002 -68.6699 38.002 -110.003c0 -37.333 -9.16699 -70.166 -27.5 -98.499s-44.833 -50.5 -79.5 -66.5s-75.667 -24 -123 -24h-301v698h288c47.333 0 88.166 -7.66699 122.499 -23s60.333 -36.666 78 -63.999s26.5 -58.333 26.5 -93
c0 -40.667 -10.833 -74.667 -32.5 -102s-50.5 -46.666 -86.5 -57.999c39.333 -7.33301 71.666 -27 96.999 -59zM209.002 409.997h128c33.333 0 59 7.5 77 22.5s27 36.5 27 64.5s-9 49.667 -27 65s-43.667 23 -77 23h-128v-175zM429.502 137.997c19 16 28.5 38.667 28.5 68
c0 30 -10 53.5 -30 70.5s-47 25.5 -81 25.5h-138v-188h141c34 0 60.5 8 79.5 24z" />
    <glyph glyph-name="C" unicode="C" horiz-adv-x="768" 
d="M81.5 534.5c31 54.333 73.332 96.668 126.999 127.001s113.834 45.5 180.501 45.5c78 0 146.333 -20 205 -60s99.667 -95.333 123 -166h-161c-16 33.333 -38.5 58.333 -67.5 75s-62.5 25 -100.5 25c-40.667 0 -76.834 -9.5 -108.501 -28.5s-56.334 -45.833 -74.001 -80.5
s-26.5 -75.334 -26.5 -122.001c0 -46 8.83301 -86.5 26.5 -121.5s42.334 -62 74.001 -81s67.834 -28.5 108.501 -28.5c38 0 71.5 8.5 100.5 25.5s51.5 42.167 67.5 75.5h161c-23.333 -71.333 -64.166 -126.833 -122.499 -166.5s-126.833 -59.5 -205.5 -59.5
c-66.667 0 -126.834 15.167 -180.501 45.5s-96 72.5 -127 126.5s-46.5 115.333 -46.5 184s15.5 130.167 46.5 184.5z" />
    <glyph glyph-name="D" unicode="D" horiz-adv-x="717" 
d="M506.5 655c55.667 -28.667 98.667 -69.5 129 -122.5s45.5 -114.5 45.5 -184.5s-15.167 -131.167 -45.5 -183.5s-73.333 -92.833 -129 -121.5s-120.167 -43 -193.5 -43h-244v698h244c73.333 0 137.833 -14.333 193.5 -43zM478 179c40 40 60 96.333 60 169
s-20 129.5 -60 170.5s-96.667 61.5 -170 61.5h-99v-461h99c73.333 0 130 20 170 60z" />
    <glyph glyph-name="E" unicode="E" horiz-adv-x="532" 
d="M209 585v-175h235v-111h-235v-185h265v-114h-405v699h405v-114h-265z" />
    <glyph glyph-name="F" unicode="F" horiz-adv-x="530" 
d="M500 698v-113h-291v-179h223v-111h-223v-295h-140v698h431z" />
    <glyph glyph-name="G" unicode="G" horiz-adv-x="768" 
d="M555 488c-16 29.333 -38.001 51.6699 -66.001 67.0029s-60.667 23 -98 23c-41.333 0 -78 -9.33301 -110 -28s-57 -45.334 -75 -80.001s-27 -74.667 -27 -120c0 -46.667 9.16699 -87.334 27.5 -122.001s43.833 -61.334 76.5 -80.001s70.667 -28 114 -28
c53.333 0 97 14.167 131 42.5s56.333 67.833 67 118.5h-240v107h378v-122c-9.33301 -48.667 -29.333 -93.667 -60 -135s-70.167 -74.5 -118.5 -99.5s-102.5 -37.5 -162.5 -37.5c-67.333 0 -128.166 15.167 -182.499 45.5s-97 72.5 -128 126.5s-46.5 115.333 -46.5 184
s15.5 130.167 46.5 184.5s73.667 96.666 128 126.999s114.833 45.5 181.5 45.5c78.667 0 147 -19.167 205 -57.5s98 -92.166 120 -161.499h-161z" />
    <glyph glyph-name="H" unicode="H" horiz-adv-x="717" 
d="M648 698v-698h-140v297h-299v-297h-140v698h140v-287h299v287h140z" />
    <glyph glyph-name="I" unicode="I" horiz-adv-x="278" 
d="M209 698v-698h-140v698h140z" />
    <glyph glyph-name="J" unicode="J" horiz-adv-x="570" 
d="M476 698v-490c0 -68 -19.667 -120.833 -59 -158.5s-92 -56.5 -158 -56.5c-66.667 0 -120.5 19.333 -161.5 58s-61.5 92.667 -61.5 162h140c0.666992 -30 7.83398 -53.333 21.501 -70s33.5 -25 59.5 -25c25.333 0 44.666 8 57.999 24s20 38 20 66v490h141z" />
    <glyph glyph-name="K" unicode="K" horiz-adv-x="663" 
d="M463 0l-254 311v-311h-140v698h140v-313l254 313h169l-288 -346l296 -352h-177z" />
    <glyph glyph-name="L" unicode="L" horiz-adv-x="459" 
d="M209 111h230v-111h-370v698h140v-587z" />
    <glyph glyph-name="M" unicode="M" horiz-adv-x="899" 
d="M830 698v-698h-140v454l-187 -454h-106l-188 454v-454h-140v698h159l222 -519l222 519h158z" />
    <glyph glyph-name="N" unicode="N" horiz-adv-x="735" 
d="M666 0h-140l-317 479v-479h-140v699h140l317 -480v480h140v-699z" />
    <glyph glyph-name="O" unicode="O" horiz-adv-x="785" 
d="M213 39c-54.667 30.667 -97.999 73.167 -129.999 127.5s-48 115.833 -48 184.5c0 68 16 129.167 48 183.5s75.333 96.833 130 127.5s114.667 46 180 46c66 0 126.167 -15.333 180.5 -46s97.333 -73.167 129 -127.5s47.5 -115.5 47.5 -183.5
c0 -68.667 -15.833 -130.167 -47.5 -184.5s-74.834 -96.833 -129.501 -127.5s-114.667 -46 -180 -46s-125.333 15.333 -180 46zM504.001 146.5c32 19 57 46.167 75 81.5s27 76.333 27 123s-9 87.5 -27 122.5s-43 61.833 -75 80.5s-69 28 -111 28
s-79.167 -9.33301 -111.5 -28s-57.5 -45.5 -75.5 -80.5s-27 -75.833 -27 -122.5s9 -87.667 27 -123s43.167 -62.5 75.5 -81.5s69.5 -28.5 111.5 -28.5s79 9.5 111 28.5z" />
    <glyph glyph-name="P" unicode="P" horiz-adv-x="608" 
d="M551.5 377c-17.667 -32.667 -45.333 -58.999 -83 -78.999s-85.167 -30 -142.5 -30h-117v-268h-140v698h257c54 0 100 -9.33301 138 -28s66.5 -44.334 85.5 -77.001s28.5 -69.667 28.5 -111c0 -37.333 -8.83301 -72.333 -26.5 -105zM406.001 407.501
c18.667 17.667 27.999 42.5 27.999 74.5c0 68 -38 102 -114 102h-111v-203h111c38.667 0 67.334 8.83301 86.001 26.5z" />
    <glyph glyph-name="Q" unicode="Q" horiz-adv-x="787" 
d="M589 -123l-106.001 127c-29.333 -7.33301 -59.333 -11 -90 -11c-65.333 0 -125.333 15.333 -180 46s-98 73.167 -130 127.5s-48 115.833 -48 184.5c0 68 16 129.167 48 183.5s75.333 96.833 130 127.5s114.667 46 180 46c66 0 126.167 -15.333 180.5 -46
s97.333 -73.167 129 -127.5s47.5 -115.5 47.5 -183.5c0 -62 -13.167 -118.5 -39.5 -169.5s-62.166 -92.5 -107.499 -124.5l160 -180h-174zM205.999 228c18 -35.333 43.167 -62.5 75.5 -81.5s69.5 -28.5 111.5 -28.5s79 9.5 111 28.5s57 46.167 75 81.5s27 76.333 27 123
s-9 87.5 -27 122.5s-43 61.833 -75 80.5s-69 28 -111 28s-79.167 -9.33301 -111.5 -28s-57.5 -45.5 -75.5 -80.5s-27 -75.833 -27 -122.5s9 -87.667 27 -123z" />
    <glyph glyph-name="R" unicode="R" horiz-adv-x="641" 
d="M429 0l-153.999 272h-66v-272h-140v698h262c54 0 100 -9.5 138 -28.5s66.5 -44.667 85.5 -77s28.5 -68.5 28.5 -108.5c0 -46 -13.333 -87.5 -40 -124.5s-66.334 -62.5 -119.001 -76.5l167 -283h-162zM209.001 377h117c38 0 66.333 9.16699 85 27.5s28 43.833 28 76.5
c0 32 -9.33301 56.833 -28 74.5s-47 26.5 -85 26.5h-117v-205z" />
    <glyph glyph-name="S" unicode="S" horiz-adv-x="609" 
d="M178.5 18c-39 16.667 -69.8369 40.667 -92.5039 72s-34.334 68.333 -35.001 111h150c2 -28.667 12.167 -51.334 30.5 -68.001s43.5 -25 75.5 -25c32.667 0 58.334 7.83301 77.001 23.5s28 36.167 28 61.5c0 20.667 -6.33301 37.667 -19 51s-28.5 23.833 -47.5 31.5
s-45.167 16.167 -78.5 25.5c-45.333 13.333 -82.166 26.5 -110.499 39.5s-52.666 32.667 -72.999 59s-30.5 61.5 -30.5 105.5c0 41.333 10.333 77.333 31 108s49.667 54.167 87 70.5s80 24.5 128 24.5c72 0 130.5 -17.5 175.5 -52.5s69.833 -83.833 74.5 -146.5h-154
c-1.33301 24 -11.5 43.833 -30.5 59.5s-44.167 23.5 -75.5 23.5c-27.333 0 -49.166 -7 -65.499 -21s-24.5 -34.333 -24.5 -61c0 -18.667 6.16699 -34.167 18.5 -46.5s27.666 -22.333 45.999 -30s44.166 -16.5 77.499 -26.5c45.333 -13.333 82.333 -26.666 111 -39.999
s53.334 -33.333 74.001 -60s31 -61.667 31 -105c0 -37.333 -9.66699 -72 -29 -104s-47.666 -57.5 -84.999 -76.5s-81.666 -28.5 -132.999 -28.5c-48.667 0 -92.5 8.33301 -131.5 25z" />
    <glyph glyph-name="T" unicode="T" horiz-adv-x="577" 
d="M544 698v-113h-186v-585h-140v585h-186v113h512z" />
    <glyph glyph-name="U" unicode="U" horiz-adv-x="697" 
d="M207 698l-0.000976562 -432c0 -47.333 12.333 -83.5 37 -108.5s59.334 -37.5 104.001 -37.5c45.333 0 80.333 12.5 105 37.5s37 61.167 37 108.5v432h141v-431c0 -59.333 -12.833 -109.5 -38.5 -150.5s-60 -71.833 -103 -92.5s-90.833 -31 -143.5 -31
c-52 0 -99.167 10.333 -141.5 31s-75.833 51.5 -100.5 92.5s-37 91.167 -37 150.5v431h140z" />
    <glyph glyph-name="V" unicode="V" horiz-adv-x="711" 
d="M696 698l-256 -698h-170l-256 698h150l192 -555l191 555h149z" />
    <glyph glyph-name="W" unicode="W" horiz-adv-x="1024" 
d="M1002 698l-195 -698h-165l-131 497l-137 -497l-164 -1l-188 699h150l123 -542l142 542h156l134 -539l124 539h151z" />
    <glyph glyph-name="X" unicode="X" horiz-adv-x="686" 
d="M487 0l-151 235l-137 -235h-158l220 352l-223 346h161l151 -234l136 234h158l-219 -351l223 -347h-161z" />
    <glyph glyph-name="Y" unicode="Y" horiz-adv-x="636" 
d="M624 698l-236 -455v-243h-140v243l-237 455h158l150 -319l149 319h156z" />
    <glyph glyph-name="Z" unicode="Z" horiz-adv-x="576" 
d="M212 118h314v-118h-476v108l312 472h-312v118h476v-108z" />
    <glyph glyph-name="bracketleft" unicode="[" horiz-adv-x="497" 
d="M386 924v-114h-119v-891h119v-116h-251v1121h251z" />
    <glyph glyph-name="backslash" unicode="\" horiz-adv-x="756" 
d="M458 -181l-285 1128h136l286 -1128h-137z" />
    <glyph glyph-name="bracketright" unicode="]" horiz-adv-x="496" 
d="M361 -197h-251v116h119v891h-119v114h251v-1121z" />
    <glyph glyph-name="asciicircum" unicode="^" horiz-adv-x="680" 
d="M176 167h-143l240 533h134l240 -533h-144l-162 367z" />
    <glyph glyph-name="underscore" unicode="_" horiz-adv-x="790" 
d="M694 -40v-133h-587v133h587z" />
    <glyph glyph-name="grave" unicode="`" horiz-adv-x="271" 
d="M240 693v-100l-230 105v114z" />
    <glyph glyph-name="a" unicode="a" horiz-adv-x="678" 
d="M66.5 428c22.333 43.333 52.667 76.666 91 99.999s81.166 35 128.499 35c41.333 0 77.5 -8.33301 108.5 -25s55.833 -37.667 74.5 -63v79h141v-554h-141v81c-18 -26 -42.833 -47.5 -74.5 -64.5s-68.167 -25.5 -109.5 -25.5c-46.667 0 -89.167 12 -127.5 36
s-68.666 57.833 -90.999 101.5s-33.5 93.834 -33.5 150.501c0 56 11.167 105.667 33.5 149zM449.001 364.5c-13.333 24.333 -31.332 42.999 -53.999 55.999s-47 19.5 -73 19.5s-50 -6.33301 -72 -19s-39.833 -31.167 -53.5 -55.5s-20.5 -53.166 -20.5 -86.499
s6.83301 -62.5 20.5 -87.5s31.667 -44.167 54 -57.5s46.166 -20 71.499 -20c26 0 50.333 6.5 73 19.5s40.667 31.667 54 56s20 53.5 20 87.5s-6.66699 63.167 -20 87.5z" />
    <glyph glyph-name="b" unicode="b" horiz-adv-x="678" 
d="M283.5 538c31.667 16.667 67.833 25 108.5 25c47.333 0 90.166 -11.667 128.499 -35s68.666 -56.5 90.999 -99.5s33.5 -92.833 33.5 -149.5s-11.167 -106.834 -33.5 -150.501s-52.666 -77.5 -90.999 -101.5s-81.166 -36 -128.499 -36
c-41.333 0 -77.5 8.16699 -108.5 24.5s-55.833 37.5 -74.5 63.5v-79h-140v740h140v-267c18 26.667 42.833 48.334 74.5 65.001zM481.499 365.5c-13.667 24.333 -31.667 42.834 -54 55.501s-46.5 19 -72.5 19c-25.333 0 -49.166 -6.5 -71.499 -19.5
s-40.333 -31.833 -54 -56.5s-20.5 -53.667 -20.5 -87s6.83301 -62.333 20.5 -87s31.667 -43.5 54 -56.5s46.166 -19.5 71.499 -19.5c26 0 50.167 6.66699 72.5 20s40.333 32.333 54 57s20.5 54 20.5 88c0 33.333 -6.83301 62.166 -20.5 86.499z" />
    <glyph glyph-name="c" unicode="c" horiz-adv-x="602" 
d="M68 427.5c23.333 43 55.665 76.333 96.998 100s88.666 35.5 141.999 35.5c68.667 0 125.5 -17.167 170.5 -51.5s75.167 -82.5 90.5 -144.5h-151c-8 24 -21.5 42.833 -40.5 56.5s-42.5 20.5 -70.5 20.5c-40 0 -71.667 -14.5 -95 -43.5s-35 -70.167 -35 -123.5
c0 -52.667 11.667 -93.5 35 -122.5s55 -43.5 95 -43.5c56.667 0 93.667 25.333 111 76h151c-15.333 -60 -45.666 -107.667 -90.999 -143s-102 -53 -170 -53c-53.333 0 -100.666 11.833 -141.999 35.5s-73.666 57 -96.999 100s-35 93.167 -35 150.5s11.667 107.5 35 150.5z
" />
    <glyph glyph-name="d" unicode="d" horiz-adv-x="678" 
d="M66.5 428c22.333 43.333 52.832 76.666 91.499 99.999s81.667 35 129 35c36 0 70.333 -7.83301 103 -23.5s58.667 -36.5 78 -62.5v263h142v-740h-142v82c-17.333 -27.333 -41.666 -49.333 -72.999 -66s-67.666 -25 -108.999 -25c-46.667 0 -89.334 12 -128.001 36
s-69.167 57.833 -91.5 101.5s-33.5 93.834 -33.5 150.501c0 56 11.167 105.667 33.5 149zM448.999 364.5c-13.333 24.333 -31.332 42.999 -53.999 55.999s-47 19.5 -73 19.5s-50 -6.33301 -72 -19s-39.833 -31.167 -53.5 -55.5s-20.5 -53.166 -20.5 -86.499
s6.83301 -62.5 20.5 -87.5s31.667 -44.167 54 -57.5s46.166 -20 71.499 -20c26 0 50.333 6.5 73 19.5s40.667 31.667 54 56s20 53.5 20 87.5s-6.66699 63.167 -20 87.5z" />
    <glyph glyph-name="e" unicode="e" horiz-adv-x="617" 
d="M580 235l-405.002 0.00195312c3.33301 -40 17.333 -71.333 42 -94s55 -34 91 -34c52 0 89 22.333 111 67h151c-16 -53.333 -46.667 -97.166 -92 -131.499s-101 -51.5 -167 -51.5c-53.333 0 -101.166 11.833 -143.499 35.5s-75.333 57.167 -99 100.5
s-35.5 93.333 -35.5 150c0 57.333 11.667 107.666 35 150.999s56 76.666 98 99.999s90.333 35 145 35c52.667 0 99.834 -11.333 141.501 -34s74 -54.834 97 -96.501s34.5 -89.5 34.5 -143.5c0 -20 -1.33301 -38 -4 -54zM438.998 329.002
c-0.666992 36 -13.666 64.833 -38.999 86.5s-56.333 32.5 -93 32.5c-34.667 0 -63.834 -10.5 -87.501 -31.5s-38.167 -50.167 -43.5 -87.5h263z" />
    <glyph glyph-name="f" unicode="f" horiz-adv-x="345" 
d="M323 439h-97v-439h-142v439h-63v115h63v28c0 68 19.333 118 58 150s97 47 175 45v-118c-34 0.666992 -57.667 -5 -71 -17s-20 -33.667 -20 -65v-23h97v-115z" />
    <glyph glyph-name="g" unicode="g" horiz-adv-x="678" 
d="M395 538.5c31.333 -16.333 56.0059 -37.5 74.0059 -63.5v79h141v-558c0 -51.333 -10.333 -97.166 -31 -137.499s-51.667 -72.333 -93 -96s-91.333 -35.5 -150 -35.5c-78.667 0 -143.167 18.333 -193.5 55s-78.833 86.667 -85.5 150h139
c7.33301 -25.333 23.166 -45.5 47.499 -60.5s53.833 -22.5 88.5 -22.5c40.667 0 73.667 12.167 99 36.5s38 61.166 38 110.499v86c-18 -26 -42.833 -47.667 -74.5 -65s-67.834 -26 -108.501 -26c-46.667 0 -89.334 12 -128.001 36s-69.167 57.833 -91.5 101.5
s-33.5 93.834 -33.5 150.501c0 56 11.167 105.667 33.5 149s52.666 76.666 90.999 99.999s81.166 35 128.499 35c41.333 0 77.666 -8.16699 108.999 -24.5zM449.006 364.5c-13.333 24.333 -31.332 42.999 -53.999 55.999s-47 19.5 -73 19.5s-50 -6.33301 -72 -19
s-39.833 -31.167 -53.5 -55.5s-20.5 -53.166 -20.5 -86.499s6.83301 -62.5 20.5 -87.5s31.667 -44.167 54 -57.5s46.166 -20 71.499 -20c26 0 50.333 6.5 73 19.5s40.667 31.667 54 56s20 53.5 20 87.5s-6.66699 63.167 -20 87.5z" />
    <glyph glyph-name="h" unicode="h" horiz-adv-x="661" 
d="M493 534.5c32.667 -18.333 58.167 -45.333 76.5 -81s27.5 -78.5 27.5 -128.5v-325h-140v306c0 44 -11 77.833 -33 101.5s-52 35.5 -90 35.5c-38.667 0 -69.167 -11.833 -91.5 -35.5s-33.5 -57.5 -33.5 -101.5v-306h-140v740h140v-255c18 24 42 42.833 72 56.5
s63.333 20.5 100 20.5c42 0 79.333 -9.16699 112 -27.5z" />
    <glyph glyph-name="i" unicode="i" horiz-adv-x="278" 
d="M78.5 643.5c-16.333 15.667 -24.5 35.167 -24.5 58.5s8.16699 42.833 24.5 58.5s36.833 23.5 61.5 23.5s45.167 -7.83301 61.5 -23.5s24.5 -35.167 24.5 -58.5s-8.16699 -42.833 -24.5 -58.5s-36.833 -23.5 -61.5 -23.5s-45.167 7.83301 -61.5 23.5zM209 554v-554h-140
v554h140z" />
    <glyph glyph-name="j" unicode="j" horiz-adv-x="278" 
d="M77.5 643.5c-16.333 15.667 -24.5 35.167 -24.5 58.5s8.16699 42.833 24.5 58.5s37.166 23.5 62.499 23.5c24.667 0 45 -7.83301 61 -23.5s24 -35.167 24 -58.5s-8 -42.833 -24 -58.5s-36.333 -23.5 -61 -23.5c-25.333 0 -46.166 7.83301 -62.499 23.5zM209 -91
c0 -61.333 -15.167 -105.5 -45.5 -132.5s-73.833 -40.5 -130.5 -40.5h-62v119h40c21.333 0 36.333 4.16699 45 12.5s13 21.833 13 40.5v646h140v-645z" />
    <glyph glyph-name="k" unicode="k" horiz-adv-x="584" 
d="M397 0l-188 236v-236h-140v740h140v-421l186 235h182l-244 -278l246 -276h-182z" />
    <glyph glyph-name="l" unicode="l" horiz-adv-x="278" 
d="M209 740v-740h-140v740h140z" />
    <glyph glyph-name="m" unicode="m" horiz-adv-x="1048" 
d="M921.5 499.5c41.667 -41.667 62.5 -99.832 62.5 -174.499v-325h-140v306c0 43.333 -11 76.5 -33 99.5s-52 34.5 -90 34.5s-68.167 -11.5 -90.5 -34.5s-33.5 -56.167 -33.5 -99.5v-306h-140v306c0 43.333 -11 76.5 -33 99.5s-52 34.5 -90 34.5
c-38.667 0 -69.167 -11.5 -91.5 -34.5s-33.5 -56.167 -33.5 -99.5v-306h-140v554h140v-67c18 23.333 41.167 41.666 69.5 54.999s59.5 20 93.5 20c43.333 0 82 -9.16699 116 -27.5s60.333 -44.5 79 -78.5c18 32 44.167 57.667 78.5 77s71.5 29 111.5 29
c68 0 122.833 -20.833 164.5 -62.5z" />
    <glyph glyph-name="n" unicode="n" horiz-adv-x="661" 
d="M536 499.5c40.667 -41.667 61 -99.833 61 -174.5v-325h-140v306c0 44 -11 77.833 -33 101.5s-52 35.5 -90 35.5c-38.667 0 -69.167 -11.833 -91.5 -35.5s-33.5 -57.5 -33.5 -101.5v-306h-140v554h140v-69c18.667 24 42.5 42.833 71.5 56.5s60.833 20.5 95.5 20.5
c66 0 119.333 -20.833 160 -62.5z" />
    <glyph glyph-name="o" unicode="o" horiz-adv-x="638" 
d="M171 26.5c-42.667 23.667 -76.1641 57.167 -100.497 100.5s-36.5 93.333 -36.5 150s12.5 106.667 37.5 150s59.167 76.833 102.5 100.5s91.666 35.5 144.999 35.5s101.666 -11.833 144.999 -35.5s77.5 -57.167 102.5 -100.5s37.5 -93.333 37.5 -150
s-12.833 -106.667 -38.5 -150s-60.334 -76.833 -104.001 -100.5s-92.5 -35.5 -146.5 -35.5c-53.333 0 -101.333 11.833 -144 35.5zM386.503 131.5c22.333 12.333 40.168 30.833 53.501 55.5s20 54.667 20 90c0 52.667 -13.833 93.167 -41.5 121.5s-61.5 42.5 -101.5 42.5
s-73.5 -14.167 -100.5 -42.5s-40.5 -68.833 -40.5 -121.5s13.167 -93.167 39.5 -121.5s59.5 -42.5 99.5 -42.5c25.333 0 49.166 6.16699 71.499 18.5z" />
    <glyph glyph-name="p" unicode="p" horiz-adv-x="678" 
d="M283.5 537.5c31.667 17 67.833 25.501 108.5 25.501c47.333 0 90.166 -11.667 128.499 -35s68.666 -56.5 90.999 -99.5s33.5 -92.833 33.5 -149.5s-11.167 -106.834 -33.5 -150.501s-52.666 -77.5 -90.999 -101.5s-81.166 -36 -128.499 -36
c-40.667 0 -76.5 8.33301 -107.5 25s-56.167 37.667 -75.5 63v-343h-140v818h140v-80c18 25.333 42.833 46.5 74.5 63.5zM481.499 365.501c-13.667 24.333 -31.667 42.834 -54 55.501s-46.5 19 -72.5 19c-25.333 0 -49.166 -6.5 -71.499 -19.5s-40.333 -31.833 -54 -56.5
s-20.5 -53.667 -20.5 -87s6.83301 -62.333 20.5 -87s31.667 -43.5 54 -56.5s46.166 -19.5 71.499 -19.5c26 0 50.167 6.66699 72.5 20s40.333 32.333 54 57s20.5 54 20.5 88c0 33.333 -6.83301 62.166 -20.5 86.499z" />
    <glyph glyph-name="q" unicode="q" horiz-adv-x="678" 
d="M67.5 425.5c23 43 54.168 76.502 93.501 100.502s82.666 36 129.999 36c39.333 0 74.166 -7.5 104.499 -22.5s54.833 -34.167 73.5 -57.5v72h141v-818h-141v340c-18.667 -24 -43.667 -44 -75 -60s-66.666 -24 -105.999 -24c-46.667 0 -89.5 12.167 -128.5 36.5
s-69.833 58.166 -92.5 101.499s-34 92.666 -34 147.999s11.5 104.5 34.5 147.5zM448.001 365.002c-14 24.667 -32.167 43.332 -54.5 55.999s-46.166 19 -71.499 19c-24.667 0 -48.167 -6.33301 -70.5 -19s-40.5 -31.167 -54.5 -55.5s-21 -53.5 -21 -87.5s7 -63.5 21 -88.5
s32.167 -43.833 54.5 -56.5s45.833 -19 70.5 -19c25.333 0 49.166 6.33301 71.499 19s40.5 31.334 54.5 56.001s21 54 21 88s-7 63.333 -21 88z" />
    <glyph glyph-name="r" unicode="r" horiz-adv-x="404" 
d="M279.5 537c29 16.667 62.167 25 99.5 25v-147h-37c-44 0 -77.167 -10.333 -99.5 -31s-33.5 -56.667 -33.5 -108v-276h-140v554h140v-86c18 29.333 41.5 52.333 70.5 69z" />
    <glyph glyph-name="s" unicode="s" horiz-adv-x="545" 
d="M159 15.5c-36 16.333 -64.501 38.499 -85.501 66.499s-32.5 59 -34.5 93h141c2.66699 -21.333 13.167 -39 31.5 -53s41.166 -21 68.499 -21c26.667 0 47.5 5.33301 62.5 16s22.5 24.334 22.5 41.001c0 18 -9.16699 31.5 -27.5 40.5s-47.5 18.833 -87.5 29.5
c-41.333 10 -75.166 20.333 -101.499 31s-49 27 -68 49s-28.5 51.667 -28.5 89c0 30.667 8.83301 58.667 26.5 84s43 45.333 76 60s71.833 22 116.5 22c66 0 118.667 -16.5 158 -49.5s61 -77.5 65 -133.5h-134c-2 22 -11.167 39.5 -27.5 52.5s-38.166 19.5 -65.499 19.5
c-25.333 0 -44.833 -4.66699 -58.5 -14s-20.5 -22.333 -20.5 -39c0 -18.667 9.33301 -32.834 28 -42.501s47.667 -19.5 87 -29.5c40 -10 73 -20.333 99 -31s48.5 -27.167 67.5 -49.5s28.833 -51.833 29.5 -88.5c0 -32 -8.83301 -60.667 -26.5 -86s-43 -45.166 -76 -59.499
s-71.5 -21.5 -115.5 -21.5c-45.333 0 -86 8.16699 -122 24.5z" />
    <glyph glyph-name="t" unicode="t" horiz-adv-x="388" 
d="M232 439v-268c0 -18.667 4.5 -32.167 13.5 -40.5s24.167 -12.5 45.5 -12.5h65v-118h-88c-118 -0 -177 57.333 -177 172v267h-66v115h66v137h141v-137h124v-115h-124z" />
    <glyph glyph-name="u" unicode="u" horiz-adv-x="661" 
d="M592 554l-0.000976562 -554h-141v70c-18 -24 -41.5 -42.833 -70.5 -56.5s-60.5 -20.5 -94.5 -20.5c-43.333 0 -81.666 9.16699 -114.999 27.5s-59.5 45.333 -78.5 81s-28.5 78.167 -28.5 127.5v325h140v-305c0 -44 11 -77.833 33 -101.5s52 -35.5 90 -35.5
c38.667 0 69 11.833 91 35.5s33 57.5 33 101.5v305h141z" />
    <glyph glyph-name="v" unicode="v" horiz-adv-x="599" 
d="M300 129l140 425h149l-205 -554h-170l-204 554h150z" />
    <glyph glyph-name="w" unicode="w" horiz-adv-x="844" 
d="M837 554l-162 -554h-151l-101 387l-101 -387h-152l-163 554h142l98 -422l106 422h148l104 -421l98 421h134z" />
    <glyph glyph-name="x" unicode="x" horiz-adv-x="540" 
d="M375 0l-114 172l-101 -172h-150l181 278l-183 276h158l113 -171l102 171h150l-182 -276l184 -278h-158z" />
    <glyph glyph-name="y" unicode="y" horiz-adv-x="605" 
d="M599 554l-343 -816h-149l120 276l-222 540h157l143 -387l145 387h149z" />
    <glyph glyph-name="z" unicode="z" horiz-adv-x="483" 
d="M197 115h247v-115h-406v113l242 326h-241v115h402v-113z" />
    <glyph glyph-name="braceleft" unicode="{" horiz-adv-x="508" 
d="M110 418c32 2.66699 56.166 11.3281 72.499 25.9951s24.5 34.334 24.5 59.001c0 28 -3 68.333 -9 121c-6.66699 62.667 -10 108.334 -10 137.001c0 52 15.5 92.5 46.5 121.5s72.167 43.5 123.5 43.5h69v-118h-42c-41.333 0 -62 -19.667 -62 -59
c0 -18.667 2.66699 -56 8 -112c0.666992 -6.66699 2.33398 -25.5 5.00098 -56.5s4 -58.5 4 -82.5c0 -35.333 -8.66699 -64.666 -26 -87.999s-43.666 -38.333 -78.999 -45v-2c35.333 -7.33301 61.666 -22.5 78.999 -45.5s26 -52.5 26 -88.5
c0 -22.667 -1.33301 -49.5 -4 -80.5l-5 -58.5c-5.33301 -56 -8 -93 -8 -111c0 -20.667 5 -35.667 15 -45s25.667 -14 47 -14h42v-119h-69c-51.333 0 -92.5 14.5 -123.5 43.5s-46.5 69.5 -46.5 121.5c0 29.333 3.33301 75.333 10 138c6 52.667 9 92.667 9 120
c0 24.667 -8.16699 44.334 -24.5 59.001s-40.5 23.334 -72.5 26.001v109z" />
    <glyph glyph-name="bar" unicode="|" 
d="M225 -121h-141v929h141v-929z" />
    <glyph glyph-name="braceright" unicode="}" horiz-adv-x="508" 
d="M325.5 283c-16.333 -14.667 -24.501 -34.3281 -24.501 -58.9951c0 -27.333 3 -67.333 9 -120c6.66699 -62.667 10 -108.667 10 -138c0 -52 -15.5 -92.5 -46.5 -121.5s-72.167 -43.5 -123.5 -43.5h-69v119h42c21.333 0 37 4.66699 47 14s15 24.333 15 45
c0 18 -2.66699 55 -8 111l-5 58.5c-2.66699 31 -4 57.833 -4 80.5c0 36 8.66699 65.5 26 88.5s43.666 38.167 78.999 45.5v2c-35.333 6.66699 -61.666 21.667 -78.999 45s-26 52.666 -26 87.999c0 24 1.33301 51.5 4 82.5s4.33398 49.833 5.00098 56.5
c5.33301 56 8 93.333 8 112c0 39.333 -20.667 59 -62 59h-42v118h69c51.333 0 92.5 -14.5 123.5 -43.5s46.5 -69.5 46.5 -121.5c0 -28.667 -3.33301 -74.334 -10 -137.001c-6 -52.667 -9 -93 -9 -121c0 -24.667 8.16699 -44.334 24.5 -59.001s40.5 -23.334 72.5 -26.001
v-109c-32 -2.66699 -56.167 -11.334 -72.5 -26.001z" />
    <glyph glyph-name="asciitilde" unicode="~" horiz-adv-x="592" 
d="M95 367c30.667 30.667 68.999 46 114.999 46c20 0 38.167 -3.16699 54.5 -9.5s33.833 -15.5 52.5 -27.5c15.333 -9.33301 28.5 -16.333 39.5 -21s22.5 -7 34.5 -7c17.333 0 31.833 5.33301 43.5 16s18.834 26.667 21.501 48h104
c-11.333 -64.667 -32.5 -112.334 -63.5 -143.001s-69.5 -46 -115.5 -46c-20 0 -37.833 3.16699 -53.5 9.5s-33.167 15.5 -52.5 27.5c-16.667 9.33301 -30.167 16.333 -40.5 21s-21.5 7 -33.5 7c-17.333 0 -32 -5.5 -44 -16.5s-19.667 -26.833 -23 -47.5h-102
c11.333 64.667 32.333 112.334 63 143.001z" />
    <glyph glyph-name="uni00A0" unicode="&#xa0;" horiz-adv-x="238" 
 />
    <glyph glyph-name="exclamdown" unicode="&#xa1;" horiz-adv-x="354" 
d="M239 545.5c16 -15.667 24 -35.167 24 -58.5s-8 -42.833 -24 -58.5s-36.333 -23.5 -61 -23.5c-25.333 0 -46.166 7.83301 -62.499 23.5s-24.5 35.167 -24.5 58.5s8.16699 42.833 24.5 58.5s37.166 23.5 62.499 23.5c24.667 0 45 -7.83301 61 -23.5zM116 335h118l16 -483
h-151z" />
    <glyph glyph-name="cent" unicode="&#xa2;" horiz-adv-x="663" 
d="M395.5 129.5c19 12.333 31.832 29.8311 38.499 52.498h130c-4.66699 -50.667 -26.5 -92.667 -65.5 -126s-87.833 -52.666 -146.5 -57.999v-85h-64v85c-74 6.66699 -131.333 33.667 -172 81s-61 107 -61 179s20.333 131.667 61 179s98 74.333 172 81v85h64v-85
c58.667 -5.33301 107.5 -24.666 146.5 -57.999s60.833 -75.333 65.5 -126h-130c-15.333 47.333 -52.666 71 -111.999 71c-41.333 0 -74 -13 -98 -39s-36 -62 -36 -108s12 -82 36 -108s56.667 -39 98 -39c30 0 54.5 6.16699 73.5 18.5z" />
    <glyph glyph-name="sterling" unicode="&#xa3;" horiz-adv-x="654" 
d="M572 109l-0.000976562 -111.998h-485l-22 72c30 29.333 52 59.166 66 89.499s21 68.166 21 113.499c0 4.66699 -0.666992 12.334 -2 23.001h-111v96h83c-13.333 45.333 -20 86.333 -20 123c0 45.333 9.83301 84.5 29.5 117.5s47.167 58.167 82.5 75.5s76 26 122 26
c74 0 130.5 -20.5 169.5 -61.5s59.5 -93.5 61.5 -157.5h-129c-0.666992 32 -9 57.167 -25 75.5s-41 27.5 -75 27.5c-31.333 0 -56.166 -9.33301 -74.499 -28s-27.5 -47.334 -27.5 -86.001c0 -17.333 1.83301 -34.5 5.5 -51.5s9.16699 -37.167 16.5 -60.5h188v-96h-163
c1.33301 -10.667 2 -18.667 2 -24c0 -28.667 -5.5 -57.167 -16.5 -85.5s-27.833 -53.833 -50.5 -76.5h354z" />
    <glyph glyph-name="currency" unicode="&#xa4;" horiz-adv-x="561" 
d="M445 272l56 -56.001l-57 -58l-63 62c-30.667 -14.667 -64.334 -22 -101.001 -22c-37.333 0 -70.666 7.33301 -99.999 22l-62 -62l-58 58l57 57c-20.667 28.667 -31 63.334 -31 104.001s10.667 76 32 106l-58 58l58 58l64 -64c28 14 61 21 99 21s71 -7 99 -21l64 64
l57 -58l-56 -57c22 -29.333 33 -65 33 -107c0 -39.333 -11 -74.333 -33 -105zM339.5 306.999c16.333 16.667 24.501 40 24.501 70c0 30.667 -8 54.334 -24 71.001s-35.667 25 -59 25s-43 -8.33301 -59 -25s-24 -40.334 -24 -71.001s7.83301 -54.167 23.5 -70.5
s35.167 -24.5 58.5 -24.5s43.166 8.33301 59.499 25z" />
    <glyph glyph-name="yen" unicode="&#xa5;" horiz-adv-x="636" 
d="M474 409h114v-97l-165 -2l-35 -67v-9h200v-97h-200v-137h-140v137h-200v97h200v9l-35 68l-165 1v97h114l-151 289h158l149 -326l148 326h158z" />
    <glyph glyph-name="brokenbar" unicode="&#xa6;" horiz-adv-x="350" 
d="M105 808h140v-399h-140v399zM245 -121h-140v399h140v-399z" />
    <glyph glyph-name="section" unicode="&#xa7;" horiz-adv-x="582" 
d="M512 -46c0 -32 -8.83398 -61 -26.501 -87s-43.334 -46.667 -77.001 -62s-73.167 -23 -118.5 -23c-64.667 0 -116.667 15.833 -156 47.5s-59.666 74.5 -60.999 128.5h140c4 -52 30 -78 78 -78c25.333 0 45 5.5 59 16.5s21 26.833 21 47.5c0 14.667 -4.5 27.5 -13.5 38.5
s-24.333 22 -46 33s-53.5 24.833 -95.5 41.5c-60.667 24 -105.834 50.5 -135.501 79.5s-44.5 64.833 -44.5 107.5c0 34.667 9.33301 65.334 28 92.001s47.334 47.667 86.001 63c-53.333 36 -80 81 -80 135c0 32 8.83301 61 26.5 87s43.334 46.667 77.001 62
s73.167 23 118.5 23c64.667 0 116.667 -15.833 156 -47.5s59.666 -74.5 60.999 -128.5h-140c-1.33301 25.333 -8.5 44.666 -21.5 57.999s-31.833 20 -56.5 20c-25.333 0 -45 -5.5 -59 -16.5s-21 -26.833 -21 -47.5c0 -14.667 4.5 -27.5 13.5 -38.5s24.333 -22 46 -33
s53.5 -24.833 95.5 -41.5c60.667 -24 105.834 -50.5 135.501 -79.5s44.5 -64.833 44.5 -107.5c0 -70 -38 -121.667 -114 -155c53.333 -36 80 -81 80 -135zM212.999 178.5c20 -17.667 46.333 -26.5 79 -26.5s58.834 8.83301 78.501 26.5s29.5 39.5 29.5 65.5
s-10 47.833 -30 65.5s-46.333 26.5 -79 26.5s-58.834 -8.83301 -78.501 -26.5s-29.5 -39.5 -29.5 -65.5s10 -47.833 30 -65.5z" />
    <glyph glyph-name="dieresis" unicode="&#xa8;" horiz-adv-x="338" 
d="M29 639c-12.667 12.667 -19 28.334 -19 47.001s6.33301 34.5 19 47.5s28.334 19.5 47.001 19.5s34.5 -6.5 47.5 -19.5s19.5 -28.833 19.5 -47.5s-6.5 -34.334 -19.5 -47.001s-28.833 -19 -47.5 -19s-34.334 6.33301 -47.001 19zM214 639
c-12.667 12.667 -19 28.334 -19 47.001s6.33301 34.5 19 47.5s28.334 19.5 47.001 19.5s34.5 -6.5 47.5 -19.5s19.5 -28.833 19.5 -47.5s-6.5 -34.334 -19.5 -47.001s-28.833 -19 -47.5 -19s-34.334 6.33301 -47.001 19z" />
    <glyph glyph-name="copyright" unicode="&#xa9;" horiz-adv-x="785" 
d="M574.5 662.5c53 -30.333 94.333 -72.666 124 -126.999s44.5 -116.166 44.5 -185.499s-14.833 -131.166 -44.5 -185.499s-71 -96.666 -124 -126.999s-113.5 -45.5 -181.5 -45.5c-68.667 0 -129.5 15.167 -182.5 45.5s-94.333 72.666 -124 126.999
s-44.5 116.166 -44.5 185.499s14.833 131.166 44.5 185.499s71 96.666 124 126.999s113.833 45.5 182.5 45.5c68 0 128.5 -15.167 181.5 -45.5zM236 619.5c-44.667 -25 -79 -60.667 -103 -107s-36 -100.5 -36 -162.5c0 -61.333 12 -115.166 36 -161.499
s58.333 -82.333 103 -108s97 -38.5 157 -38.5c59.333 0 111.333 12.833 156 38.5s79 61.667 103 108s36 100.166 36 161.499c0 62 -12 116.167 -36 162.5s-58.167 82 -102.5 107s-96.5 37.5 -156.5 37.5s-112.333 -12.5 -157 -37.5zM279 550
c-33.333 -18.667 -59.4971 -45.167 -78.4971 -79.5s-28.5 -74.166 -28.5 -119.499s9.5 -85.333 28.5 -120s45.167 -61.334 78.5 -80.001s71 -28 113 -28c51.333 0 95.666 14.167 132.999 42.5s61.666 65.833 72.999 112.5h-123c-7.33301 -18.667 -17.833 -33 -31.5 -43
s-31.834 -15 -54.501 -15c-30.667 0 -54.834 11.167 -72.501 33.5s-26.5 54.833 -26.5 97.5s8.83301 75 26.5 97s41.834 33 72.501 33c21.333 0 39.5 -5 54.5 -15s25.5 -24.333 31.5 -43h123c-11.333 48 -35.5 85.833 -72.5 113.5s-81.5 41.5 -133.5 41.5
c-42 0 -79.667 -9.33301 -113 -28z" />
    <glyph glyph-name="ordfeminine" unicode="&#xaa;" horiz-adv-x="462" 
d="M50.5 624c15 27.333 35.166 48.501 60.499 63.501s53.333 22.5 84 22.5c54.667 0 95.667 -17.333 123 -52v46h108v-351h-108v45c-12 -15.333 -28.167 -27.5 -48.5 -36.5s-44.166 -13.5 -71.499 -13.5c-31.333 0 -60 7.66699 -86 23s-46.5 36.833 -61.5 64.5
s-22.5 59.167 -22.5 94.5s7.5 66.666 22.5 93.999zM165.499 458.001c17.667 -17.333 38.834 -26 63.501 -26s45.667 8.66699 63 26s26 41 26 71s-8.66699 53.667 -26 71s-38.333 26 -63 26s-45.834 -8.66699 -63.501 -26s-26.5 -41 -26.5 -71s8.83301 -53.667 26.5 -71z" />
    <glyph glyph-name="guillemotleft" unicode="&#xab;" horiz-adv-x="521" 
d="M133 120l-88 175l88 175h133l-92 -175l92 -175h-133zM341 120l-89 175l89 175h132l-92 -175l92 -175h-132z" />
    <glyph glyph-name="logicalnot" unicode="&#xac;" horiz-adv-x="681" 
d="M631 438v-243h-140v135h-450v108h590z" />
    <glyph glyph-name="uni00AD" unicode="&#xad;" horiz-adv-x="583" 
d="M495 416v-118h-424v118h424z" />
    <glyph glyph-name="registered" unicode="&#xae;" horiz-adv-x="516" 
d="M367.5 682c32.333 -18 57.5 -43.167 75.5 -75.5s27 -69.166 27 -110.499c0 -40.667 -9 -77 -27 -109s-43.167 -57.167 -75.5 -75.5s-68.833 -27.5 -109.5 -27.5s-77.167 9.16699 -109.5 27.5s-57.666 43.5 -75.999 75.5s-27.5 68.333 -27.5 109
c0 41.333 9.16699 78.166 27.5 110.499s43.666 57.5 75.999 75.5s68.833 27 109.5 27s77.167 -9 109.5 -27zM373.5 379.5c29 29.667 43.5 68.5 43.5 116.5c0 48.667 -14.5 87.834 -43.5 117.501s-67.5 44.5 -115.5 44.5s-86.333 -14.833 -115 -44.5
s-43 -68.834 -43 -117.501s14.333 -87.667 43 -117s67 -44 115 -44s86.5 14.833 115.5 44.5zM341.5 498c-7 -10.667 -16.833 -18.666 -29.5 -23.999l52 -82h-78l-43 75h-6v-75h-67v214h105c23.333 0 42 -6.5 56 -19.5s21 -29.833 21 -50.5
c0 -14.667 -3.5 -27.334 -10.5 -38.001zM236 517.001h32c4.66699 0 8.66699 1.33301 12 4s5 6.66699 5 12c0 10 -5.66699 15 -17 15h-32v-31z" />
    <glyph glyph-name="macron" unicode="&#xaf;" horiz-adv-x="402" 
d="M392 732v-100h-382v100h382z" />
    <glyph glyph-name="degree" unicode="&#xb0;" horiz-adv-x="444" 
d="M81.5 657c36.333 32 83.5 48 141.5 48c57.333 0 104 -16.167 140 -48.5s54 -75.5 54 -129.5c0 -54.667 -18.167 -98.334 -54.5 -131.001s-83.5 -49 -141.5 -49c-57.333 0 -104 16.333 -140 49s-54 76.334 -54 131.001s18.167 98 54.5 130zM282 601.5
c-16.667 17.667 -37 26.5 -61 26.5c-23.333 0 -43.333 -8.83301 -60 -26.5s-25 -42.834 -25 -75.501c0 -32 8.16699 -56.667 24.5 -74s36.5 -26 60.5 -26c23.333 0 43.5 8.66699 60.5 26s25.5 42 25.5 74c0 32.667 -8.33301 57.834 -25 75.501z" />
    <glyph glyph-name="plusminus" unicode="&#xb1;" horiz-adv-x="676" 
d="M405 365v-124h188v-122h-510v122h189v124h-189v122h189v136h133v-136h188v-122h-188z" />
    <glyph glyph-name="twosuperior" unicode="&#xb2;" horiz-adv-x="360" 
d="M149 437l172.002 -0.000976562v-85h-287v80l114 77c20.667 14 36.167 27.833 46.5 41.5s15.5 27.834 15.5 42.501c0 12 -3.33301 21.667 -10 29s-15.334 11 -26.001 11c-20.667 0 -32.667 -12.333 -36 -37h-108c2 34.667 16.333 62.667 43 84s63 32 109 32
c29.333 0 54.666 -5.33301 75.999 -16s37.5 -24.5 48.5 -41.5s16.5 -35.167 16.5 -54.5c0 -24 -8 -45.167 -24 -63.5s-43 -38.5 -81 -60.5z" />
    <glyph glyph-name="threesuperior" unicode="&#xb3;" horiz-adv-x="357" 
d="M64.5 681c27 20.667 64.5029 31 112.503 31c42 0 76.833 -10 104.5 -30s41.5 -45 41.5 -75c0 -20 -5.66699 -36.5 -17 -49.5s-27 -21.833 -47 -26.5v-3c21.333 -6 38.166 -16 50.499 -30s18.5 -31 18.5 -51c0 -29.333 -14.333 -53.333 -43 -72s-65.334 -28 -110.001 -28
c-49.333 0 -87.5 10.333 -114.5 31s-41.5 49 -43.5 85h108c4 -25.333 19 -38 45 -38c12.667 0 23 3.5 31 10.5s12 16.5 12 28.5s-4.33301 21.5 -13 28.5s-20.334 10.5 -35.001 10.5h-35v57h31c31.333 0 47 12.667 47 38c0 11.333 -3.66699 20.166 -11 26.499
s-17.333 9.5 -30 9.5c-24.667 0 -39 -11 -43 -33h-102c1.33301 32.667 15.5 59.334 42.5 80.001z" />
    <glyph glyph-name="acute" unicode="&#xb4;" horiz-adv-x="250" 
d="M240 698l-230 -105v100l230 119v-114z" />
    <glyph glyph-name="uni00B5" unicode="&#xb5;" horiz-adv-x="678" 
d="M603 554l0.000976562 -554h-141v85c-17.333 -29.333 -40.833 -52 -70.5 -68s-63.834 -24 -102.501 -24c-29.333 0 -54.333 6.33301 -75 19v-276h-139v818h139v-305c0 -43.333 11.167 -76.666 33.5 -99.999s52.5 -35 90.5 -35s68.167 11.667 90.5 35
s33.5 56.666 33.5 99.999v305h141z" />
    <glyph glyph-name="paragraph" unicode="&#xb6;" horiz-adv-x="666" 
d="M591 0l-118.998 -0.00195312v590h-65v-590h-120v278h-18c-78.667 0 -137.834 19.833 -177.501 59.5s-59.5 89.834 -59.5 150.501c0 38.667 8.5 73.834 25.5 105.501s43.167 57 78.5 76s79.666 28.5 132.999 28.5h322v-698z" />
    <glyph glyph-name="periodcentered" unicode="&#xb7;" horiz-adv-x="270" 
d="M75.5 267.5c-16.333 15.667 -24.5 35.167 -24.5 58.5s8.16699 42.833 24.5 58.5s37.166 23.5 62.499 23.5c24.667 0 45 -7.83301 61 -23.5s24 -35.167 24 -58.5s-8 -42.833 -24 -58.5s-36.333 -23.5 -61 -23.5c-25.333 0 -46.166 7.83301 -62.499 23.5z" />
    <glyph glyph-name="cedilla" unicode="&#xb8;" horiz-adv-x="295" 
d="M247.5 -71c25 -18.667 37.5 -45.667 37.5 -81c0 -36 -12.833 -63.667 -38.5 -83s-57.167 -29 -94.5 -29h-142v82h119c16 0 28.167 2.33301 36.5 7s12.5 13 12.5 25s-4.16699 20.167 -12.5 24.5s-20.5 6.5 -36.5 6.5h-62v126h88v-50c36.667 0 67.5 -9.33301 92.5 -28z" />
    <glyph glyph-name="onesuperior" unicode="&#xb9;" horiz-adv-x="228" 
d="M20 622v82h164v-352h-107v270h-57z" />
    <glyph glyph-name="ordmasculine" unicode="&#xba;" horiz-adv-x="450" 
d="M53.5 623c17 27.333 40.334 48.5 70.001 63.5s63.5 22.5 101.5 22.5s72 -7.5 102 -22.5s53.333 -36.167 70 -63.5s25 -59 25 -95c0 -35.333 -8.5 -66.666 -25.5 -93.999s-40.5 -48.666 -70.5 -63.999s-64 -23 -102 -23s-71.833 7.66699 -101.5 23
s-52.834 36.666 -69.501 63.999s-25 58.666 -25 93.999c0 36 8.5 67.667 25.5 95zM286.501 600c-17 17.333 -37.833 26 -62.5 26c-24 0 -44.167 -8.66699 -60.5 -26s-24.5 -41.666 -24.5 -72.999c0 -30 8.16699 -53.5 24.5 -70.5s36.5 -25.5 60.5 -25.5s44.667 8.5 62 25.5
s26 40.5 26 70.5c0 31.333 -8.5 55.666 -25.5 72.999z" />
    <glyph glyph-name="guillemotright" unicode="&#xbb;" horiz-adv-x="521" 
d="M141 295l-91 175h132l89 -175l-89 -175h-132zM349 295l-92 175h132l89 -175l-89 -175h-132z" />
    <glyph glyph-name="onequarter" unicode="&#xbc;" horiz-adv-x="730" 
d="M37 622v82h164v-352h-107v270h-57zM592 699l-383 -699h-134l384 699h133zM695 65h-42v-65h-108v65h-190v58l149 230h149v-224h42v-64zM549 276l-89 -146h89v146z" />
    <glyph glyph-name="onehalf" unicode="&#xbd;" horiz-adv-x="757" 
d="M94 622h-57v82h164v-352h-107v270zM587 700l-378 -700h-134l377 700h135zM531 84l172.002 -0.000976562v-85h-287v80l114 77c20.667 14 36.167 27.833 46.5 41.5s15.5 27.834 15.5 42.501c0 12 -3.33301 21.667 -10 29s-15.334 11 -26.001 11
c-20.667 0 -32.667 -12.333 -36 -37h-108c2 34.667 16.333 62.667 43 84s63 32 109 32c29.333 0 54.666 -5.33301 75.999 -16s37.5 -24.5 48.5 -41.5s16.5 -35.167 16.5 -54.5c0 -24 -8 -45.167 -24 -63.5s-43 -38.5 -81 -60.5z" />
    <glyph glyph-name="threequarters" unicode="&#xbe;" horiz-adv-x="811" 
d="M88.5 681c27 20.667 64.5029 31 112.503 31c42 0 76.833 -10 104.5 -30s41.5 -45 41.5 -75c0 -20 -5.66699 -36.5 -17 -49.5s-27 -21.833 -47 -26.5v-3c21.333 -6 38.166 -16 50.499 -30s18.5 -31 18.5 -51c0 -29.333 -14.333 -53.333 -43 -72s-65.334 -28 -110.001 -28
c-49.333 0 -87.5 10.333 -114.5 31s-41.5 49 -43.5 85h108c4 -25.333 19 -38 45 -38c12.667 0 23 3.5 31 10.5s12 16.5 12 28.5s-4.33301 21.5 -13 28.5s-20.334 10.5 -35.001 10.5h-35v57h31c31.333 0 47 12.667 47 38c0 11.333 -3.66699 20.166 -11 26.499
s-17.333 9.5 -30 9.5c-24.667 0 -39 -11 -43 -33h-102c1.33301 32.667 15.5 59.334 42.5 80.001zM697.003 700l-394 -700h-134l394 700h134zM788.003 65h-43v-65h-107v65h-190v58l143 230h154v-224h43v-64zM642.003 281l-90 -152h90v152z" />
    <glyph glyph-name="questiondown" unicode="&#xbf;" horiz-adv-x="538" 
d="M401.5 542.5c16.333 -15.667 24.5 -35.167 24.5 -58.5s-8.16699 -42.833 -24.5 -58.5s-37.166 -23.5 -62.499 -23.5c-24.667 0 -45 7.83301 -61 23.5s-24 35.167 -24 58.5s8 42.833 24 58.5s36.333 23.5 61 23.5c25.333 0 46.166 -7.83301 62.499 -23.5zM106.5 -106.5
c-42.333 37.667 -63.502 89.501 -63.502 155.501c0 65.333 21 115.166 63 149.499s97.667 51.5 167 51.5l4 77h123l5 -170h-45c-58.667 0 -103.667 -7.66699 -135 -23s-46.666 -44 -45.999 -86c0 -29.333 8.5 -52.333 25.5 -69s40.167 -25 69.5 -25
c30.667 0 54.5 8.33301 71.5 25s25.5 39.667 25.5 69h132c0.666992 -40.667 -8 -77 -26 -109s-44.5 -57 -79.5 -75s-76.167 -27 -123.5 -27c-69.333 0 -125.166 18.833 -167.499 56.5z" />
    <glyph glyph-name="Agrave" unicode="&#xc0;" horiz-adv-x="716" 
d="M497 133h-278l-46 -133h-147l251 699h163l251 -699h-148zM459 245l-101 292l-101 -292h202zM467 838v-100l-230 105v114z" />
    <glyph glyph-name="Aacute" unicode="&#xc1;" horiz-adv-x="716" 
d="M497 133h-278l-46 -133h-147l251 699h163l251 -699h-148zM459 245l-101 292l-101 -292h202zM467 843l-230 -105v100l230 119v-114z" />
    <glyph glyph-name="Acircumflex" unicode="&#xc2;" horiz-adv-x="716" 
d="M497 133h-278l-46 -133h-147l251 699h163l251 -699h-148zM459 245l-101 292l-101 -292h202zM359 822l-149 -84v102l149 81l148 -81v-102z" />
    <glyph glyph-name="Atilde" unicode="&#xc3;" horiz-adv-x="716" 
d="M497 133h-278l-46 -133h-147l251 699h163l251 -699h-148zM459 245l-101 292l-101 -292h202zM219.5 850.5c21.667 21.667 49.168 32.5 82.501 32.5c14 0 26.333 -2.16699 37 -6.5s22.667 -10.5 36 -18.5c20 -12.667 36.667 -19 50 -19c24.667 0 39 14.333 43 43h75
c-6 -44 -19.833 -76.833 -41.5 -98.5s-49.167 -32.5 -82.5 -32.5c-14 0 -26.333 2.16699 -37 6.5s-22.667 10.5 -36 18.5c-19.333 13.333 -36 20 -50 20c-24.667 0 -39.334 -14.667 -44.001 -44h-74c6 44 19.833 76.833 41.5 98.5z" />
    <glyph glyph-name="Adieresis" unicode="&#xc4;" horiz-adv-x="716" 
d="M497 133h-278l-46 -133h-147l251 699h163l251 -699h-148zM459 245l-101 292l-101 -292h202zM218 784c-12.667 12.667 -19 28.334 -19 47.001s6.33301 34.5 19 47.5s28.334 19.5 47.001 19.5s34.5 -6.5 47.5 -19.5s19.5 -28.833 19.5 -47.5s-6.5 -34.334 -19.5 -47.001
s-28.833 -19 -47.5 -19s-34.334 6.33301 -47.001 19zM403 784c-12.667 12.667 -19 28.334 -19 47.001s6.33301 34.5 19 47.5s28.334 19.5 47.001 19.5s34.5 -6.5 47.5 -19.5s19.5 -28.833 19.5 -47.5s-6.5 -34.334 -19.5 -47.001s-28.833 -19 -47.5 -19
s-34.334 6.33301 -47.001 19z" />
    <glyph glyph-name="Aring" unicode="&#xc5;" horiz-adv-x="716" 
d="M497 133h-278l-46 -133h-147l251 699h163l251 -699h-148zM459 245l-101 292l-101 -292h202zM442.5 778.5c-22.333 -21 -50.166 -31.5 -83.499 -31.5c-32.667 0 -60.334 10.5 -83.001 31.5s-34 48.833 -34 83.5s11.333 62.5 34 83.5s50.334 31.5 83.001 31.5
c33.333 0 61.166 -10.5 83.499 -31.5s33.5 -48.833 33.5 -83.5s-11.167 -62.5 -33.5 -83.5zM393 898.5c-9.33301 9 -20.666 13.5 -33.999 13.5s-24.666 -4.5 -33.999 -13.5s-14 -21.167 -14 -36.5c0 -14 4.66699 -25.833 14 -35.5s20.666 -14.5 33.999 -14.5
s24.666 4.83301 33.999 14.5s14 21.5 14 35.5c0 15.333 -4.66699 27.5 -14 36.5z" />
    <glyph glyph-name="AE" unicode="&#xc6;" horiz-adv-x="937" 
d="M617 589v-180h232v-108h-232v-190h262v-111h-403v131h-245l-69 -131h-153l372 699h498v-110h-262zM476 239v358l-188 -358h188z" />
    <glyph glyph-name="Ccedilla" unicode="&#xc7;" horiz-adv-x="768" 
d="M488.5 144.5c29 17 51.499 42.1689 67.499 75.502h161c-20.667 -64 -56.167 -115.5 -106.5 -154.5s-109.5 -62.167 -177.5 -69.5v-41c36.667 0 67.5 -9.33301 92.5 -28s37.5 -45.667 37.5 -81c0 -36 -12.833 -63.667 -38.5 -83s-57.167 -29 -94.5 -29h-142v82h119
c16 0 28.167 2.33301 36.5 7s12.5 13 12.5 25s-4.16699 20.167 -12.5 24.5s-20.5 6.5 -36.5 6.5h-62v117c-59.333 6.66699 -112.5 25.834 -159.5 57.501s-83.833 73.167 -110.5 124.5s-40 108.666 -40 171.999c0 68.667 15.5 130.167 46.5 184.5s73.333 96.666 127 126.999
s113.834 45.5 180.501 45.5c78 0 146.333 -20 205 -60s99.667 -95.333 123 -166h-161c-16 33.333 -38.5 58.333 -67.5 75s-62.5 25 -100.5 25c-40.667 0 -76.834 -9.5 -108.501 -28.5s-56.334 -45.833 -74.001 -80.5s-26.5 -75.334 -26.5 -122.001
c0 -46 8.83301 -86.5 26.5 -121.5s42.334 -62 74.001 -81s67.834 -28.5 108.501 -28.5c38 0 71.5 8.5 100.5 25.5z" />
    <glyph glyph-name="Egrave" unicode="&#xc8;" horiz-adv-x="532" 
d="M209 585v-175h235v-111h-235v-185h265v-114h-405v699h405v-114h-265zM376 838v-100l-230 105v114z" />
    <glyph glyph-name="Eacute" unicode="&#xc9;" horiz-adv-x="532" 
d="M209 585v-175h235v-111h-235v-185h265v-114h-405v699h405v-114h-265zM376 843l-230 -105v100l230 119v-114z" />
    <glyph glyph-name="Ecircumflex" unicode="&#xca;" horiz-adv-x="532" 
d="M209 585v-175h235v-111h-235v-185h265v-114h-405v699h405v-114h-265zM267 822l-149 -84v102l149 81l148 -81v-102z" />
    <glyph glyph-name="Edieresis" unicode="&#xcb;" horiz-adv-x="532" 
d="M209 585v-175h235v-111h-235v-185h265v-114h-405v699h405v-114h-265zM127 784c-12.667 12.667 -19 28.334 -19 47.001s6.33301 34.5 19 47.5s28.334 19.5 47.001 19.5s34.5 -6.5 47.5 -19.5s19.5 -28.833 19.5 -47.5s-6.5 -34.334 -19.5 -47.001s-28.833 -19 -47.5 -19
s-34.334 6.33301 -47.001 19zM312 784c-12.667 12.667 -19 28.334 -19 47.001s6.33301 34.5 19 47.5s28.334 19.5 47.001 19.5s34.5 -6.5 47.5 -19.5s19.5 -28.833 19.5 -47.5s-6.5 -34.334 -19.5 -47.001s-28.833 -19 -47.5 -19s-34.334 6.33301 -47.001 19z" />
    <glyph glyph-name="Igrave" unicode="&#xcc;" horiz-adv-x="278" 
d="M209 698v-698h-140v698h140zM248 838v-100l-230 105v114z" />
    <glyph glyph-name="Iacute" unicode="&#xcd;" horiz-adv-x="278" 
d="M209 698v-698h-140v698h140zM248 843l-230 -105v100l230 119v-114z" />
    <glyph glyph-name="Icircumflex" unicode="&#xce;" horiz-adv-x="278" 
d="M209 698v-698h-140v698h140zM140 822l-149 -84v102l149 81l148 -81v-102z" />
    <glyph glyph-name="Idieresis" unicode="&#xcf;" horiz-adv-x="278" 
d="M209 698v-698h-140v698h140zM-1 784c-12.667 12.667 -19 28.334 -19 47.001s6.33301 34.5 19 47.5s28.334 19.5 47.001 19.5s34.5 -6.5 47.5 -19.5s19.5 -28.833 19.5 -47.5s-6.5 -34.334 -19.5 -47.001s-28.833 -19 -47.5 -19s-34.334 6.33301 -47.001 19zM184 784
c-12.667 12.667 -19 28.334 -19 47.001s6.33301 34.5 19 47.5s28.334 19.5 47.001 19.5s34.5 -6.5 47.5 -19.5s19.5 -28.833 19.5 -47.5s-6.5 -34.334 -19.5 -47.001s-28.833 -19 -47.5 -19s-34.334 6.33301 -47.001 19z" />
    <glyph glyph-name="Eth" unicode="&#xd0;" horiz-adv-x="726" 
d="M515.5 655c55.667 -28.667 98.667 -69.5 129 -122.5s45.5 -114.5 45.5 -184.5s-15.167 -131.167 -45.5 -183.5s-73.333 -92.833 -129 -121.5s-120.167 -43 -193.5 -43h-245v287h-70v122h70v289h245c73.333 0 137.833 -14.333 193.5 -43zM486 176
c40 41.333 60 98.667 60 172s-20 130.5 -60 171.5s-96.333 61.5 -169 61.5h-99v-172h167v-122h-167v-173h99c72.667 0 129 20.667 169 62z" />
    <glyph glyph-name="Ntilde" unicode="&#xd1;" horiz-adv-x="735" 
d="M666 0h-140l-317 479v-479h-140v699h140l317 -480v480h140v-699zM229.5 850.5c21.667 21.667 49.168 32.5 82.501 32.5c14 0 26.333 -2.16699 37 -6.5s22.667 -10.5 36 -18.5c20 -12.667 36.667 -19 50 -19c24.667 0 39 14.333 43 43h75
c-6 -44 -19.833 -76.833 -41.5 -98.5s-49.167 -32.5 -82.5 -32.5c-14 0 -26.333 2.16699 -37 6.5s-22.667 10.5 -36 18.5c-19.333 13.333 -36 20 -50 20c-24.667 0 -39.334 -14.667 -44.001 -44h-74c6 44 19.833 76.833 41.5 98.5z" />
    <glyph glyph-name="Ograve" unicode="&#xd2;" horiz-adv-x="785" 
d="M213 39c-54.667 30.667 -97.999 73.167 -129.999 127.5s-48 115.833 -48 184.5c0 68 16 129.167 48 183.5s75.333 96.833 130 127.5s114.667 46 180 46c66 0 126.167 -15.333 180.5 -46s97.333 -73.167 129 -127.5s47.5 -115.5 47.5 -183.5
c0 -68.667 -15.833 -130.167 -47.5 -184.5s-74.834 -96.833 -129.501 -127.5s-114.667 -46 -180 -46s-125.333 15.333 -180 46zM504.001 146.5c32 19 57 46.167 75 81.5s27 76.333 27 123s-9 87.5 -27 122.5s-43 61.833 -75 80.5s-69 28 -111 28
s-79.167 -9.33301 -111.5 -28s-57.5 -45.5 -75.5 -80.5s-27 -75.833 -27 -122.5s9 -87.667 27 -123s43.167 -62.5 75.5 -81.5s69.5 -28.5 111.5 -28.5s79 9.5 111 28.5zM502.001 838v-100l-230 105v114z" />
    <glyph glyph-name="Oacute" unicode="&#xd3;" horiz-adv-x="785" 
d="M213 39c-54.667 30.667 -97.999 73.167 -129.999 127.5s-48 115.833 -48 184.5c0 68 16 129.167 48 183.5s75.333 96.833 130 127.5s114.667 46 180 46c66 0 126.167 -15.333 180.5 -46s97.333 -73.167 129 -127.5s47.5 -115.5 47.5 -183.5
c0 -68.667 -15.833 -130.167 -47.5 -184.5s-74.834 -96.833 -129.501 -127.5s-114.667 -46 -180 -46s-125.333 15.333 -180 46zM504.001 146.5c32 19 57 46.167 75 81.5s27 76.333 27 123s-9 87.5 -27 122.5s-43 61.833 -75 80.5s-69 28 -111 28
s-79.167 -9.33301 -111.5 -28s-57.5 -45.5 -75.5 -80.5s-27 -75.833 -27 -122.5s9 -87.667 27 -123s43.167 -62.5 75.5 -81.5s69.5 -28.5 111.5 -28.5s79 9.5 111 28.5zM502.001 843l-230 -105v100l230 119v-114z" />
    <glyph glyph-name="Ocircumflex" unicode="&#xd4;" horiz-adv-x="785" 
d="M213 39c-54.667 30.667 -97.999 73.167 -129.999 127.5s-48 115.833 -48 184.5c0 68 16 129.167 48 183.5s75.333 96.833 130 127.5s114.667 46 180 46c66 0 126.167 -15.333 180.5 -46s97.333 -73.167 129 -127.5s47.5 -115.5 47.5 -183.5
c0 -68.667 -15.833 -130.167 -47.5 -184.5s-74.834 -96.833 -129.501 -127.5s-114.667 -46 -180 -46s-125.333 15.333 -180 46zM504.001 146.5c32 19 57 46.167 75 81.5s27 76.333 27 123s-9 87.5 -27 122.5s-43 61.833 -75 80.5s-69 28 -111 28
s-79.167 -9.33301 -111.5 -28s-57.5 -45.5 -75.5 -80.5s-27 -75.833 -27 -122.5s9 -87.667 27 -123s43.167 -62.5 75.5 -81.5s69.5 -28.5 111.5 -28.5s79 9.5 111 28.5zM393.001 822l-149 -84v102l149 81l148 -81v-102z" />
    <glyph glyph-name="Otilde" unicode="&#xd5;" horiz-adv-x="785" 
d="M213 39c-54.667 30.667 -97.999 73.167 -129.999 127.5s-48 115.833 -48 184.5c0 68 16 129.167 48 183.5s75.333 96.833 130 127.5s114.667 46 180 46c66 0 126.167 -15.333 180.5 -46s97.333 -73.167 129 -127.5s47.5 -115.5 47.5 -183.5
c0 -68.667 -15.833 -130.167 -47.5 -184.5s-74.834 -96.833 -129.501 -127.5s-114.667 -46 -180 -46s-125.333 15.333 -180 46zM504.001 146.5c32 19 57 46.167 75 81.5s27 76.333 27 123s-9 87.5 -27 122.5s-43 61.833 -75 80.5s-69 28 -111 28
s-79.167 -9.33301 -111.5 -28s-57.5 -45.5 -75.5 -80.5s-27 -75.833 -27 -122.5s9 -87.667 27 -123s43.167 -62.5 75.5 -81.5s69.5 -28.5 111.5 -28.5s79 9.5 111 28.5zM254.501 850.5c21.667 21.667 49.168 32.5 82.501 32.5c14 0 26.333 -2.16699 37 -6.5
s22.667 -10.5 36 -18.5c20 -12.667 36.667 -19 50 -19c24.667 0 39 14.333 43 43h75c-6 -44 -19.833 -76.833 -41.5 -98.5s-49.167 -32.5 -82.5 -32.5c-14 0 -26.333 2.16699 -37 6.5s-22.667 10.5 -36 18.5c-19.333 13.333 -36 20 -50 20
c-24.667 0 -39.334 -14.667 -44.001 -44h-74c6 44 19.833 76.833 41.5 98.5z" />
    <glyph glyph-name="Odieresis" unicode="&#xd6;" horiz-adv-x="785" 
d="M213 39c-54.667 30.667 -97.999 73.167 -129.999 127.5s-48 115.833 -48 184.5c0 68 16 129.167 48 183.5s75.333 96.833 130 127.5s114.667 46 180 46c66 0 126.167 -15.333 180.5 -46s97.333 -73.167 129 -127.5s47.5 -115.5 47.5 -183.5
c0 -68.667 -15.833 -130.167 -47.5 -184.5s-74.834 -96.833 -129.501 -127.5s-114.667 -46 -180 -46s-125.333 15.333 -180 46zM504.001 146.5c32 19 57 46.167 75 81.5s27 76.333 27 123s-9 87.5 -27 122.5s-43 61.833 -75 80.5s-69 28 -111 28
s-79.167 -9.33301 -111.5 -28s-57.5 -45.5 -75.5 -80.5s-27 -75.833 -27 -122.5s9 -87.667 27 -123s43.167 -62.5 75.5 -81.5s69.5 -28.5 111.5 -28.5s79 9.5 111 28.5zM253.001 784c-12.667 12.667 -19 28.334 -19 47.001s6.33301 34.5 19 47.5s28.334 19.5 47.001 19.5
s34.5 -6.5 47.5 -19.5s19.5 -28.833 19.5 -47.5s-6.5 -34.334 -19.5 -47.001s-28.833 -19 -47.5 -19s-34.334 6.33301 -47.001 19zM438.001 784c-12.667 12.667 -19 28.334 -19 47.001s6.33301 34.5 19 47.5s28.334 19.5 47.001 19.5s34.5 -6.5 47.5 -19.5
s19.5 -28.833 19.5 -47.5s-6.5 -34.334 -19.5 -47.001s-28.833 -19 -47.5 -19s-34.334 6.33301 -47.001 19z" />
    <glyph glyph-name="multiply" unicode="&#xd7;" horiz-adv-x="670" 
d="M480 123l-146 146l-145 -145l-91 91l145 146l-141 141l91 91l141 -141l141 141l92 -91l-141 -141l146 -147z" />
    <glyph glyph-name="Oslash" unicode="&#xd8;" horiz-adv-x="785" 
d="M662 591c28 -31.333 49.667 -67.333 65 -108s23 -84.667 23 -132c0 -68.667 -15.833 -130.167 -47.5 -184.5s-74.834 -96.833 -129.501 -127.5s-114.667 -46 -180 -46c-40 0 -78.5 6 -115.5 18s-70.5 29 -100.5 51l-56 -62h-97l100 110c-28 32 -49.833 68.5 -65.5 109.5
s-23.5 84.833 -23.5 131.5c0 68 16 129.167 48 183.5s75.333 96.833 130 127.5s114.667 46 180 46c40 0 78.333 -5.83301 115 -17.5s70.334 -28.5 101.001 -50.5l55 60h97zM216 210l303.999 333c-35.333 26 -77.666 39 -126.999 39c-42 0 -79.167 -9.33301 -111.5 -28
s-57.5 -45.5 -75.5 -80.5s-27 -75.833 -27 -122.5c0 -54.667 12.333 -101.667 37 -141zM568.999 490l-304.001 -333c36.667 -26 79.334 -39 128.001 -39c42 0 79 9.5 111 28.5s57 46.167 75 81.5s27 76.333 27 123c0 54.667 -12.333 101 -37 139z" />
    <glyph glyph-name="Ugrave" unicode="&#xd9;" horiz-adv-x="697" 
d="M207 698l-0.000976562 -432c0 -47.333 12.333 -83.5 37 -108.5s59.334 -37.5 104.001 -37.5c45.333 0 80.333 12.5 105 37.5s37 61.167 37 108.5v432h141v-431c0 -59.333 -12.833 -109.5 -38.5 -150.5s-60 -71.833 -103 -92.5s-90.833 -31 -143.5 -31
c-52 0 -99.167 10.333 -141.5 31s-75.833 51.5 -100.5 92.5s-37 91.167 -37 150.5v431h140zM456.999 838v-100l-230 105v114z" />
    <glyph glyph-name="Uacute" unicode="&#xda;" horiz-adv-x="697" 
d="M207 698l-0.000976562 -432c0 -47.333 12.333 -83.5 37 -108.5s59.334 -37.5 104.001 -37.5c45.333 0 80.333 12.5 105 37.5s37 61.167 37 108.5v432h141v-431c0 -59.333 -12.833 -109.5 -38.5 -150.5s-60 -71.833 -103 -92.5s-90.833 -31 -143.5 -31
c-52 0 -99.167 10.333 -141.5 31s-75.833 51.5 -100.5 92.5s-37 91.167 -37 150.5v431h140zM456.999 843l-230 -105v100l230 119v-114z" />
    <glyph glyph-name="Ucircumflex" unicode="&#xdb;" horiz-adv-x="697" 
d="M207 698l-0.000976562 -432c0 -47.333 12.333 -83.5 37 -108.5s59.334 -37.5 104.001 -37.5c45.333 0 80.333 12.5 105 37.5s37 61.167 37 108.5v432h141v-431c0 -59.333 -12.833 -109.5 -38.5 -150.5s-60 -71.833 -103 -92.5s-90.833 -31 -143.5 -31
c-52 0 -99.167 10.333 -141.5 31s-75.833 51.5 -100.5 92.5s-37 91.167 -37 150.5v431h140zM348.999 822l-149 -84v102l149 81l148 -81v-102z" />
    <glyph glyph-name="Udieresis" unicode="&#xdc;" horiz-adv-x="697" 
d="M207 698l-0.000976562 -432c0 -47.333 12.333 -83.5 37 -108.5s59.334 -37.5 104.001 -37.5c45.333 0 80.333 12.5 105 37.5s37 61.167 37 108.5v432h141v-431c0 -59.333 -12.833 -109.5 -38.5 -150.5s-60 -71.833 -103 -92.5s-90.833 -31 -143.5 -31
c-52 0 -99.167 10.333 -141.5 31s-75.833 51.5 -100.5 92.5s-37 91.167 -37 150.5v431h140zM208.999 784c-12.667 12.667 -19 28.334 -19 47.001s6.33301 34.5 19 47.5s28.334 19.5 47.001 19.5s34.5 -6.5 47.5 -19.5s19.5 -28.833 19.5 -47.5s-6.5 -34.334 -19.5 -47.001
s-28.833 -19 -47.5 -19s-34.334 6.33301 -47.001 19zM393.999 784c-12.667 12.667 -19 28.334 -19 47.001s6.33301 34.5 19 47.5s28.334 19.5 47.001 19.5s34.5 -6.5 47.5 -19.5s19.5 -28.833 19.5 -47.5s-6.5 -34.334 -19.5 -47.001s-28.833 -19 -47.5 -19
s-34.334 6.33301 -47.001 19z" />
    <glyph glyph-name="Yacute" unicode="&#xdd;" horiz-adv-x="636" 
d="M624 698l-236 -455v-243h-140v243l-237 455h158l150 -319l149 319h156zM427 843l-230 -105v100l230 119v-114z" />
    <glyph glyph-name="Thorn" unicode="&#xde;" horiz-adv-x="608" 
d="M551.5 246c-17.667 -32 -45.333 -58 -83 -78s-85.167 -30 -142.5 -30h-117v-138h-140v699h139v-136h118c54 0 100 -9.33301 138 -28s66.5 -44 85.5 -76s28.5 -68.333 28.5 -109c0 -37.333 -8.83301 -72 -26.5 -104zM405.501 273c19 18.667 28.5 44.332 28.5 76.999
s-9.5 58.334 -28.5 77.001s-47.5 28 -85.5 28h-111v-210h111c38 0 66.5 9.33301 85.5 28z" />
    <glyph glyph-name="germandbls" unicode="&#xdf;" horiz-adv-x="727" 
d="M82 663.5c20 33.667 49.8311 59.998 89.498 78.998s87.834 28.5 144.501 28.5c49.333 0 92.333 -8.16699 129 -24.5s64.5 -38 83.5 -65s28.5 -56.167 28.5 -87.5c0 -32.667 -7.33301 -59.667 -22 -81s-35 -44 -61 -68c-14 -12.667 -24.167 -22.834 -30.5 -30.501
s-9.5 -15.167 -9.5 -22.5c0 -11.333 6.5 -21.333 19.5 -30s39.167 -20 78.5 -34c50.667 -18 87.334 -40.167 110.001 -66.5s34 -59.833 34 -100.5c0 -51.333 -18.833 -92.666 -56.5 -123.999s-88.5 -47 -152.5 -47c-63.333 0 -114.5 16.333 -153.5 49
s-61.833 78.667 -68.5 138h135c2 -25.333 10.333 -45.166 25 -59.499s34.667 -21.5 60 -21.5c23.333 0 41.166 4.66699 53.499 14s18.5 23.333 18.5 42s-6.16699 33.834 -18.5 45.501s-35.166 23.167 -68.499 34.5c-56 19.333 -96.167 39.333 -120.5 60
s-36.5 46.667 -36.5 78c0 22 5.83301 41.667 17.5 59s28.5 36.666 50.5 57.999c19.333 19.333 33.5 35.333 42.5 48s13.5 26.667 13.5 42c0 24 -9.5 42.833 -28.5 56.5s-44.833 20.5 -77.5 20.5c-41.333 0 -71.5 -10.167 -90.5 -30.5s-28.5 -49.833 -28.5 -88.5v-535h-140
v549c0 42.667 10 80.834 30 114.501z" />
    <glyph glyph-name="agrave" unicode="&#xe0;" horiz-adv-x="678" 
d="M66.5 428c22.333 43.333 52.667 76.666 91 99.999s81.166 35 128.499 35c41.333 0 77.5 -8.33301 108.5 -25s55.833 -37.667 74.5 -63v79h141v-554h-141v81c-18 -26 -42.833 -47.5 -74.5 -64.5s-68.167 -25.5 -109.5 -25.5c-46.667 0 -89.167 12 -127.5 36
s-68.666 57.833 -90.999 101.5s-33.5 93.834 -33.5 150.501c0 56 11.167 105.667 33.5 149zM449.001 364.5c-13.333 24.333 -31.332 42.999 -53.999 55.999s-47 19.5 -73 19.5s-50 -6.33301 -72 -19s-39.833 -31.167 -53.5 -55.5s-20.5 -53.166 -20.5 -86.499
s6.83301 -62.5 20.5 -87.5s31.667 -44.167 54 -57.5s46.166 -20 71.499 -20c26 0 50.333 6.5 73 19.5s40.667 31.667 54 56s20 53.5 20 87.5s-6.66699 63.167 -20 87.5zM450.002 692.999v-100l-230 105v114z" />
    <glyph glyph-name="aacute" unicode="&#xe1;" horiz-adv-x="678" 
d="M66.5 428c22.333 43.333 52.667 76.666 91 99.999s81.166 35 128.499 35c41.333 0 77.5 -8.33301 108.5 -25s55.833 -37.667 74.5 -63v79h141v-554h-141v81c-18 -26 -42.833 -47.5 -74.5 -64.5s-68.167 -25.5 -109.5 -25.5c-46.667 0 -89.167 12 -127.5 36
s-68.666 57.833 -90.999 101.5s-33.5 93.834 -33.5 150.501c0 56 11.167 105.667 33.5 149zM449.001 364.5c-13.333 24.333 -31.332 42.999 -53.999 55.999s-47 19.5 -73 19.5s-50 -6.33301 -72 -19s-39.833 -31.167 -53.5 -55.5s-20.5 -53.166 -20.5 -86.499
s6.83301 -62.5 20.5 -87.5s31.667 -44.167 54 -57.5s46.166 -20 71.499 -20c26 0 50.333 6.5 73 19.5s40.667 31.667 54 56s20 53.5 20 87.5s-6.66699 63.167 -20 87.5zM450.002 697.999l-230 -105v100l230 119v-114z" />
    <glyph glyph-name="acircumflex" unicode="&#xe2;" horiz-adv-x="678" 
d="M66.5 428c22.333 43.333 52.667 76.666 91 99.999s81.166 35 128.499 35c41.333 0 77.5 -8.33301 108.5 -25s55.833 -37.667 74.5 -63v79h141v-554h-141v81c-18 -26 -42.833 -47.5 -74.5 -64.5s-68.167 -25.5 -109.5 -25.5c-46.667 0 -89.167 12 -127.5 36
s-68.666 57.833 -90.999 101.5s-33.5 93.834 -33.5 150.501c0 56 11.167 105.667 33.5 149zM449.001 364.5c-13.333 24.333 -31.332 42.999 -53.999 55.999s-47 19.5 -73 19.5s-50 -6.33301 -72 -19s-39.833 -31.167 -53.5 -55.5s-20.5 -53.166 -20.5 -86.499
s6.83301 -62.5 20.5 -87.5s31.667 -44.167 54 -57.5s46.166 -20 71.499 -20c26 0 50.333 6.5 73 19.5s40.667 31.667 54 56s20 53.5 20 87.5s-6.66699 63.167 -20 87.5zM341.002 676.999l-149 -84v102l149 81l148 -81v-102z" />
    <glyph glyph-name="atilde" unicode="&#xe3;" horiz-adv-x="678" 
d="M66.5 428c22.333 43.333 52.667 76.666 91 99.999s81.166 35 128.499 35c41.333 0 77.5 -8.33301 108.5 -25s55.833 -37.667 74.5 -63v79h141v-554h-141v81c-18 -26 -42.833 -47.5 -74.5 -64.5s-68.167 -25.5 -109.5 -25.5c-46.667 0 -89.167 12 -127.5 36
s-68.666 57.833 -90.999 101.5s-33.5 93.834 -33.5 150.501c0 56 11.167 105.667 33.5 149zM449.001 364.5c-13.333 24.333 -31.332 42.999 -53.999 55.999s-47 19.5 -73 19.5s-50 -6.33301 -72 -19s-39.833 -31.167 -53.5 -55.5s-20.5 -53.166 -20.5 -86.499
s6.83301 -62.5 20.5 -87.5s31.667 -44.167 54 -57.5s46.166 -20 71.499 -20c26 0 50.333 6.5 73 19.5s40.667 31.667 54 56s20 53.5 20 87.5s-6.66699 63.167 -20 87.5zM202.502 705.499c21.667 21.667 49.168 32.5 82.501 32.5c14 0 26.333 -2.16699 37 -6.5
s22.667 -10.5 36 -18.5c20 -12.667 36.667 -19 50 -19c24.667 0 39 14.333 43 43h75c-6 -44 -19.833 -76.833 -41.5 -98.5s-49.167 -32.5 -82.5 -32.5c-14 0 -26.333 2.16699 -37 6.5s-22.667 10.5 -36 18.5c-19.333 13.333 -36 20 -50 20
c-24.667 0 -39.334 -14.667 -44.001 -44h-74c6 44 19.833 76.833 41.5 98.5z" />
    <glyph glyph-name="adieresis" unicode="&#xe4;" horiz-adv-x="678" 
d="M66.5 428c22.333 43.333 52.667 76.666 91 99.999s81.166 35 128.499 35c41.333 0 77.5 -8.33301 108.5 -25s55.833 -37.667 74.5 -63v79h141v-554h-141v81c-18 -26 -42.833 -47.5 -74.5 -64.5s-68.167 -25.5 -109.5 -25.5c-46.667 0 -89.167 12 -127.5 36
s-68.666 57.833 -90.999 101.5s-33.5 93.834 -33.5 150.501c0 56 11.167 105.667 33.5 149zM449.001 364.5c-13.333 24.333 -31.332 42.999 -53.999 55.999s-47 19.5 -73 19.5s-50 -6.33301 -72 -19s-39.833 -31.167 -53.5 -55.5s-20.5 -53.166 -20.5 -86.499
s6.83301 -62.5 20.5 -87.5s31.667 -44.167 54 -57.5s46.166 -20 71.499 -20c26 0 50.333 6.5 73 19.5s40.667 31.667 54 56s20 53.5 20 87.5s-6.66699 63.167 -20 87.5zM201.002 638.999c-12.667 12.667 -19 28.334 -19 47.001s6.33301 34.5 19 47.5
s28.334 19.5 47.001 19.5s34.5 -6.5 47.5 -19.5s19.5 -28.833 19.5 -47.5s-6.5 -34.334 -19.5 -47.001s-28.833 -19 -47.5 -19s-34.334 6.33301 -47.001 19zM386.002 638.999c-12.667 12.667 -19 28.334 -19 47.001s6.33301 34.5 19 47.5s28.334 19.5 47.001 19.5
s34.5 -6.5 47.5 -19.5s19.5 -28.833 19.5 -47.5s-6.5 -34.334 -19.5 -47.001s-28.833 -19 -47.5 -19s-34.334 6.33301 -47.001 19z" />
    <glyph glyph-name="aring" unicode="&#xe5;" horiz-adv-x="678" 
d="M66.5 428c22.333 43.333 52.667 76.666 91 99.999s81.166 35 128.499 35c41.333 0 77.5 -8.33301 108.5 -25s55.833 -37.667 74.5 -63v79h141v-554h-141v81c-18 -26 -42.833 -47.5 -74.5 -64.5s-68.167 -25.5 -109.5 -25.5c-46.667 0 -89.167 12 -127.5 36
s-68.666 57.833 -90.999 101.5s-33.5 93.834 -33.5 150.501c0 56 11.167 105.667 33.5 149zM449.001 364.5c-13.333 24.333 -31.332 42.999 -53.999 55.999s-47 19.5 -73 19.5s-50 -6.33301 -72 -19s-39.833 -31.167 -53.5 -55.5s-20.5 -53.166 -20.5 -86.499
s6.83301 -62.5 20.5 -87.5s31.667 -44.167 54 -57.5s46.166 -20 71.499 -20c26 0 50.333 6.5 73 19.5s40.667 31.667 54 56s20 53.5 20 87.5s-6.66699 63.167 -20 87.5zM424.502 633.499c-22.333 -21 -50.166 -31.5 -83.499 -31.5c-32.667 0 -60.334 10.5 -83.001 31.5
s-34 48.833 -34 83.5s11.333 62.5 34 83.5s50.334 31.5 83.001 31.5c33.333 0 61.166 -10.5 83.499 -31.5s33.5 -48.833 33.5 -83.5s-11.167 -62.5 -33.5 -83.5zM375.002 753.499c-9.33301 9 -20.666 13.5 -33.999 13.5s-24.666 -4.5 -33.999 -13.5s-14 -21.167 -14 -36.5
c0 -14 4.66699 -25.833 14 -35.5s20.666 -14.5 33.999 -14.5s24.666 4.83301 33.999 14.5s14 21.5 14 35.5c0 15.333 -4.66699 27.5 -14 36.5z" />
    <glyph glyph-name="ae" unicode="&#xe6;" horiz-adv-x="1077" 
d="M1040 238l-426.998 -0.000976562c5.33301 -42 21.833 -74.333 49.5 -97s58.834 -34 93.501 -34c32 0 58.333 6 79 18s35.334 28.333 44.001 49h151c-15.333 -53.333 -44 -97.166 -86 -131.499s-93 -51.5 -153 -51.5c-40.667 0 -77.834 8.33301 -111.501 25
s-60.167 38.667 -79.5 66v-82h-128v82c-20.667 -27.333 -47 -49.333 -79 -66s-67.667 -25 -107 -25c-46.667 0 -89.334 12 -128.001 36s-69.167 57.833 -91.5 101.5s-33.5 93.834 -33.5 150.501s11.167 106.5 33.5 149.5s53.166 76.167 92.499 99.5s83.333 35 132 35
c77.333 0 138.333 -29 183 -87v78h126v-78c24 30 51.667 52 83 66s67.333 21 108 21c49.333 0 93.166 -11.5 131.499 -34.5s68.333 -55.333 90 -97s32.5 -88.834 32.5 -141.501c0 -14.667 -1.66699 -32 -5 -52zM900.002 322.999c-0.666992 38 -14.333 68.333 -41 91
s-60 34 -100 34c-36.667 0 -68.5 -11.167 -95.5 -33.5s-43.833 -52.833 -50.5 -91.5h287zM395.003 133.499c22.667 13 40.668 31.666 54.001 55.999s20 53.5 20 87.5s-6.66699 63.167 -20 87.5s-31.333 43 -54 56s-47 19.5 -73 19.5s-50 -6.33301 -72 -19
s-39.833 -31.167 -53.5 -55.5s-20.5 -53.166 -20.5 -86.499s6.83301 -62.5 20.5 -87.5s31.667 -44.167 54 -57.5s46.166 -20 71.499 -20c26 0 50.333 6.5 73 19.5z" />
    <glyph glyph-name="ccedilla" unicode="&#xe7;" horiz-adv-x="602" 
d="M417 187l151.002 0.000976562c-14 -54 -39.833 -98 -77.5 -132s-84.834 -54.333 -141.501 -61v-39c36.667 0 67.5 -9.33301 92.5 -28s37.5 -45.667 37.5 -81c0 -36 -12.833 -63.667 -38.5 -83s-57.167 -29 -94.5 -29h-142v82h119c16 0 28.167 2.33301 36.5 7
s12.5 13 12.5 25s-4.16699 20.167 -12.5 24.5s-20.5 6.5 -36.5 6.5h-62v115c-45.333 6.66699 -85.166 22.5 -119.499 47.5s-61 57.667 -80 98s-28.5 86.166 -28.5 137.499c0 57.333 11.667 107.5 35 150.5s55.666 76.333 96.999 100s88.666 35.5 141.999 35.5
c68.667 0 125.5 -17.167 170.5 -51.5s75.167 -82.5 90.5 -144.5h-151c-8 24 -21.5 42.833 -40.5 56.5s-42.5 20.5 -70.5 20.5c-40 0 -71.667 -14.5 -95 -43.5s-35 -70.167 -35 -123.5c0 -52.667 11.667 -93.5 35 -122.5s55 -43.5 95 -43.5c56.667 0 93.667 25.333 111 76z
" />
    <glyph glyph-name="egrave" unicode="&#xe8;" horiz-adv-x="617" 
d="M580 235l-405.002 0.00195312c3.33301 -40 17.333 -71.333 42 -94s55 -34 91 -34c52 0 89 22.333 111 67h151c-16 -53.333 -46.667 -97.166 -92 -131.499s-101 -51.5 -167 -51.5c-53.333 0 -101.166 11.833 -143.499 35.5s-75.333 57.167 -99 100.5
s-35.5 93.333 -35.5 150c0 57.333 11.667 107.666 35 150.999s56 76.666 98 99.999s90.333 35 145 35c52.667 0 99.834 -11.333 141.501 -34s74 -54.834 97 -96.501s34.5 -89.5 34.5 -143.5c0 -20 -1.33301 -38 -4 -54zM438.998 329.002
c-0.666992 36 -13.666 64.833 -38.999 86.5s-56.333 32.5 -93 32.5c-34.667 0 -63.834 -10.5 -87.501 -31.5s-38.167 -50.167 -43.5 -87.5h263zM417.999 695.002v-100l-230 105v114z" />
    <glyph glyph-name="eacute" unicode="&#xe9;" horiz-adv-x="617" 
d="M580 235l-405.002 0.00195312c3.33301 -40 17.333 -71.333 42 -94s55 -34 91 -34c52 0 89 22.333 111 67h151c-16 -53.333 -46.667 -97.166 -92 -131.499s-101 -51.5 -167 -51.5c-53.333 0 -101.166 11.833 -143.499 35.5s-75.333 57.167 -99 100.5
s-35.5 93.333 -35.5 150c0 57.333 11.667 107.666 35 150.999s56 76.666 98 99.999s90.333 35 145 35c52.667 0 99.834 -11.333 141.501 -34s74 -54.834 97 -96.501s34.5 -89.5 34.5 -143.5c0 -20 -1.33301 -38 -4 -54zM438.998 329.002
c-0.666992 36 -13.666 64.833 -38.999 86.5s-56.333 32.5 -93 32.5c-34.667 0 -63.834 -10.5 -87.501 -31.5s-38.167 -50.167 -43.5 -87.5h263zM417.999 700.002l-230 -105v100l230 119v-114z" />
    <glyph glyph-name="ecircumflex" unicode="&#xea;" horiz-adv-x="617" 
d="M580 235l-405.002 0.00195312c3.33301 -40 17.333 -71.333 42 -94s55 -34 91 -34c52 0 89 22.333 111 67h151c-16 -53.333 -46.667 -97.166 -92 -131.499s-101 -51.5 -167 -51.5c-53.333 0 -101.166 11.833 -143.499 35.5s-75.333 57.167 -99 100.5
s-35.5 93.333 -35.5 150c0 57.333 11.667 107.666 35 150.999s56 76.666 98 99.999s90.333 35 145 35c52.667 0 99.834 -11.333 141.501 -34s74 -54.834 97 -96.501s34.5 -89.5 34.5 -143.5c0 -20 -1.33301 -38 -4 -54zM438.998 329.002
c-0.666992 36 -13.666 64.833 -38.999 86.5s-56.333 32.5 -93 32.5c-34.667 0 -63.834 -10.5 -87.501 -31.5s-38.167 -50.167 -43.5 -87.5h263zM308.999 679.002l-149 -84v102l149 81l148 -81v-102z" />
    <glyph glyph-name="edieresis" unicode="&#xeb;" horiz-adv-x="617" 
d="M580 235l-405.002 0.00195312c3.33301 -40 17.333 -71.333 42 -94s55 -34 91 -34c52 0 89 22.333 111 67h151c-16 -53.333 -46.667 -97.166 -92 -131.499s-101 -51.5 -167 -51.5c-53.333 0 -101.166 11.833 -143.499 35.5s-75.333 57.167 -99 100.5
s-35.5 93.333 -35.5 150c0 57.333 11.667 107.666 35 150.999s56 76.666 98 99.999s90.333 35 145 35c52.667 0 99.834 -11.333 141.501 -34s74 -54.834 97 -96.501s34.5 -89.5 34.5 -143.5c0 -20 -1.33301 -38 -4 -54zM438.998 329.002
c-0.666992 36 -13.666 64.833 -38.999 86.5s-56.333 32.5 -93 32.5c-34.667 0 -63.834 -10.5 -87.501 -31.5s-38.167 -50.167 -43.5 -87.5h263zM168.999 641.002c-12.667 12.667 -19 28.334 -19 47.001s6.33301 34.5 19 47.5s28.334 19.5 47.001 19.5s34.5 -6.5 47.5 -19.5
s19.5 -28.833 19.5 -47.5s-6.5 -34.334 -19.5 -47.001s-28.833 -19 -47.5 -19s-34.334 6.33301 -47.001 19zM353.999 641.002c-12.667 12.667 -19 28.334 -19 47.001s6.33301 34.5 19 47.5s28.334 19.5 47.001 19.5s34.5 -6.5 47.5 -19.5s19.5 -28.833 19.5 -47.5
s-6.5 -34.334 -19.5 -47.001s-28.833 -19 -47.5 -19s-34.334 6.33301 -47.001 19z" />
    <glyph glyph-name="igrave" unicode="&#xec;" horiz-adv-x="290" 
d="M215 554v-554h-140v554h140zM254 693v-100l-230 105v114z" />
    <glyph glyph-name="iacute" unicode="&#xed;" horiz-adv-x="290" 
d="M215 554v-554h-140v554h140zM254 698l-230 -105v100l230 119v-114z" />
    <glyph glyph-name="icircumflex" unicode="&#xee;" horiz-adv-x="290" 
d="M215 554v-554h-140v554h140zM146 677l-149 -84v102l149 81l148 -81v-102z" />
    <glyph glyph-name="idieresis" unicode="&#xef;" horiz-adv-x="290" 
d="M215 554v-554h-140v554h140zM5 639c-12.667 12.667 -19 28.334 -19 47.001s6.33301 34.5 19 47.5s28.334 19.5 47.001 19.5s34.5 -6.5 47.5 -19.5s19.5 -28.833 19.5 -47.5s-6.5 -34.334 -19.5 -47.001s-28.833 -19 -47.5 -19s-34.334 6.33301 -47.001 19zM190 639
c-12.667 12.667 -19 28.334 -19 47.001s6.33301 34.5 19 47.5s28.334 19.5 47.001 19.5s34.5 -6.5 47.5 -19.5s19.5 -28.833 19.5 -47.5s-6.5 -34.334 -19.5 -47.001s-28.833 -19 -47.5 -19s-34.334 6.33301 -47.001 19z" />
    <glyph glyph-name="eth" unicode="&#xf0;" horiz-adv-x="638" 
d="M572.5 494.5c21.667 -57 32.5 -116.169 32.5 -177.502c0 -69.333 -12.5 -128.5 -37.5 -177.5s-59.167 -85.833 -102.5 -110.5s-92.666 -37 -147.999 -37c-53.333 0 -101.5 11.833 -144.5 35.5s-77 57.167 -102 100.5s-37.5 93.333 -37.5 150s12.167 106.5 36.5 149.5
s57.166 76.167 98.499 99.5s87.333 35 138 35c51.333 0 97.666 -15 138.999 -45c-16 36.667 -37.667 72.334 -65 107.001l-116 -36v64l71 23c-16 17.333 -39.667 39 -71 65h134c8.66699 -7.33301 20.667 -18.666 36 -33.999l112 35v-64l-67 -21
c40.667 -50.667 71.834 -104.5 93.501 -161.5zM388 129.498c22 12.333 39.666 31 52.999 56s20 55.5 20 91.5s-6.66699 66.5 -20 91.5s-31 43.667 -53 56s-45.333 18.5 -70 18.5c-25.333 0 -48.666 -6.16699 -69.999 -18.5s-38.5 -31 -51.5 -56s-19.5 -55.5 -19.5 -91.5
c0 -53.333 13.5 -94.333 40.5 -123s60.167 -43 99.5 -43c25.333 0 49 6.16699 71 18.5z" />
    <glyph glyph-name="ntilde" unicode="&#xf1;" horiz-adv-x="661" 
d="M536 499.5c40.667 -41.667 61 -99.833 61 -174.5v-325h-140v306c0 44 -11 77.833 -33 101.5s-52 35.5 -90 35.5c-38.667 0 -69.167 -11.833 -91.5 -35.5s-33.5 -57.5 -33.5 -101.5v-306h-140v554h140v-69c18.667 24 42.5 42.833 71.5 56.5s60.833 20.5 95.5 20.5
c66 0 119.333 -20.833 160 -62.5zM208.5 705.501c21.667 21.667 49.168 32.5 82.501 32.5c14 0 26.333 -2.16699 37 -6.5s22.667 -10.5 36 -18.5c20 -12.667 36.667 -19 50 -19c24.667 0 39 14.333 43 43h75c-6 -44 -19.833 -76.833 -41.5 -98.5s-49.167 -32.5 -82.5 -32.5
c-14 0 -26.333 2.16699 -37 6.5s-22.667 10.5 -36 18.5c-19.333 13.333 -36 20 -50 20c-24.667 0 -39.334 -14.667 -44.001 -44h-74c6 44 19.833 76.833 41.5 98.5z" />
    <glyph glyph-name="ograve" unicode="&#xf2;" horiz-adv-x="638" 
d="M171 26.5c-42.667 23.667 -76.1641 57.167 -100.497 100.5s-36.5 93.333 -36.5 150s12.5 106.667 37.5 150s59.167 76.833 102.5 100.5s91.666 35.5 144.999 35.5s101.666 -11.833 144.999 -35.5s77.5 -57.167 102.5 -100.5s37.5 -93.333 37.5 -150
s-12.833 -106.667 -38.5 -150s-60.334 -76.833 -104.001 -100.5s-92.5 -35.5 -146.5 -35.5c-53.333 0 -101.333 11.833 -144 35.5zM386.503 131.5c22.333 12.333 40.168 30.833 53.501 55.5s20 54.667 20 90c0 52.667 -13.833 93.167 -41.5 121.5s-61.5 42.5 -101.5 42.5
s-73.5 -14.167 -100.5 -42.5s-40.5 -68.833 -40.5 -121.5s13.167 -93.167 39.5 -121.5s59.5 -42.5 99.5 -42.5c25.333 0 49.166 6.16699 71.499 18.5zM434.005 700v-100l-230 105v114z" />
    <glyph glyph-name="oacute" unicode="&#xf3;" horiz-adv-x="638" 
d="M171 26.5c-42.667 23.667 -76.1641 57.167 -100.497 100.5s-36.5 93.333 -36.5 150s12.5 106.667 37.5 150s59.167 76.833 102.5 100.5s91.666 35.5 144.999 35.5s101.666 -11.833 144.999 -35.5s77.5 -57.167 102.5 -100.5s37.5 -93.333 37.5 -150
s-12.833 -106.667 -38.5 -150s-60.334 -76.833 -104.001 -100.5s-92.5 -35.5 -146.5 -35.5c-53.333 0 -101.333 11.833 -144 35.5zM386.503 131.5c22.333 12.333 40.168 30.833 53.501 55.5s20 54.667 20 90c0 52.667 -13.833 93.167 -41.5 121.5s-61.5 42.5 -101.5 42.5
s-73.5 -14.167 -100.5 -42.5s-40.5 -68.833 -40.5 -121.5s13.167 -93.167 39.5 -121.5s59.5 -42.5 99.5 -42.5c25.333 0 49.166 6.16699 71.499 18.5zM434.005 705l-230 -105v100l230 119v-114z" />
    <glyph glyph-name="ocircumflex" unicode="&#xf4;" horiz-adv-x="638" 
d="M171 26.5c-42.667 23.667 -76.1641 57.167 -100.497 100.5s-36.5 93.333 -36.5 150s12.5 106.667 37.5 150s59.167 76.833 102.5 100.5s91.666 35.5 144.999 35.5s101.666 -11.833 144.999 -35.5s77.5 -57.167 102.5 -100.5s37.5 -93.333 37.5 -150
s-12.833 -106.667 -38.5 -150s-60.334 -76.833 -104.001 -100.5s-92.5 -35.5 -146.5 -35.5c-53.333 0 -101.333 11.833 -144 35.5zM386.503 131.5c22.333 12.333 40.168 30.833 53.501 55.5s20 54.667 20 90c0 52.667 -13.833 93.167 -41.5 121.5s-61.5 42.5 -101.5 42.5
s-73.5 -14.167 -100.5 -42.5s-40.5 -68.833 -40.5 -121.5s13.167 -93.167 39.5 -121.5s59.5 -42.5 99.5 -42.5c25.333 0 49.166 6.16699 71.499 18.5zM325.005 684l-149 -84v102l149 81l148 -81v-102z" />
    <glyph glyph-name="otilde" unicode="&#xf5;" horiz-adv-x="638" 
d="M171 26.5c-42.667 23.667 -76.1641 57.167 -100.497 100.5s-36.5 93.333 -36.5 150s12.5 106.667 37.5 150s59.167 76.833 102.5 100.5s91.666 35.5 144.999 35.5s101.666 -11.833 144.999 -35.5s77.5 -57.167 102.5 -100.5s37.5 -93.333 37.5 -150
s-12.833 -106.667 -38.5 -150s-60.334 -76.833 -104.001 -100.5s-92.5 -35.5 -146.5 -35.5c-53.333 0 -101.333 11.833 -144 35.5zM386.503 131.5c22.333 12.333 40.168 30.833 53.501 55.5s20 54.667 20 90c0 52.667 -13.833 93.167 -41.5 121.5s-61.5 42.5 -101.5 42.5
s-73.5 -14.167 -100.5 -42.5s-40.5 -68.833 -40.5 -121.5s13.167 -93.167 39.5 -121.5s59.5 -42.5 99.5 -42.5c25.333 0 49.166 6.16699 71.499 18.5zM186.505 712.5c21.667 21.667 49.168 32.5 82.501 32.5c14 0 26.333 -2.16699 37 -6.5s22.667 -10.5 36 -18.5
c20 -12.667 36.667 -19 50 -19c24.667 0 39 14.333 43 43h75c-6 -44 -19.833 -76.833 -41.5 -98.5s-49.167 -32.5 -82.5 -32.5c-14 0 -26.333 2.16699 -37 6.5s-22.667 10.5 -36 18.5c-19.333 13.333 -36 20 -50 20c-24.667 0 -39.334 -14.667 -44.001 -44h-74
c6 44 19.833 76.833 41.5 98.5z" />
    <glyph glyph-name="odieresis" unicode="&#xf6;" horiz-adv-x="638" 
d="M171 26.5c-42.667 23.667 -76.1641 57.167 -100.497 100.5s-36.5 93.333 -36.5 150s12.5 106.667 37.5 150s59.167 76.833 102.5 100.5s91.666 35.5 144.999 35.5s101.666 -11.833 144.999 -35.5s77.5 -57.167 102.5 -100.5s37.5 -93.333 37.5 -150
s-12.833 -106.667 -38.5 -150s-60.334 -76.833 -104.001 -100.5s-92.5 -35.5 -146.5 -35.5c-53.333 0 -101.333 11.833 -144 35.5zM386.503 131.5c22.333 12.333 40.168 30.833 53.501 55.5s20 54.667 20 90c0 52.667 -13.833 93.167 -41.5 121.5s-61.5 42.5 -101.5 42.5
s-73.5 -14.167 -100.5 -42.5s-40.5 -68.833 -40.5 -121.5s13.167 -93.167 39.5 -121.5s59.5 -42.5 99.5 -42.5c25.333 0 49.166 6.16699 71.499 18.5zM185.005 646c-12.667 12.667 -19 28.334 -19 47.001s6.33301 34.5 19 47.5s28.334 19.5 47.001 19.5
s34.5 -6.5 47.5 -19.5s19.5 -28.833 19.5 -47.5s-6.5 -34.334 -19.5 -47.001s-28.833 -19 -47.5 -19s-34.334 6.33301 -47.001 19zM370.005 646c-12.667 12.667 -19 28.334 -19 47.001s6.33301 34.5 19 47.5s28.334 19.5 47.001 19.5s34.5 -6.5 47.5 -19.5
s19.5 -28.833 19.5 -47.5s-6.5 -34.334 -19.5 -47.001s-28.833 -19 -47.5 -19s-34.334 6.33301 -47.001 19z" />
    <glyph glyph-name="divide" unicode="&#xf7;" horiz-adv-x="648" 
d="M268.5 519.5c-16.333 15.667 -24.5 35.167 -24.5 58.5s8.16699 42.833 24.5 58.5s37.166 23.5 62.499 23.5c24.667 0 45 -7.83301 61 -23.5s24 -35.167 24 -58.5s-8 -42.833 -24 -58.5s-36.333 -23.5 -61 -23.5c-25.333 0 -46.166 7.83301 -62.499 23.5zM583 418v-122
h-510v122h510zM268.5 78.5c-16.333 15.667 -24.5 35.167 -24.5 58.5s8.16699 42.833 24.5 58.5s37.166 23.5 62.499 23.5c24.667 0 45 -7.83301 61 -23.5s24 -35.167 24 -58.5s-8 -42.833 -24 -58.5s-36.333 -23.5 -61 -23.5c-25.333 0 -46.166 7.83301 -62.499 23.5z" />
    <glyph glyph-name="oslash" unicode="&#xf8;" horiz-adv-x="634" 
d="M535 469c21.333 -24.667 37.834 -53.333 49.501 -86s17.5 -68 17.5 -106c0 -56.667 -12.833 -106.667 -38.5 -150s-60.334 -76.833 -104.001 -100.5s-92.5 -35.5 -146.5 -35.5c-64 0 -120.333 17 -169 51l-38 -42h-85l77 84c-21.333 25.333 -37.666 54.333 -48.999 87
s-17 68 -17 106c0 56.667 12.5 106.667 37.5 150s59.167 76.833 102.5 100.5s91.666 35.5 144.999 35.5c66 0 123.333 -17.333 172 -52l39 43h85zM192.001 187.001l208 227c-24.667 18 -53 27 -85 27c-40 0 -73.5 -14.167 -100.5 -42.5s-40.5 -68.833 -40.5 -121.5
c0 -34 6 -64 18 -90zM440.001 365.001l-206.999 -227c22.667 -16.667 49.334 -25 80.001 -25c25.333 0 49.166 6.16699 71.499 18.5s40.166 30.833 53.499 55.5s20 54.667 20 90c0 32.667 -6 62 -18 88z" />
    <glyph glyph-name="ugrave" unicode="&#xf9;" horiz-adv-x="661" 
d="M592 554l-0.000976562 -554h-141v70c-18 -24 -41.5 -42.833 -70.5 -56.5s-60.5 -20.5 -94.5 -20.5c-43.333 0 -81.666 9.16699 -114.999 27.5s-59.5 45.333 -78.5 81s-28.5 78.167 -28.5 127.5v325h140v-305c0 -44 11 -77.833 33 -101.5s52 -35.5 90 -35.5
c38.667 0 69 11.833 91 35.5s33 57.5 33 101.5v305h141zM439.999 693v-100l-230 105v114z" />
    <glyph glyph-name="uacute" unicode="&#xfa;" horiz-adv-x="661" 
d="M592 554l-0.000976562 -554h-141v70c-18 -24 -41.5 -42.833 -70.5 -56.5s-60.5 -20.5 -94.5 -20.5c-43.333 0 -81.666 9.16699 -114.999 27.5s-59.5 45.333 -78.5 81s-28.5 78.167 -28.5 127.5v325h140v-305c0 -44 11 -77.833 33 -101.5s52 -35.5 90 -35.5
c38.667 0 69 11.833 91 35.5s33 57.5 33 101.5v305h141zM439.999 698l-230 -105v100l230 119v-114z" />
    <glyph glyph-name="ucircumflex" unicode="&#xfb;" horiz-adv-x="661" 
d="M592 554l-0.000976562 -554h-141v70c-18 -24 -41.5 -42.833 -70.5 -56.5s-60.5 -20.5 -94.5 -20.5c-43.333 0 -81.666 9.16699 -114.999 27.5s-59.5 45.333 -78.5 81s-28.5 78.167 -28.5 127.5v325h140v-305c0 -44 11 -77.833 33 -101.5s52 -35.5 90 -35.5
c38.667 0 69 11.833 91 35.5s33 57.5 33 101.5v305h141zM330.999 677l-149 -84v102l149 81l148 -81v-102z" />
    <glyph glyph-name="udieresis" unicode="&#xfc;" horiz-adv-x="661" 
d="M592 554l-0.000976562 -554h-141v70c-18 -24 -41.5 -42.833 -70.5 -56.5s-60.5 -20.5 -94.5 -20.5c-43.333 0 -81.666 9.16699 -114.999 27.5s-59.5 45.333 -78.5 81s-28.5 78.167 -28.5 127.5v325h140v-305c0 -44 11 -77.833 33 -101.5s52 -35.5 90 -35.5
c38.667 0 69 11.833 91 35.5s33 57.5 33 101.5v305h141zM190.999 639c-12.667 12.667 -19 28.334 -19 47.001s6.33301 34.5 19 47.5s28.334 19.5 47.001 19.5s34.5 -6.5 47.5 -19.5s19.5 -28.833 19.5 -47.5s-6.5 -34.334 -19.5 -47.001s-28.833 -19 -47.5 -19
s-34.334 6.33301 -47.001 19zM375.999 639c-12.667 12.667 -19 28.334 -19 47.001s6.33301 34.5 19 47.5s28.334 19.5 47.001 19.5s34.5 -6.5 47.5 -19.5s19.5 -28.833 19.5 -47.5s-6.5 -34.334 -19.5 -47.001s-28.833 -19 -47.5 -19s-34.334 6.33301 -47.001 19z" />
    <glyph glyph-name="yacute" unicode="&#xfd;" horiz-adv-x="605" 
d="M599 554l-343 -816h-149l120 276l-222 540h157l143 -387l145 387h149zM412 698l-230 -105v100l230 119v-114z" />
    <glyph glyph-name="thorn" unicode="&#xfe;" horiz-adv-x="678" 
d="M282.5 537c30.333 16.667 65.5 25 105.5 25c47.333 0 90.666 -12 129.999 -36s70.333 -57.5 93 -100.5s34 -92.167 34 -147.5s-11.333 -104.833 -34 -148.5s-53.667 -77.5 -93 -101.5s-82.666 -36 -129.999 -36c-40 0 -75 9 -105 27s-54.667 42.667 -74 74v-357h-140
v1004h140v-272c18.667 29.333 43.167 52.333 73.5 69zM481.5 366c-13.667 24.667 -31.667 43.1689 -54 55.502s-46.166 18.5 -71.499 18.5s-49.166 -6.33301 -71.499 -19s-40.5 -31.334 -54.5 -56.001s-21 -54 -21 -88s7 -63.333 21 -88s32.167 -43.334 54.5 -56.001
s46.166 -19 71.499 -19s49.166 6.33301 71.499 19s40.333 31.5 54 56.5s20.5 54.5 20.5 88.5s-6.83301 63.333 -20.5 88z" />
    <glyph glyph-name="ydieresis" unicode="&#xff;" horiz-adv-x="605" 
d="M599 554l-343 -816h-149l120 276l-222 540h157l143 -387l145 387h149zM163 639c-12.667 12.667 -19 28.334 -19 47.001s6.33301 34.5 19 47.5s28.334 19.5 47.001 19.5s34.5 -6.5 47.5 -19.5s19.5 -28.833 19.5 -47.5s-6.5 -34.334 -19.5 -47.001s-28.833 -19 -47.5 -19
s-34.334 6.33301 -47.001 19zM348 639c-12.667 12.667 -19 28.334 -19 47.001s6.33301 34.5 19 47.5s28.334 19.5 47.001 19.5s34.5 -6.5 47.5 -19.5s19.5 -28.833 19.5 -47.5s-6.5 -34.334 -19.5 -47.001s-28.833 -19 -47.5 -19s-34.334 6.33301 -47.001 19z" />
    <glyph glyph-name="Amacron" unicode="&#x100;" horiz-adv-x="716" 
d="M497 133h-278l-46 -133h-147l251 699h163l251 -699h-148zM459 245l-101 292l-101 -292h202zM549 877v-100h-382v100h382z" />
    <glyph glyph-name="amacron" unicode="&#x101;" horiz-adv-x="678" 
d="M66.5 428c22.333 43.333 52.667 76.666 91 99.999s81.166 35 128.499 35c41.333 0 77.5 -8.33301 108.5 -25s55.833 -37.667 74.5 -63v79h141v-554h-141v81c-18 -26 -42.833 -47.5 -74.5 -64.5s-68.167 -25.5 -109.5 -25.5c-46.667 0 -89.167 12 -127.5 36
s-68.666 57.833 -90.999 101.5s-33.5 93.834 -33.5 150.501c0 56 11.167 105.667 33.5 149zM449.001 364.5c-13.333 24.333 -31.332 42.999 -53.999 55.999s-47 19.5 -73 19.5s-50 -6.33301 -72 -19s-39.833 -31.167 -53.5 -55.5s-20.5 -53.166 -20.5 -86.499
s6.83301 -62.5 20.5 -87.5s31.667 -44.167 54 -57.5s46.166 -20 71.499 -20c26 0 50.333 6.5 73 19.5s40.667 31.667 54 56s20 53.5 20 87.5s-6.66699 63.167 -20 87.5zM532.002 731.999v-100h-382v100h382z" />
    <glyph glyph-name="Abreve" unicode="&#x102;" horiz-adv-x="716" 
d="M497 133h-278l-46 -133h-147l251 699h163l251 -699h-148zM459 245l-101 292l-101 -292h202zM475 784c-28.667 -27.333 -67.667 -41 -117 -41c-48 0 -86.5 13.833 -115.5 41.5s-43.5 65.5 -43.5 113.5v20h74c0 -22.667 6.33301 -39.834 19 -51.501s34.667 -17.5 66 -17.5
s53.333 5.83301 66 17.5s19 28.834 19 51.501h75v-21c0 -48 -14.333 -85.667 -43 -113z" />
    <glyph glyph-name="abreve" unicode="&#x103;" horiz-adv-x="678" 
d="M66.5 428c22.333 43.333 52.667 76.666 91 99.999s81.166 35 128.499 35c41.333 0 77.5 -8.33301 108.5 -25s55.833 -37.667 74.5 -63v79h141v-554h-141v81c-18 -26 -42.833 -47.5 -74.5 -64.5s-68.167 -25.5 -109.5 -25.5c-46.667 0 -89.167 12 -127.5 36
s-68.666 57.833 -90.999 101.5s-33.5 93.834 -33.5 150.501c0 56 11.167 105.667 33.5 149zM449.001 364.5c-13.333 24.333 -31.332 42.999 -53.999 55.999s-47 19.5 -73 19.5s-50 -6.33301 -72 -19s-39.833 -31.167 -53.5 -55.5s-20.5 -53.166 -20.5 -86.499
s6.83301 -62.5 20.5 -87.5s31.667 -44.167 54 -57.5s46.166 -20 71.499 -20c26 0 50.333 6.5 73 19.5s40.667 31.667 54 56s20 53.5 20 87.5s-6.66699 63.167 -20 87.5zM458.002 638.999c-28.667 -27.333 -67.667 -41 -117 -41c-48 0 -86.5 13.833 -115.5 41.5
s-43.5 65.5 -43.5 113.5v20h74c0 -22.667 6.33301 -39.834 19 -51.501s34.667 -17.5 66 -17.5s53.333 5.83301 66 17.5s19 28.834 19 51.501h75v-21c0 -48 -14.333 -85.667 -43 -113z" />
    <glyph glyph-name="Aogonek" unicode="&#x104;" horiz-adv-x="716" 
d="M702 -115v-83.999c-28 -10 -57.667 -15 -89 -15c-39.333 0 -72.5 9.33301 -99.5 28s-40.5 46.667 -40.5 84c0 20.667 5.16699 40.167 15.5 58.5s27.5 36.166 51.5 53.499l-43 123h-278l-46 -133h-147l251 699h163l251 -699l-48 -24
c-22.667 -10.667 -38.5 -21.167 -47.5 -31.5s-13.5 -21.5 -13.5 -33.5c0 -12.667 4.5 -22.667 13.5 -30s21.167 -11 36.5 -11c22 0 45.333 5 70 15zM459 245.001l-101 292l-101 -292h202z" />
    <glyph glyph-name="aogonek" unicode="&#x105;" horiz-adv-x="678" 
d="M621 -115l0.00195312 -84c-28.667 -10 -58.334 -15 -89.001 -15c-39.333 0 -72.5 9.16699 -99.5 27.5s-40.5 46.166 -40.5 83.499c0 22 6 42.5 18 61.5s31.667 37.5 59 55.5v67c-18 -26 -42.833 -47.5 -74.5 -64.5s-68.167 -25.5 -109.5 -25.5
c-46.667 0 -89.167 12 -127.5 36s-68.666 57.833 -90.999 101.5s-33.5 93.834 -33.5 150.501c0 56 11.167 105.667 33.5 149s52.666 76.666 90.999 99.999s81.166 35 128.499 35c41.333 0 77.5 -8.33301 108.5 -25s55.833 -37.667 74.5 -63v79h141v-554h-1l-47 -24
c-22.667 -11.333 -38.667 -22.166 -48 -32.499s-14 -21.5 -14 -33.5s4.5 -21.667 13.5 -29s21.167 -11 36.5 -11c21.333 0 45 5 71 15zM395.002 133.5c22.667 13 40.668 31.666 54.001 55.999s20 53.5 20 87.5s-6.66699 63.167 -20 87.5s-31.333 43 -54 56
s-47 19.5 -73 19.5s-50 -6.33301 -72 -19s-39.833 -31.167 -53.5 -55.5s-20.5 -53.166 -20.5 -86.499s6.83301 -62.5 20.5 -87.5s31.667 -44.167 54 -57.5s46.166 -20 71.499 -20c26 0 50.333 6.5 73 19.5z" />
    <glyph glyph-name="Cacute" unicode="&#x106;" horiz-adv-x="768" 
d="M81.5 534.5c31 54.333 73.332 96.668 126.999 127.001s113.834 45.5 180.501 45.5c78 0 146.333 -20 205 -60s99.667 -95.333 123 -166h-161c-16 33.333 -38.5 58.333 -67.5 75s-62.5 25 -100.5 25c-40.667 0 -76.834 -9.5 -108.501 -28.5s-56.334 -45.833 -74.001 -80.5
s-26.5 -75.334 -26.5 -122.001c0 -46 8.83301 -86.5 26.5 -121.5s42.334 -62 74.001 -81s67.834 -28.5 108.501 -28.5c38 0 71.5 8.5 100.5 25.5s51.5 42.167 67.5 75.5h161c-23.333 -71.333 -64.166 -126.833 -122.499 -166.5s-126.833 -59.5 -205.5 -59.5
c-66.667 0 -126.834 15.167 -180.501 45.5s-96 72.5 -127 126.5s-46.5 115.333 -46.5 184s15.5 130.167 46.5 184.5zM496.999 850.002l-230 -105v100l230 119v-114z" />
    <glyph glyph-name="cacute" unicode="&#x107;" horiz-adv-x="602" 
d="M68 427.5c23.333 43 55.665 76.333 96.998 100s88.666 35.5 141.999 35.5c68.667 0 125.5 -17.167 170.5 -51.5s75.167 -82.5 90.5 -144.5h-151c-8 24 -21.5 42.833 -40.5 56.5s-42.5 20.5 -70.5 20.5c-40 0 -71.667 -14.5 -95 -43.5s-35 -70.167 -35 -123.5
c0 -52.667 11.667 -93.5 35 -122.5s55 -43.5 95 -43.5c56.667 0 93.667 25.333 111 76h151c-15.333 -60 -45.666 -107.667 -90.999 -143s-102 -53 -170 -53c-53.333 0 -100.666 11.833 -141.999 35.5s-73.666 57 -96.999 100s-35 93.167 -35 150.5s11.667 107.5 35 150.5z
M408.999 698l-230 -105v100l230 119v-114z" />
    <glyph glyph-name="Cdotaccent" unicode="&#x10a;" horiz-adv-x="768" 
d="M81.5 534.5c31 54.333 73.332 96.668 126.999 127.001s113.834 45.5 180.501 45.5c78 0 146.333 -20 205 -60s99.667 -95.333 123 -166h-161c-16 33.333 -38.5 58.333 -67.5 75s-62.5 25 -100.5 25c-40.667 0 -76.834 -9.5 -108.501 -28.5s-56.334 -45.833 -74.001 -80.5
s-26.5 -75.334 -26.5 -122.001c0 -46 8.83301 -86.5 26.5 -121.5s42.334 -62 74.001 -81s67.834 -28.5 108.501 -28.5c38 0 71.5 8.5 100.5 25.5s51.5 42.167 67.5 75.5h161c-23.333 -71.333 -64.166 -126.833 -122.499 -166.5s-126.833 -59.5 -205.5 -59.5
c-66.667 0 -126.834 15.167 -180.501 45.5s-96 72.5 -127 126.5s-46.5 115.333 -46.5 184s15.5 130.167 46.5 184.5zM340.999 791.002c-12.667 12.667 -19 28.334 -19 47.001s6.33301 34.5 19 47.5s28.334 19.5 47.001 19.5s34.5 -6.5 47.5 -19.5s19.5 -28.833 19.5 -47.5
s-6.5 -34.334 -19.5 -47.001s-28.833 -19 -47.5 -19s-34.334 6.33301 -47.001 19z" />
    <glyph glyph-name="cdotaccent" unicode="&#x10b;" horiz-adv-x="602" 
d="M68 427.5c23.333 43 55.665 76.333 96.998 100s88.666 35.5 141.999 35.5c68.667 0 125.5 -17.167 170.5 -51.5s75.167 -82.5 90.5 -144.5h-151c-8 24 -21.5 42.833 -40.5 56.5s-42.5 20.5 -70.5 20.5c-40 0 -71.667 -14.5 -95 -43.5s-35 -70.167 -35 -123.5
c0 -52.667 11.667 -93.5 35 -122.5s55 -43.5 95 -43.5c56.667 0 93.667 25.333 111 76h151c-15.333 -60 -45.666 -107.667 -90.999 -143s-102 -53 -170 -53c-53.333 0 -100.666 11.833 -141.999 35.5s-73.666 57 -96.999 100s-35 93.167 -35 150.5s11.667 107.5 35 150.5z
M251.999 639c-12.667 12.667 -19 28.334 -19 47.001s6.33301 34.5 19 47.5s28.334 19.5 47.001 19.5s34.5 -6.5 47.5 -19.5s19.5 -28.833 19.5 -47.5s-6.5 -34.334 -19.5 -47.001s-28.833 -19 -47.5 -19s-34.334 6.33301 -47.001 19z" />
    <glyph glyph-name="Ccaron" unicode="&#x10c;" horiz-adv-x="768" 
d="M81.5 534.5c31 54.333 73.332 96.668 126.999 127.001s113.834 45.5 180.501 45.5c78 0 146.333 -20 205 -60s99.667 -95.333 123 -166h-161c-16 33.333 -38.5 58.333 -67.5 75s-62.5 25 -100.5 25c-40.667 0 -76.834 -9.5 -108.501 -28.5s-56.334 -45.833 -74.001 -80.5
s-26.5 -75.334 -26.5 -122.001c0 -46 8.83301 -86.5 26.5 -121.5s42.334 -62 74.001 -81s67.834 -28.5 108.501 -28.5c38 0 71.5 8.5 100.5 25.5s51.5 42.167 67.5 75.5h161c-23.333 -71.333 -64.166 -126.833 -122.499 -166.5s-126.833 -59.5 -205.5 -59.5
c-66.667 0 -126.834 15.167 -180.501 45.5s-96 72.5 -127 126.5s-46.5 115.333 -46.5 184s15.5 130.167 46.5 184.5zM536.999 826.002l-148 -81l-149 81v102l149 -86l148 86v-102z" />
    <glyph glyph-name="ccaron" unicode="&#x10d;" horiz-adv-x="602" 
d="M68 427.5c23.333 43 55.665 76.333 96.998 100s88.666 35.5 141.999 35.5c68.667 0 125.5 -17.167 170.5 -51.5s75.167 -82.5 90.5 -144.5h-151c-8 24 -21.5 42.833 -40.5 56.5s-42.5 20.5 -70.5 20.5c-40 0 -71.667 -14.5 -95 -43.5s-35 -70.167 -35 -123.5
c0 -52.667 11.667 -93.5 35 -122.5s55 -43.5 95 -43.5c56.667 0 93.667 25.333 111 76h151c-15.333 -60 -45.666 -107.667 -90.999 -143s-102 -53 -170 -53c-53.333 0 -100.666 11.833 -141.999 35.5s-73.666 57 -96.999 100s-35 93.167 -35 150.5s11.667 107.5 35 150.5z
M447.999 674l-148 -81l-149 81v102l149 -86l148 86v-102z" />
    <glyph glyph-name="Dcaron" unicode="&#x10e;" horiz-adv-x="717" 
d="M506.5 655c55.667 -28.667 98.667 -69.5 129 -122.5s45.5 -114.5 45.5 -184.5s-15.167 -131.167 -45.5 -183.5s-73.333 -92.833 -129 -121.5s-120.167 -43 -193.5 -43h-244v698h244c73.333 0 137.833 -14.333 193.5 -43zM478 179c40 40 60 96.333 60 169
s-20 129.5 -60 170.5s-96.667 61.5 -170 61.5h-99v-461h99c73.333 0 130 20 170 60zM504 819l-148 -81l-149 81v102l149 -86l148 86v-102z" />
    <glyph glyph-name="dcaron" unicode="&#x10f;" horiz-adv-x="806" 
d="M66.5 428c22.333 43.333 52.832 76.666 91.499 99.999s81.667 35 129 35c36 0 70.333 -7.83301 103 -23.5s58.667 -36.5 78 -62.5v263h142v-740h-142v82c-17.333 -27.333 -41.666 -49.333 -72.999 -66s-67.666 -25 -108.999 -25c-46.667 0 -89.334 12 -128.001 36
s-69.167 57.833 -91.5 101.5s-33.5 93.834 -33.5 150.501c0 56 11.167 105.667 33.5 149zM795.999 632c0 -44 -10.5 -77.833 -31.5 -101.5s-52.5 -35.5 -94.5 -35.5v57c33.333 0 50 20 50 60v19h-57v109h116c11.333 -40 17 -76 17 -108zM448.999 364.5
c-13.333 24.333 -31.332 42.999 -53.999 55.999s-47 19.5 -73 19.5s-50 -6.33301 -72 -19s-39.833 -31.167 -53.5 -55.5s-20.5 -53.166 -20.5 -86.499s6.83301 -62.5 20.5 -87.5s31.667 -44.167 54 -57.5s46.166 -20 71.499 -20c26 0 50.333 6.5 73 19.5
s40.667 31.667 54 56s20 53.5 20 87.5s-6.66699 63.167 -20 87.5z" />
    <glyph glyph-name="Dcroat" unicode="&#x110;" horiz-adv-x="726" 
d="M515.5 655c55.667 -28.667 98.667 -69.5 129 -122.5s45.5 -114.5 45.5 -184.5s-15.167 -131.167 -45.5 -183.5s-73.333 -92.833 -129 -121.5s-120.167 -43 -193.5 -43h-245v287h-70v122h70v289h245c73.333 0 137.833 -14.333 193.5 -43zM486 176
c40 41.333 60 98.667 60 172s-20 130.5 -60 171.5s-96.333 61.5 -169 61.5h-99v-172h167v-122h-167v-173h99c72.667 0 129 20.667 169 62z" />
    <glyph glyph-name="dcroat" unicode="&#x111;" horiz-adv-x="684" 
d="M670 590h-60.001v-590h-142v82c-17.333 -27.333 -41.666 -49.333 -72.999 -66s-67.666 -25 -108.999 -25c-46.667 0 -89.334 12 -128.001 36s-69.167 57.833 -91.5 101.5s-33.5 93.834 -33.5 150.501c0 56 11.167 105.667 33.5 149s52.833 76.666 91.5 99.999
s81.667 35 129 35c36 0 70.333 -7.83301 103 -23.5s58.667 -36.5 78 -62.5v113h-76v74h76v76h142v-76h60v-74zM394.999 133.5c22.667 13 40.668 31.666 54.001 55.999s20 53.5 20 87.5s-6.66699 63.167 -20 87.5s-31.333 43 -54 56s-47 19.5 -73 19.5s-50 -6.33301 -72 -19
s-39.833 -31.167 -53.5 -55.5s-20.5 -53.166 -20.5 -86.499s6.83301 -62.5 20.5 -87.5s31.667 -44.167 54 -57.5s46.166 -20 71.499 -20c26 0 50.333 6.5 73 19.5z" />
    <glyph glyph-name="Emacron" unicode="&#x112;" horiz-adv-x="532" 
d="M209 585v-175h235v-111h-235v-185h265v-114h-405v699h405v-114h-265zM458 877v-100h-382v100h382z" />
    <glyph glyph-name="emacron" unicode="&#x113;" horiz-adv-x="617" 
d="M580 235l-405.002 0.00195312c3.33301 -40 17.333 -71.333 42 -94s55 -34 91 -34c52 0 89 22.333 111 67h151c-16 -53.333 -46.667 -97.166 -92 -131.499s-101 -51.5 -167 -51.5c-53.333 0 -101.166 11.833 -143.499 35.5s-75.333 57.167 -99 100.5
s-35.5 93.333 -35.5 150c0 57.333 11.667 107.666 35 150.999s56 76.666 98 99.999s90.333 35 145 35c52.667 0 99.834 -11.333 141.501 -34s74 -54.834 97 -96.501s34.5 -89.5 34.5 -143.5c0 -20 -1.33301 -38 -4 -54zM438.998 329.002
c-0.666992 36 -13.666 64.833 -38.999 86.5s-56.333 32.5 -93 32.5c-34.667 0 -63.834 -10.5 -87.501 -31.5s-38.167 -50.167 -43.5 -87.5h263zM499.999 734.002v-100h-382v100h382z" />
    <glyph glyph-name="Ebreve" unicode="&#x114;" horiz-adv-x="532" 
d="M209 585v-175h235v-111h-235v-185h265v-114h-405v699h405v-114h-265zM384 784c-28.667 -27.333 -67.667 -41 -117 -41c-48 0 -86.5 13.833 -115.5 41.5s-43.5 65.5 -43.5 113.5v20h74c0 -22.667 6.33301 -39.834 19 -51.501s34.667 -17.5 66 -17.5
s53.333 5.83301 66 17.5s19 28.834 19 51.501h75v-21c0 -48 -14.333 -85.667 -43 -113z" />
    <glyph glyph-name="ebreve" unicode="&#x115;" horiz-adv-x="617" 
d="M580 235l-405.002 0.00195312c3.33301 -40 17.333 -71.333 42 -94s55 -34 91 -34c52 0 89 22.333 111 67h151c-16 -53.333 -46.667 -97.166 -92 -131.499s-101 -51.5 -167 -51.5c-53.333 0 -101.166 11.833 -143.499 35.5s-75.333 57.167 -99 100.5
s-35.5 93.333 -35.5 150c0 57.333 11.667 107.666 35 150.999s56 76.666 98 99.999s90.333 35 145 35c52.667 0 99.834 -11.333 141.501 -34s74 -54.834 97 -96.501s34.5 -89.5 34.5 -143.5c0 -20 -1.33301 -38 -4 -54zM438.998 329.002
c-0.666992 36 -13.666 64.833 -38.999 86.5s-56.333 32.5 -93 32.5c-34.667 0 -63.834 -10.5 -87.501 -31.5s-38.167 -50.167 -43.5 -87.5h263zM424.999 641.002c-28.667 -27.333 -67.667 -41 -117 -41c-48 0 -86.5 13.833 -115.5 41.5s-43.5 65.5 -43.5 113.5v20h74
c0 -22.667 6.33301 -39.834 19 -51.501s34.667 -17.5 66 -17.5s53.333 5.83301 66 17.5s19 28.834 19 51.501h75v-21c0 -48 -14.333 -85.667 -43 -113z" />
    <glyph glyph-name="Edotaccent" unicode="&#x116;" horiz-adv-x="532" 
d="M209 585v-175h235v-111h-235v-185h265v-114h-405v699h405v-114h-265zM219 784c-12.667 12.667 -19 28.334 -19 47.001s6.33301 34.5 19 47.5s28.334 19.5 47.001 19.5s34.5 -6.5 47.5 -19.5s19.5 -28.833 19.5 -47.5s-6.5 -34.334 -19.5 -47.001s-28.833 -19 -47.5 -19
s-34.334 6.33301 -47.001 19z" />
    <glyph glyph-name="edotaccent" unicode="&#x117;" horiz-adv-x="617" 
d="M580 235l-405.002 0.00195312c3.33301 -40 17.333 -71.333 42 -94s55 -34 91 -34c52 0 89 22.333 111 67h151c-16 -53.333 -46.667 -97.166 -92 -131.499s-101 -51.5 -167 -51.5c-53.333 0 -101.166 11.833 -143.499 35.5s-75.333 57.167 -99 100.5
s-35.5 93.333 -35.5 150c0 57.333 11.667 107.666 35 150.999s56 76.666 98 99.999s90.333 35 145 35c52.667 0 99.834 -11.333 141.501 -34s74 -54.834 97 -96.501s34.5 -89.5 34.5 -143.5c0 -20 -1.33301 -38 -4 -54zM438.998 329.002
c-0.666992 36 -13.666 64.833 -38.999 86.5s-56.333 32.5 -93 32.5c-34.667 0 -63.834 -10.5 -87.501 -31.5s-38.167 -50.167 -43.5 -87.5h263zM260.999 641.002c-12.667 12.667 -19 28.334 -19 47.001s6.33301 34.5 19 47.5s28.334 19.5 47.001 19.5s34.5 -6.5 47.5 -19.5
s19.5 -28.833 19.5 -47.5s-6.5 -34.334 -19.5 -47.001s-28.833 -19 -47.5 -19s-34.334 6.33301 -47.001 19z" />
    <glyph glyph-name="Eogonek" unicode="&#x118;" horiz-adv-x="532" 
d="M486 -115l0.000976562 -84c-28.667 -10 -58.334 -15 -89.001 -15c-39.333 0 -72.5 9.16699 -99.5 27.5s-40.5 46.166 -40.5 83.499c0 38.667 19 73 57 103h-245v699h405v-114h-265v-175h235v-111h-235v-185h265v-114l-47 -24
c-22.667 -11.333 -38.667 -22.166 -48 -32.499s-14 -21.5 -14 -33.5s4.5 -21.667 13.5 -29s21.167 -11 36.5 -11c21.333 0 45 5 71 15z" />
    <glyph glyph-name="eogonek" unicode="&#x119;" horiz-adv-x="617" 
d="M580 235l-404.999 0.00292969c3.33301 -40 17.333 -71.333 42 -94s55 -34 91 -34c52 0 89 22.333 111 67h151c-12.667 -42 -34.334 -78.333 -65.001 -109s-69 -52 -115 -64l-23 -12c-22.667 -11.333 -38.667 -22.166 -48 -32.499s-14 -21.5 -14 -33.5
s4.5 -21.667 13.5 -29s21.167 -11 36.5 -11c21.333 0 45 5 71 15v-84c-28.667 -10 -58.334 -15 -89.001 -15c-39.333 0 -72.5 9.16699 -99.5 27.5s-40.5 46.166 -40.5 83.499c0 34 13.667 63.667 41 89c-62 14.667 -111.667 46.667 -149 96s-56 110 -56 182
c0 57.333 11.667 107.666 35 150.999s56 76.666 98 99.999s90.333 35 145 35c52.667 0 99.834 -11.333 141.501 -34s74 -54.834 97 -96.501s34.5 -89.5 34.5 -143.5c0 -20 -1.33301 -38 -4 -54zM439.001 329.003c-0.666992 36 -13.666 64.833 -38.999 86.5
s-56.333 32.5 -93 32.5c-34.667 0 -63.834 -10.5 -87.501 -31.5s-38.167 -50.167 -43.5 -87.5h263z" />
    <glyph glyph-name="Ecaron" unicode="&#x11a;" horiz-adv-x="532" 
d="M209 585v-175h235v-111h-235v-185h265v-114h-405v699h405v-114h-265zM415 819l-148 -81l-149 81v102l149 -86l148 86v-102z" />
    <glyph glyph-name="ecaron" unicode="&#x11b;" horiz-adv-x="617" 
d="M580 235l-405.002 0.00195312c3.33301 -40 17.333 -71.333 42 -94s55 -34 91 -34c52 0 89 22.333 111 67h151c-16 -53.333 -46.667 -97.166 -92 -131.499s-101 -51.5 -167 -51.5c-53.333 0 -101.166 11.833 -143.499 35.5s-75.333 57.167 -99 100.5
s-35.5 93.333 -35.5 150c0 57.333 11.667 107.666 35 150.999s56 76.666 98 99.999s90.333 35 145 35c52.667 0 99.834 -11.333 141.501 -34s74 -54.834 97 -96.501s34.5 -89.5 34.5 -143.5c0 -20 -1.33301 -38 -4 -54zM438.998 329.002
c-0.666992 36 -13.666 64.833 -38.999 86.5s-56.333 32.5 -93 32.5c-34.667 0 -63.834 -10.5 -87.501 -31.5s-38.167 -50.167 -43.5 -87.5h263zM456.999 676.002l-148 -81l-149 81v102l149 -86l148 86v-102z" />
    <glyph glyph-name="Gbreve" unicode="&#x11e;" horiz-adv-x="768" 
d="M555 488c-16 29.333 -38.001 51.6699 -66.001 67.0029s-60.667 23 -98 23c-41.333 0 -78 -9.33301 -110 -28s-57 -45.334 -75 -80.001s-27 -74.667 -27 -120c0 -46.667 9.16699 -87.334 27.5 -122.001s43.833 -61.334 76.5 -80.001s70.667 -28 114 -28
c53.333 0 97 14.167 131 42.5s56.333 67.833 67 118.5h-240v107h378v-122c-9.33301 -48.667 -29.333 -93.667 -60 -135s-70.167 -74.5 -118.5 -99.5s-102.5 -37.5 -162.5 -37.5c-67.333 0 -128.166 15.167 -182.499 45.5s-97 72.5 -128 126.5s-46.5 115.333 -46.5 184
s15.5 130.167 46.5 184.5s73.667 96.666 128 126.999s114.833 45.5 181.5 45.5c78.667 0 147 -19.167 205 -57.5s98 -92.166 120 -161.499h-161zM499.999 784.004c-28.667 -27.333 -67.667 -41 -117 -41c-48 0 -86.5 13.833 -115.5 41.5s-43.5 65.5 -43.5 113.5v20h74
c0 -22.667 6.33301 -39.834 19 -51.501s34.667 -17.5 66 -17.5s53.333 5.83301 66 17.5s19 28.834 19 51.501h75v-21c0 -48 -14.333 -85.667 -43 -113z" />
    <glyph glyph-name="gbreve" unicode="&#x11f;" horiz-adv-x="678" 
d="M395 538.5c31.333 -16.333 56.0059 -37.5 74.0059 -63.5v79h141v-558c0 -51.333 -10.333 -97.166 -31 -137.499s-51.667 -72.333 -93 -96s-91.333 -35.5 -150 -35.5c-78.667 0 -143.167 18.333 -193.5 55s-78.833 86.667 -85.5 150h139
c7.33301 -25.333 23.166 -45.5 47.499 -60.5s53.833 -22.5 88.5 -22.5c40.667 0 73.667 12.167 99 36.5s38 61.166 38 110.499v86c-18 -26 -42.833 -47.667 -74.5 -65s-67.834 -26 -108.501 -26c-46.667 0 -89.334 12 -128.001 36s-69.167 57.833 -91.5 101.5
s-33.5 93.834 -33.5 150.501c0 56 11.167 105.667 33.5 149s52.666 76.666 90.999 99.999s81.166 35 128.499 35c41.333 0 77.666 -8.16699 108.999 -24.5zM449.006 364.5c-13.333 24.333 -31.332 42.999 -53.999 55.999s-47 19.5 -73 19.5s-50 -6.33301 -72 -19
s-39.833 -31.167 -53.5 -55.5s-20.5 -53.166 -20.5 -86.499s6.83301 -62.5 20.5 -87.5s31.667 -44.167 54 -57.5s46.166 -20 71.499 -20c26 0 50.333 6.5 73 19.5s40.667 31.667 54 56s20 53.5 20 87.5s-6.66699 63.167 -20 87.5zM458.007 638.999
c-28.667 -27.333 -67.667 -41 -117 -41c-48 0 -86.5 13.833 -115.5 41.5s-43.5 65.5 -43.5 113.5v20h74c0 -22.667 6.33301 -39.834 19 -51.501s34.667 -17.5 66 -17.5s53.333 5.83301 66 17.5s19 28.834 19 51.501h75v-21c0 -48 -14.333 -85.667 -43 -113z" />
    <glyph glyph-name="Gdotaccent" unicode="&#x120;" horiz-adv-x="768" 
d="M555 488c-16 29.333 -38.001 51.6699 -66.001 67.0029s-60.667 23 -98 23c-41.333 0 -78 -9.33301 -110 -28s-57 -45.334 -75 -80.001s-27 -74.667 -27 -120c0 -46.667 9.16699 -87.334 27.5 -122.001s43.833 -61.334 76.5 -80.001s70.667 -28 114 -28
c53.333 0 97 14.167 131 42.5s56.333 67.833 67 118.5h-240v107h378v-122c-9.33301 -48.667 -29.333 -93.667 -60 -135s-70.167 -74.5 -118.5 -99.5s-102.5 -37.5 -162.5 -37.5c-67.333 0 -128.166 15.167 -182.499 45.5s-97 72.5 -128 126.5s-46.5 115.333 -46.5 184
s15.5 130.167 46.5 184.5s73.667 96.666 128 126.999s114.833 45.5 181.5 45.5c78.667 0 147 -19.167 205 -57.5s98 -92.166 120 -161.499h-161zM335.999 784.004c-12.667 12.667 -19 28.334 -19 47.001s6.33301 34.5 19 47.5s28.334 19.5 47.001 19.5s34.5 -6.5 47.5 -19.5
s19.5 -28.833 19.5 -47.5s-6.5 -34.334 -19.5 -47.001s-28.833 -19 -47.5 -19s-34.334 6.33301 -47.001 19z" />
    <glyph glyph-name="gdotaccent" unicode="&#x121;" horiz-adv-x="678" 
d="M395 538.5c31.333 -16.333 56.0059 -37.5 74.0059 -63.5v79h141v-558c0 -51.333 -10.333 -97.166 -31 -137.499s-51.667 -72.333 -93 -96s-91.333 -35.5 -150 -35.5c-78.667 0 -143.167 18.333 -193.5 55s-78.833 86.667 -85.5 150h139
c7.33301 -25.333 23.166 -45.5 47.499 -60.5s53.833 -22.5 88.5 -22.5c40.667 0 73.667 12.167 99 36.5s38 61.166 38 110.499v86c-18 -26 -42.833 -47.667 -74.5 -65s-67.834 -26 -108.501 -26c-46.667 0 -89.334 12 -128.001 36s-69.167 57.833 -91.5 101.5
s-33.5 93.834 -33.5 150.501c0 56 11.167 105.667 33.5 149s52.666 76.666 90.999 99.999s81.166 35 128.499 35c41.333 0 77.666 -8.16699 108.999 -24.5zM449.006 364.5c-13.333 24.333 -31.332 42.999 -53.999 55.999s-47 19.5 -73 19.5s-50 -6.33301 -72 -19
s-39.833 -31.167 -53.5 -55.5s-20.5 -53.166 -20.5 -86.499s6.83301 -62.5 20.5 -87.5s31.667 -44.167 54 -57.5s46.166 -20 71.499 -20c26 0 50.333 6.5 73 19.5s40.667 31.667 54 56s20 53.5 20 87.5s-6.66699 63.167 -20 87.5zM293.007 638.999
c-12.667 12.667 -19 28.334 -19 47.001s6.33301 34.5 19 47.5s28.334 19.5 47.001 19.5s34.5 -6.5 47.5 -19.5s19.5 -28.833 19.5 -47.5s-6.5 -34.334 -19.5 -47.001s-28.833 -19 -47.5 -19s-34.334 6.33301 -47.001 19z" />
    <glyph glyph-name="uni0122" unicode="&#x122;" horiz-adv-x="769" 
d="M555 488c-16 29.333 -38.001 51.6699 -66.001 67.0029s-60.667 23 -98 23c-41.333 0 -78 -9.33301 -110 -28s-57 -45.334 -75 -80.001s-27 -74.667 -27 -120c0 -46.667 9.16699 -87.334 27.5 -122.001s43.833 -61.334 76.5 -80.001s70.667 -28 114 -28
c53.333 0 97 14.167 131 42.5s56.333 67.833 67 118.5h-240v107h378v-122c-9.33301 -48.667 -29.333 -93.667 -60 -135s-70.167 -74.5 -118.5 -99.5s-102.5 -37.5 -162.5 -37.5c-67.333 0 -128.166 15.167 -182.499 45.5s-97 72.5 -128 126.5s-46.5 115.333 -46.5 184
s15.5 130.167 46.5 184.5s73.667 96.666 128 126.999s114.833 45.5 181.5 45.5c78.667 0 147 -19.167 205 -57.5s98 -92.166 120 -161.499h-161zM456.999 -150.996c0 -44 -10.668 -78 -32.001 -102s-52.666 -36 -93.999 -36v57c33.333 0 50 20.667 50 62v18h-57v109h116
c11.333 -41.333 17 -77.333 17 -108z" />
    <glyph glyph-name="uni0123" unicode="&#x123;" horiz-adv-x="678" 
d="M272 705c0 44 10.5 78 31.5 102s52.167 36 93.5 36v-57c-33.333 0 -50 -20.333 -50 -61v-18h57v-110h-116c-10.667 38.667 -16 74.667 -16 108zM395 538.5c31.333 -16.333 56.0059 -37.5 74.0059 -63.5v79h141v-558c0 -51.333 -10.333 -97.166 -31 -137.499
s-51.667 -72.333 -93 -96s-91.333 -35.5 -150 -35.5c-78.667 0 -143.167 18.333 -193.5 55s-78.833 86.667 -85.5 150h139c7.33301 -25.333 23.166 -45.5 47.499 -60.5s53.833 -22.5 88.5 -22.5c40.667 0 73.667 12.167 99 36.5s38 61.166 38 110.499v86
c-18 -26 -42.833 -47.667 -74.5 -65s-67.834 -26 -108.501 -26c-46.667 0 -89.334 12 -128.001 36s-69.167 57.833 -91.5 101.5s-33.5 93.834 -33.5 150.501c0 56 11.167 105.667 33.5 149s52.666 76.666 90.999 99.999s81.166 35 128.499 35
c41.333 0 77.666 -8.16699 108.999 -24.5zM449.006 364.5c-13.333 24.333 -31.332 42.999 -53.999 55.999s-47 19.5 -73 19.5s-50 -6.33301 -72 -19s-39.833 -31.167 -53.5 -55.5s-20.5 -53.166 -20.5 -86.499s6.83301 -62.5 20.5 -87.5s31.667 -44.167 54 -57.5
s46.166 -20 71.499 -20c26 0 50.333 6.5 73 19.5s40.667 31.667 54 56s20 53.5 20 87.5s-6.66699 63.167 -20 87.5z" />
    <glyph glyph-name="Itilde" unicode="&#x128;" horiz-adv-x="278" 
d="M209 698v-698h-140v698h140zM0.5 850.5c21.667 21.667 49.168 32.5 82.501 32.5c14 0 26.333 -2.16699 37 -6.5s22.667 -10.5 36 -18.5c20 -12.667 36.667 -19 50 -19c24.667 0 39 14.333 43 43h75c-6 -44 -19.833 -76.833 -41.5 -98.5s-49.167 -32.5 -82.5 -32.5
c-14 0 -26.333 2.16699 -37 6.5s-22.667 10.5 -36 18.5c-19.333 13.333 -36 20 -50 20c-24.667 0 -39.334 -14.667 -44.001 -44h-74c6 44 19.833 76.833 41.5 98.5z" />
    <glyph glyph-name="itilde" unicode="&#x129;" horiz-adv-x="290" 
d="M215 554v-554h-140v554h140zM7.5 705.5c21.667 21.667 49.168 32.5 82.501 32.5c14 0 26.333 -2.16699 37 -6.5s22.667 -10.5 36 -18.5c20 -12.667 36.667 -19 50 -19c24.667 0 39 14.333 43 43h75c-6 -44 -19.833 -76.833 -41.5 -98.5s-49.167 -32.5 -82.5 -32.5
c-14 0 -26.333 2.16699 -37 6.5s-22.667 10.5 -36 18.5c-19.333 13.333 -36 20 -50 20c-24.667 0 -39.334 -14.667 -44.001 -44h-74c6 44 19.833 76.833 41.5 98.5z" />
    <glyph glyph-name="Imacron" unicode="&#x12a;" horiz-adv-x="278" 
d="M209 698v-698h-140v698h140zM331 877v-100h-382v100h382z" />
    <glyph glyph-name="imacron" unicode="&#x12b;" horiz-adv-x="290" 
d="M215 554v-554h-140v554h140zM337 732v-100h-382v100h382z" />
    <glyph glyph-name="uni012C" unicode="&#x12c;" horiz-adv-x="278" 
d="M209 698v-698h-140v698h140zM256 784c-28.667 -27.333 -67.667 -41 -117 -41c-48 0 -86.5 13.833 -115.5 41.5s-43.5 65.5 -43.5 113.5v20h74c0 -22.667 6.33301 -39.834 19 -51.501s34.667 -17.5 66 -17.5s53.333 5.83301 66 17.5s19 28.834 19 51.501h75v-21
c0 -48 -14.333 -85.667 -43 -113z" />
    <glyph glyph-name="uni012D" unicode="&#x12d;" horiz-adv-x="290" 
d="M215 554v-554h-140v554h140zM262 639c-28.667 -27.333 -67.667 -41 -117 -41c-48 0 -86.5 13.833 -115.5 41.5s-43.5 65.5 -43.5 113.5v20h74c0 -22.667 6.33301 -39.834 19 -51.501s34.667 -17.5 66 -17.5s53.333 5.83301 66 17.5s19 28.834 19 51.501h75v-21
c0 -48 -14.333 -85.667 -43 -113z" />
    <glyph glyph-name="Iogonek" unicode="&#x12e;" horiz-adv-x="278" 
d="M221 -114l0.000976562 -84c-28.667 -10 -58.334 -15 -89.001 -15c-39.333 0 -72.5 9.16699 -99.5 27.5s-40.5 46.166 -40.5 83.499c0 22 6 42.5 18 61.5s31.667 37.5 59 55.5v683h140v-698h-2l-45 -23c-22.667 -11.333 -38.667 -22.166 -48 -32.499s-14 -21.5 -14 -33.5
s4.5 -21.667 13.5 -29s21.167 -11 36.5 -11c21.333 0 45 5 71 15z" />
    <glyph glyph-name="iogonek" unicode="&#x12f;" horiz-adv-x="278" 
d="M78.5 643.5c-16.333 15.667 -24.5 35.167 -24.5 58.5s8.16699 42.833 24.5 58.5s36.833 23.5 61.5 23.5s45.167 -7.83301 61.5 -23.5s24.5 -35.167 24.5 -58.5s-8.16699 -42.833 -24.5 -58.5s-36.833 -23.5 -61.5 -23.5s-45.167 7.83301 -61.5 23.5zM113.5 -118
c9 -7.33301 21.168 -11 36.501 -11c21.333 0 45 5 71 15v-84c-28.667 -10 -58.334 -15 -89.001 -15c-39.333 0 -72.5 9.16699 -99.5 27.5s-40.5 46.166 -40.5 83.499c0 22 6 42.5 18 61.5s31.667 37.5 59 55.5v539h140v-554h-2l-45 -23
c-22.667 -11.333 -38.667 -22.166 -48 -32.499s-14 -21.5 -14 -33.5s4.5 -21.667 13.5 -29z" />
    <glyph glyph-name="Idotaccent" unicode="&#x130;" horiz-adv-x="278" 
d="M209 698v-698h-140v698h140zM92 784c-12.667 12.667 -19 28.334 -19 47.001s6.33301 34.5 19 47.5s28.334 19.5 47.001 19.5s34.5 -6.5 47.5 -19.5s19.5 -28.833 19.5 -47.5s-6.5 -34.334 -19.5 -47.001s-28.833 -19 -47.5 -19s-34.334 6.33301 -47.001 19z" />
    <glyph glyph-name="dotlessi" unicode="&#x131;" horiz-adv-x="290" 
d="M215 554v-554h-140v554h140z" />
    <glyph glyph-name="uni0136" unicode="&#x136;" horiz-adv-x="673" 
d="M640 0h-177l-254 311v-311h-140v698h140v-313l254 313h169l-288 -346zM392 -43c11.333 -38 17 -74 17 -108c0 -44 -10.667 -78 -32 -102s-52.333 -36 -93 -36v57c33.333 0 50 20.667 50 62v18h-58v109h116z" />
    <glyph glyph-name="uni0137" unicode="&#x137;" horiz-adv-x="584" 
d="M579 0h-182l-188 236v-236h-140v740h140v-421l186 235h182l-244 -278zM349 -43c10.667 -38.667 16 -74.667 16 -108c0 -44 -10.667 -78 -32 -102s-52.333 -36 -93 -36v57c33.333 0 50 20.667 50 62v18h-57v109h116z" />
    <glyph glyph-name="Lacute" unicode="&#x139;" horiz-adv-x="459" 
d="M209 111h230v-111h-370v698h140v-587zM333 843l-230 -105v100l230 119v-114z" />
    <glyph glyph-name="lacute" unicode="&#x13a;" horiz-adv-x="278" 
d="M209 740v-740h-140v740h140zM248 884l-230 -105v100l230 119v-114z" />
    <glyph glyph-name="uni013B" unicode="&#x13b;" horiz-adv-x="460" 
d="M209 111h230v-111h-370v698h140v-587zM330 -151c0 -44 -10.499 -78 -31.499 -102s-52.5 -36 -94.5 -36v57c17.333 0 30.166 5 38.499 15s12.5 25.667 12.5 47v18h-58v109h116c11.333 -38 17 -74 17 -108z" />
    <glyph glyph-name="uni013C" unicode="&#x13c;" horiz-adv-x="278" 
d="M209 740v-740h-140v740h140zM213 -151c0 -44 -10.668 -78 -32.001 -102s-52.666 -36 -93.999 -36v57c34 0 51 20.667 51 62v18h-58v109h116c11.333 -41.333 17 -77.333 17 -108z" />
    <glyph glyph-name="Lcaron" unicode="&#x13d;" horiz-adv-x="491" 
d="M209 111h230v-111h-370v698h140v-587zM447 591c0 -44 -10.5 -77.999 -31.5 -101.999s-51.833 -36 -92.5 -36v57c32.667 0 49 20.333 49 61v19h-57v108h116c10.667 -34.667 16 -70.334 16 -107.001z" />
    <glyph glyph-name="lcaron" unicode="&#x13e;" horiz-adv-x="449" 
d="M209 740v-740h-140v740h140zM414 632c0 -44 -10.5 -77.833 -31.5 -101.5s-52.167 -35.5 -93.5 -35.5v57c33.333 0 50 20 50 60v19h-58v109h116c11.333 -36.667 17 -72.667 17 -108z" />
    <glyph glyph-name="Ldot" unicode="&#x13f;" horiz-adv-x="459" 
d="M69 698h140v-587h230v-111h-370v698zM320 337c-12.667 12.667 -19 28.334 -19 47.001s6.33301 34.5 19 47.5s28.334 19.5 47.001 19.5s34.5 -6.5 47.5 -19.5s19.5 -28.833 19.5 -47.5s-6.5 -34.334 -19.5 -47.001s-28.833 -19 -47.5 -19s-34.334 6.33301 -47.001 19z" />
    <glyph glyph-name="ldot" unicode="&#x140;" horiz-adv-x="345" 
d="M69 740h140v-740h-140v740zM263.5 317c-13 12.667 -19.5 28.334 -19.5 47.001s6.5 34.5 19.5 47.5s28.833 19.5 47.5 19.5s34.334 -6.5 47.001 -19.5s19 -28.833 19 -47.5s-6.33301 -34.334 -19 -47.001s-28.334 -19 -47.001 -19s-34.5 6.33301 -47.5 19z" />
    <glyph glyph-name="Lslash" unicode="&#x141;" horiz-adv-x="463" 
d="M451 107v-107h-370v283l-72 -22v113l72 22v302h141v-257l88 27v-114l-88 -27v-220h229z" />
    <glyph glyph-name="lslash" unicode="&#x142;" horiz-adv-x="290" 
d="M282 353l-67 -22v-331h-140v286l-66 -21v115l66 21v339h140v-294l67 21v-114z" />
    <glyph glyph-name="Nacute" unicode="&#x143;" horiz-adv-x="735" 
d="M666 0h-140l-317 479v-479h-140v699h140l317 -480v480h140v-699zM477 843l-230 -105v100l230 119v-114z" />
    <glyph glyph-name="nacute" unicode="&#x144;" horiz-adv-x="661" 
d="M536 499.5c40.667 -41.667 61 -99.833 61 -174.5v-325h-140v306c0 44 -11 77.833 -33 101.5s-52 35.5 -90 35.5c-38.667 0 -69.167 -11.833 -91.5 -35.5s-33.5 -57.5 -33.5 -101.5v-306h-140v554h140v-69c18.667 24 42.5 42.833 71.5 56.5s60.833 20.5 95.5 20.5
c66 0 119.333 -20.833 160 -62.5zM456 698.001l-230 -105v100l230 119v-114z" />
    <glyph glyph-name="uni0145" unicode="&#x145;" horiz-adv-x="747" 
d="M666 0h-140l-317 479v-479h-140v699h140l317 -480v480h140v-699zM446 -151c0 -44 -10.5 -78 -31.5 -102s-52.167 -36 -93.5 -36v57c33.333 0 50 20.667 50 62v18h-58v109h116c11.333 -38 17 -74 17 -108z" />
    <glyph glyph-name="uni0146" unicode="&#x146;" horiz-adv-x="661" 
d="M536 499.5c40.667 -41.667 61 -99.833 61 -174.5v-325h-140v306c0 44 -11 77.833 -33 101.5s-52 35.5 -90 35.5c-38.667 0 -69.167 -11.833 -91.5 -35.5s-33.5 -57.5 -33.5 -101.5v-306h-140v554h140v-69c18.667 24 42.5 42.833 71.5 56.5s60.833 20.5 95.5 20.5
c66 0 119.333 -20.833 160 -62.5zM392 -42.999c10.667 -35.333 16 -71.333 16 -108c0 -44 -10.5 -78 -31.5 -102s-51.833 -36 -92.5 -36v57c32.667 0 49 20.667 49 62v18h-57v109h116z" />
    <glyph glyph-name="Ncaron" unicode="&#x147;" horiz-adv-x="735" 
d="M666 0h-140l-317 479v-479h-140v699h140l317 -480v480h140v-699zM516 819l-148 -81l-149 81v102l149 -86l148 86v-102z" />
    <glyph glyph-name="ncaron" unicode="&#x148;" horiz-adv-x="661" 
d="M536 499.5c40.667 -41.667 61 -99.833 61 -174.5v-325h-140v306c0 44 -11 77.833 -33 101.5s-52 35.5 -90 35.5c-38.667 0 -69.167 -11.833 -91.5 -35.5s-33.5 -57.5 -33.5 -101.5v-306h-140v554h140v-69c18.667 24 42.5 42.833 71.5 56.5s60.833 20.5 95.5 20.5
c66 0 119.333 -20.833 160 -62.5zM495 674.001l-148 -81l-149 81v102l149 -86l148 86v-102z" />
    <glyph glyph-name="Omacron" unicode="&#x14c;" horiz-adv-x="785" 
d="M213 39c-54.667 30.667 -97.999 73.167 -129.999 127.5s-48 115.833 -48 184.5c0 68 16 129.167 48 183.5s75.333 96.833 130 127.5s114.667 46 180 46c66 0 126.167 -15.333 180.5 -46s97.333 -73.167 129 -127.5s47.5 -115.5 47.5 -183.5
c0 -68.667 -15.833 -130.167 -47.5 -184.5s-74.834 -96.833 -129.501 -127.5s-114.667 -46 -180 -46s-125.333 15.333 -180 46zM504.001 146.5c32 19 57 46.167 75 81.5s27 76.333 27 123s-9 87.5 -27 122.5s-43 61.833 -75 80.5s-69 28 -111 28
s-79.167 -9.33301 -111.5 -28s-57.5 -45.5 -75.5 -80.5s-27 -75.833 -27 -122.5s9 -87.667 27 -123s43.167 -62.5 75.5 -81.5s69.5 -28.5 111.5 -28.5s79 9.5 111 28.5zM584.001 877v-100h-382v100h382z" />
    <glyph glyph-name="omacron" unicode="&#x14d;" horiz-adv-x="638" 
d="M171 26.5c-42.667 23.667 -76.1641 57.167 -100.497 100.5s-36.5 93.333 -36.5 150s12.5 106.667 37.5 150s59.167 76.833 102.5 100.5s91.666 35.5 144.999 35.5s101.666 -11.833 144.999 -35.5s77.5 -57.167 102.5 -100.5s37.5 -93.333 37.5 -150
s-12.833 -106.667 -38.5 -150s-60.334 -76.833 -104.001 -100.5s-92.5 -35.5 -146.5 -35.5c-53.333 0 -101.333 11.833 -144 35.5zM386.503 131.5c22.333 12.333 40.168 30.833 53.501 55.5s20 54.667 20 90c0 52.667 -13.833 93.167 -41.5 121.5s-61.5 42.5 -101.5 42.5
s-73.5 -14.167 -100.5 -42.5s-40.5 -68.833 -40.5 -121.5s13.167 -93.167 39.5 -121.5s59.5 -42.5 99.5 -42.5c25.333 0 49.166 6.16699 71.499 18.5zM516.005 739v-100h-382v100h382z" />
    <glyph glyph-name="uni014E" unicode="&#x14e;" horiz-adv-x="785" 
d="M213 39c-54.667 30.667 -97.999 73.167 -129.999 127.5s-48 115.833 -48 184.5c0 68 16 129.167 48 183.5s75.333 96.833 130 127.5s114.667 46 180 46c66 0 126.167 -15.333 180.5 -46s97.333 -73.167 129 -127.5s47.5 -115.5 47.5 -183.5
c0 -68.667 -15.833 -130.167 -47.5 -184.5s-74.834 -96.833 -129.501 -127.5s-114.667 -46 -180 -46s-125.333 15.333 -180 46zM504.001 146.5c32 19 57 46.167 75 81.5s27 76.333 27 123s-9 87.5 -27 122.5s-43 61.833 -75 80.5s-69 28 -111 28
s-79.167 -9.33301 -111.5 -28s-57.5 -45.5 -75.5 -80.5s-27 -75.833 -27 -122.5s9 -87.667 27 -123s43.167 -62.5 75.5 -81.5s69.5 -28.5 111.5 -28.5s79 9.5 111 28.5zM509.001 784c-28.667 -27.333 -67.667 -41 -117 -41c-48 0 -86.5 13.833 -115.5 41.5
s-43.5 65.5 -43.5 113.5v20h74c0 -22.667 6.33301 -39.834 19 -51.501s34.667 -17.5 66 -17.5s53.333 5.83301 66 17.5s19 28.834 19 51.501h75v-21c0 -48 -14.333 -85.667 -43 -113z" />
    <glyph glyph-name="uni014F" unicode="&#x14f;" horiz-adv-x="638" 
d="M171 26.5c-42.667 23.667 -76.1641 57.167 -100.497 100.5s-36.5 93.333 -36.5 150s12.5 106.667 37.5 150s59.167 76.833 102.5 100.5s91.666 35.5 144.999 35.5s101.666 -11.833 144.999 -35.5s77.5 -57.167 102.5 -100.5s37.5 -93.333 37.5 -150
s-12.833 -106.667 -38.5 -150s-60.334 -76.833 -104.001 -100.5s-92.5 -35.5 -146.5 -35.5c-53.333 0 -101.333 11.833 -144 35.5zM386.503 131.5c22.333 12.333 40.168 30.833 53.501 55.5s20 54.667 20 90c0 52.667 -13.833 93.167 -41.5 121.5s-61.5 42.5 -101.5 42.5
s-73.5 -14.167 -100.5 -42.5s-40.5 -68.833 -40.5 -121.5s13.167 -93.167 39.5 -121.5s59.5 -42.5 99.5 -42.5c25.333 0 49.166 6.16699 71.499 18.5zM442.005 646c-28.667 -27.333 -67.667 -41 -117 -41c-48 0 -86.5 13.833 -115.5 41.5s-43.5 65.5 -43.5 113.5v20h74
c0 -22.667 6.33301 -39.834 19 -51.501s34.667 -17.5 66 -17.5s53.333 5.83301 66 17.5s19 28.834 19 51.501h75v-21c0 -48 -14.333 -85.667 -43 -113z" />
    <glyph glyph-name="Ohungarumlaut" unicode="&#x150;" horiz-adv-x="785" 
d="M213 39c-54.667 30.667 -97.999 73.167 -129.999 127.5s-48 115.833 -48 184.5c0 68 16 129.167 48 183.5s75.333 96.833 130 127.5s114.667 46 180 46c66 0 126.167 -15.333 180.5 -46s97.333 -73.167 129 -127.5s47.5 -115.5 47.5 -183.5
c0 -68.667 -15.833 -130.167 -47.5 -184.5s-74.834 -96.833 -129.501 -127.5s-114.667 -46 -180 -46s-125.333 15.333 -180 46zM504.001 146.5c32 19 57 46.167 75 81.5s27 76.333 27 123s-9 87.5 -27 122.5s-43 61.833 -75 80.5s-69 28 -111 28
s-79.167 -9.33301 -111.5 -28s-57.5 -45.5 -75.5 -80.5s-27 -75.833 -27 -122.5s9 -87.667 27 -123s43.167 -62.5 75.5 -81.5s69.5 -28.5 111.5 -28.5s79 9.5 111 28.5zM337.001 746h-88l72 188h116zM513.001 746h-89l82 188h116z" />
    <glyph glyph-name="ohungarumlaut" unicode="&#x151;" horiz-adv-x="638" 
d="M171 26.5c-42.667 23.667 -76.1641 57.167 -100.497 100.5s-36.5 93.333 -36.5 150s12.5 106.667 37.5 150s59.167 76.833 102.5 100.5s91.666 35.5 144.999 35.5s101.666 -11.833 144.999 -35.5s77.5 -57.167 102.5 -100.5s37.5 -93.333 37.5 -150
s-12.833 -106.667 -38.5 -150s-60.334 -76.833 -104.001 -100.5s-92.5 -35.5 -146.5 -35.5c-53.333 0 -101.333 11.833 -144 35.5zM386.503 131.5c22.333 12.333 40.168 30.833 53.501 55.5s20 54.667 20 90c0 52.667 -13.833 93.167 -41.5 121.5s-61.5 42.5 -101.5 42.5
s-73.5 -14.167 -100.5 -42.5s-40.5 -68.833 -40.5 -121.5s13.167 -93.167 39.5 -121.5s59.5 -42.5 99.5 -42.5c25.333 0 49.166 6.16699 71.499 18.5zM269.005 608h-88l72 188h116zM445.005 608h-89l82 188h116z" />
    <glyph glyph-name="OE" unicode="&#x152;" horiz-adv-x="1072" 
d="M749 407l235 0.000976562v-107h-235v-189h265v-111h-405v93c-53.333 -66 -129 -99.667 -227 -101c-63.333 0 -121.5 15.333 -174.5 46s-95 73.167 -126 127.5s-46.5 115.833 -46.5 184.5s15.5 130.167 46.5 184.5s73 96.833 126 127.5s110.833 46 173.5 46
c47.333 0 90.333 -8.33301 129 -25s71.667 -41.334 99 -74.001v89h405v-110h-265v-181zM206 229.001c18 -34.667 43.167 -61.5 75.5 -80.5s69.5 -28.5 111.5 -28.5s79 9.5 111 28.5s57 45.833 75 80.5s27 75 27 121s-9 86.333 -27 121s-43 61.334 -75 80.001s-69 28 -111 28
s-79.167 -9.33301 -111.5 -28s-57.5 -45.334 -75.5 -80.001s-27 -75 -27 -121s9 -86.333 27 -121z" />
    <glyph glyph-name="oe" unicode="&#x153;" horiz-adv-x="1052" 
d="M1009 238l-405.003 -0.000976562c2.66699 -42 15.834 -74.333 39.501 -97s53.834 -34 90.501 -34c52 0 89 22.333 111 67h151c-16 -53.333 -46.833 -97.166 -92.5 -131.499s-101.5 -51.5 -167.5 -51.5c-43.333 0 -82.5 8.83301 -117.5 26.5s-64.5 42.834 -88.5 75.501
c-24.667 -32.667 -55.834 -57.834 -93.501 -75.501s-78.167 -26.5 -121.5 -26.5c-53.333 0 -101.5 11.833 -144.5 35.5s-76.667 57.167 -101 100.5s-36.5 93.333 -36.5 150s12.5 106.667 37.5 150s59.333 76.833 103 100.5s92.167 35.5 145.5 35.5
c42.667 0 82.334 -8.66699 119.001 -26s67.667 -42 93 -74c23.333 32 53 56.667 89 74s76 26 120 26c52.667 0 99.834 -11.333 141.501 -34s74 -54.667 97 -96s34.5 -89 34.5 -143c0 -18.667 -1.33301 -36 -4 -52zM867.997 319.999c-0.666992 39.333 -13.5 70.5 -38.5 93.5
s-56.167 34.5 -93.5 34.5c-35.333 0 -65 -11.333 -89 -34s-38 -54 -42 -94h263zM386.497 129.999c22.333 12.667 40.168 31.5 53.501 56.5s20 55.167 20 90.5s-6.66699 65.5 -20 90.5s-30.833 43.833 -52.5 56.5s-45.5 19 -71.5 19c-25.333 0 -48.5 -6.33301 -69.5 -19
s-38 -31.5 -51 -56.5s-19.5 -55.167 -19.5 -90.5c0 -52.667 13.333 -93.5 40 -122.5s59.667 -43.5 99 -43.5c25.333 0 49.166 6.33301 71.499 19z" />
    <glyph glyph-name="Racute" unicode="&#x154;" horiz-adv-x="641" 
d="M429 0l-153.999 272h-66v-272h-140v698h262c54 0 100 -9.5 138 -28.5s66.5 -44.667 85.5 -77s28.5 -68.5 28.5 -108.5c0 -46 -13.333 -87.5 -40 -124.5s-66.334 -62.5 -119.001 -76.5l167 -283h-162zM209.001 377h117c38 0 66.333 9.16699 85 27.5s28 43.833 28 76.5
c0 32 -9.33301 56.833 -28 74.5s-47 26.5 -85 26.5h-117v-205zM427.001 843l-230 -105v100l230 119v-114z" />
    <glyph glyph-name="racute" unicode="&#x155;" horiz-adv-x="404" 
d="M279.5 537c29 16.667 62.167 25 99.5 25v-147h-37c-44 0 -77.167 -10.333 -99.5 -31s-33.5 -56.667 -33.5 -108v-276h-140v554h140v-86c18 29.333 41.5 52.333 70.5 69zM358 698l-230 -105v100l230 119v-114z" />
    <glyph glyph-name="uni0156" unicode="&#x156;" horiz-adv-x="649" 
d="M591 0h-161.999l-154 272h-66v-272h-140v698h262c54 0 100 -9.5 138 -28.5s66.5 -44.667 85.5 -77s28.5 -68.5 28.5 -108.5c0 -46 -13.333 -87.5 -40 -124.5s-66.334 -62.5 -119.001 -76.5zM209.001 377h117c38 0 66.333 9.16699 85 27.5s28 43.833 28 76.5
c0 32 -9.33301 56.833 -28 74.5s-47 26.5 -85 26.5h-117v-205zM380.001 -43c10.667 -38.667 16 -74.667 16 -108c0 -44 -10.5 -78 -31.5 -102s-52.167 -36 -93.5 -36v57c33.333 0 50 20.667 50 62v18h-57v109h116z" />
    <glyph glyph-name="uni0157" unicode="&#x157;" horiz-adv-x="404" 
d="M279.5 537c29 16.667 62.167 25 99.5 25v-147h-37c-44 0 -77.167 -10.333 -99.5 -31s-33.5 -56.667 -33.5 -108v-276h-140v554h140v-86c18 29.333 41.5 52.333 70.5 69zM194 -43c10.667 -35.333 16 -71.333 16 -108c0 -44 -10.5 -78 -31.5 -102s-51.833 -36 -92.5 -36v57
c32.667 0 49 20.667 49 62v18h-57v109h116z" />
    <glyph glyph-name="Rcaron" unicode="&#x158;" horiz-adv-x="641" 
d="M429 0l-153.999 272h-66v-272h-140v698h262c54 0 100 -9.5 138 -28.5s66.5 -44.667 85.5 -77s28.5 -68.5 28.5 -108.5c0 -46 -13.333 -87.5 -40 -124.5s-66.334 -62.5 -119.001 -76.5l167 -283h-162zM209.001 377h117c38 0 66.333 9.16699 85 27.5s28 43.833 28 76.5
c0 32 -9.33301 56.833 -28 74.5s-47 26.5 -85 26.5h-117v-205zM467.001 819l-148 -81l-149 81v102l149 -86l148 86v-102z" />
    <glyph glyph-name="rcaron" unicode="&#x159;" horiz-adv-x="404" 
d="M279.5 537c29 16.667 62.167 25 99.5 25v-147h-37c-44 0 -77.167 -10.333 -99.5 -31s-33.5 -56.667 -33.5 -108v-276h-140v554h140v-86c18 29.333 41.5 52.333 70.5 69zM398 674l-148 -81l-149 81v102l149 -86l148 86v-102z" />
    <glyph glyph-name="Sacute" unicode="&#x15a;" horiz-adv-x="609" 
d="M178.5 18c-39 16.667 -69.8369 40.667 -92.5039 72s-34.334 68.333 -35.001 111h150c2 -28.667 12.167 -51.334 30.5 -68.001s43.5 -25 75.5 -25c32.667 0 58.334 7.83301 77.001 23.5s28 36.167 28 61.5c0 20.667 -6.33301 37.667 -19 51s-28.5 23.833 -47.5 31.5
s-45.167 16.167 -78.5 25.5c-45.333 13.333 -82.166 26.5 -110.499 39.5s-52.666 32.667 -72.999 59s-30.5 61.5 -30.5 105.5c0 41.333 10.333 77.333 31 108s49.667 54.167 87 70.5s80 24.5 128 24.5c72 0 130.5 -17.5 175.5 -52.5s69.833 -83.833 74.5 -146.5h-154
c-1.33301 24 -11.5 43.833 -30.5 59.5s-44.167 23.5 -75.5 23.5c-27.333 0 -49.166 -7 -65.499 -21s-24.5 -34.333 -24.5 -61c0 -18.667 6.16699 -34.167 18.5 -46.5s27.666 -22.333 45.999 -30s44.166 -16.5 77.499 -26.5c45.333 -13.333 82.333 -26.666 111 -39.999
s53.334 -33.333 74.001 -60s31 -61.667 31 -105c0 -37.333 -9.66699 -72 -29 -104s-47.666 -57.5 -84.999 -76.5s-81.666 -28.5 -132.999 -28.5c-48.667 0 -92.5 8.33301 -131.5 25zM410.996 850l-230 -105v100l230 119v-114z" />
    <glyph glyph-name="sacute" unicode="&#x15b;" horiz-adv-x="545" 
d="M159 15.5c-36 16.333 -64.501 38.499 -85.501 66.499s-32.5 59 -34.5 93h141c2.66699 -21.333 13.167 -39 31.5 -53s41.166 -21 68.499 -21c26.667 0 47.5 5.33301 62.5 16s22.5 24.334 22.5 41.001c0 18 -9.16699 31.5 -27.5 40.5s-47.5 18.833 -87.5 29.5
c-41.333 10 -75.166 20.333 -101.499 31s-49 27 -68 49s-28.5 51.667 -28.5 89c0 30.667 8.83301 58.667 26.5 84s43 45.333 76 60s71.833 22 116.5 22c66 0 118.667 -16.5 158 -49.5s61 -77.5 65 -133.5h-134c-2 22 -11.167 39.5 -27.5 52.5s-38.166 19.5 -65.499 19.5
c-25.333 0 -44.833 -4.66699 -58.5 -14s-20.5 -22.333 -20.5 -39c0 -18.667 9.33301 -32.834 28 -42.501s47.667 -19.5 87 -29.5c40 -10 73 -20.333 99 -31s48.5 -27.167 67.5 -49.5s28.833 -51.833 29.5 -88.5c0 -32 -8.83301 -60.667 -26.5 -86s-43 -45.166 -76 -59.499
s-71.5 -21.5 -115.5 -21.5c-45.333 0 -86 8.16699 -122 24.5zM383.999 704.999l-230 -105v100l230 119v-114z" />
    <glyph glyph-name="uni015E" unicode="&#x15e;" horiz-adv-x="609" 
d="M533.5 108c-15.667 -29.333 -38.6699 -54.001 -69.0029 -74.001s-66.5 -32.667 -108.5 -38v-46c36.667 0 67.5 -9.33301 92.5 -28s37.5 -45.667 37.5 -81c0 -36 -12.833 -63.667 -38.5 -83s-57.167 -29 -94.5 -29h-142v82h119c16 0 28.167 2.33301 36.5 7
s12.5 13 12.5 25s-4.16699 20.167 -12.5 24.5s-20.5 6.5 -36.5 6.5h-62v121c-64 7.33301 -116 29 -156 65s-60.333 83 -61 141h150c2 -28.667 12.167 -51.334 30.5 -68.001s43.5 -25 75.5 -25c32.667 0 58.334 7.83301 77.001 23.5s28 36.167 28 61.5
c0 20.667 -6.33301 37.667 -19 51s-28.5 23.833 -47.5 31.5s-45.167 16.167 -78.5 25.5c-45.333 13.333 -82.166 26.5 -110.499 39.5s-52.666 32.667 -72.999 59s-30.5 61.5 -30.5 105.5c0 41.333 10.333 77.333 31 108s49.667 54.167 87 70.5s80 24.5 128 24.5
c72 0 130.5 -17.5 175.5 -52.5s69.833 -83.833 74.5 -146.5h-154c-1.33301 24 -11.5 43.833 -30.5 59.5s-44.167 23.5 -75.5 23.5c-27.333 0 -49.166 -7 -65.499 -21s-24.5 -34.333 -24.5 -61c0 -18.667 6.16699 -34.167 18.5 -46.5s27.666 -22.333 45.999 -30
s44.166 -16.5 77.499 -26.5c45.333 -13.333 82.333 -26.666 111 -39.999s53.334 -33.333 74.001 -60s31 -61.667 31 -105c0 -33.333 -7.83301 -64.666 -23.5 -93.999z" />
    <glyph glyph-name="uni015F" unicode="&#x15f;" horiz-adv-x="545" 
d="M417.5 -73c25 -18.667 37.499 -45.666 37.499 -80.999c0 -36 -12.833 -63.667 -38.5 -83s-57.167 -29 -94.5 -29h-142v82h119c16 0 28.167 2.33301 36.5 7s12.5 13 12.5 25s-4.16699 20.167 -12.5 24.5s-20.5 6.5 -36.5 6.5h-62v115
c-57.333 7.33301 -104 27.666 -140 60.999s-55.333 73.333 -58 120h141c2.66699 -21.333 13.167 -39 31.5 -53s41.166 -21 68.499 -21c26.667 0 47.5 5.33301 62.5 16s22.5 24.334 22.5 41.001c0 18 -9.16699 31.5 -27.5 40.5s-47.5 18.833 -87.5 29.5
c-41.333 10 -75.166 20.333 -101.499 31s-49 27 -68 49s-28.5 51.667 -28.5 89c0 30.667 8.83301 58.667 26.5 84s43 45.333 76 60s71.833 22 116.5 22c66 0 118.667 -16.5 158 -49.5s61 -77.5 65 -133.5h-134c-2 22 -11.167 39.5 -27.5 52.5s-38.166 19.5 -65.499 19.5
c-25.333 0 -44.833 -4.66699 -58.5 -14s-20.5 -22.333 -20.5 -39c0 -18.667 9.33301 -32.834 28 -42.501s47.667 -19.5 87 -29.5c40 -10 73 -20.333 99 -31s48.5 -27.167 67.5 -49.5s28.833 -51.833 29.5 -88.5c0 -42.667 -15.5 -79 -46.5 -109s-73.5 -48.333 -127.5 -55
v-39c36.667 0 67.5 -9.33301 92.5 -28z" />
    <glyph glyph-name="Scaron" unicode="&#x160;" horiz-adv-x="609" 
d="M178.5 18c-39 16.667 -69.8369 40.667 -92.5039 72s-34.334 68.333 -35.001 111h150c2 -28.667 12.167 -51.334 30.5 -68.001s43.5 -25 75.5 -25c32.667 0 58.334 7.83301 77.001 23.5s28 36.167 28 61.5c0 20.667 -6.33301 37.667 -19 51s-28.5 23.833 -47.5 31.5
s-45.167 16.167 -78.5 25.5c-45.333 13.333 -82.166 26.5 -110.499 39.5s-52.666 32.667 -72.999 59s-30.5 61.5 -30.5 105.5c0 41.333 10.333 77.333 31 108s49.667 54.167 87 70.5s80 24.5 128 24.5c72 0 130.5 -17.5 175.5 -52.5s69.833 -83.833 74.5 -146.5h-154
c-1.33301 24 -11.5 43.833 -30.5 59.5s-44.167 23.5 -75.5 23.5c-27.333 0 -49.166 -7 -65.499 -21s-24.5 -34.333 -24.5 -61c0 -18.667 6.16699 -34.167 18.5 -46.5s27.666 -22.333 45.999 -30s44.166 -16.5 77.499 -26.5c45.333 -13.333 82.333 -26.666 111 -39.999
s53.334 -33.333 74.001 -60s31 -61.667 31 -105c0 -37.333 -9.66699 -72 -29 -104s-47.666 -57.5 -84.999 -76.5s-81.666 -28.5 -132.999 -28.5c-48.667 0 -92.5 8.33301 -131.5 25zM450.996 826l-148 -81l-149 81v102l149 -86l148 86v-102z" />
    <glyph glyph-name="scaron" unicode="&#x161;" horiz-adv-x="545" 
d="M159 15.5c-36 16.333 -64.501 38.499 -85.501 66.499s-32.5 59 -34.5 93h141c2.66699 -21.333 13.167 -39 31.5 -53s41.166 -21 68.499 -21c26.667 0 47.5 5.33301 62.5 16s22.5 24.334 22.5 41.001c0 18 -9.16699 31.5 -27.5 40.5s-47.5 18.833 -87.5 29.5
c-41.333 10 -75.166 20.333 -101.499 31s-49 27 -68 49s-28.5 51.667 -28.5 89c0 30.667 8.83301 58.667 26.5 84s43 45.333 76 60s71.833 22 116.5 22c66 0 118.667 -16.5 158 -49.5s61 -77.5 65 -133.5h-134c-2 22 -11.167 39.5 -27.5 52.5s-38.166 19.5 -65.499 19.5
c-25.333 0 -44.833 -4.66699 -58.5 -14s-20.5 -22.333 -20.5 -39c0 -18.667 9.33301 -32.834 28 -42.501s47.667 -19.5 87 -29.5c40 -10 73 -20.333 99 -31s48.5 -27.167 67.5 -49.5s28.833 -51.833 29.5 -88.5c0 -32 -8.83301 -60.667 -26.5 -86s-43 -45.166 -76 -59.499
s-71.5 -21.5 -115.5 -21.5c-45.333 0 -86 8.16699 -122 24.5zM422.999 680.999l-148 -81l-149 81v102l149 -86l148 86v-102z" />
    <glyph glyph-name="uni0162" unicode="&#x162;" horiz-adv-x="577" 
d="M335 0v-45c36.667 0 67.5 -9.33301 92.5 -28s37.5 -45.667 37.5 -81c0 -36 -12.833 -63.667 -38.5 -83s-57.167 -29 -94.5 -29h-142v82h119c16 0 28.167 2.33301 36.5 7s12.5 13 12.5 25s-4.16699 20.167 -12.5 24.5s-20.5 6.5 -36.5 6.5h-62v121h-29v585h-186v113h512
v-113h-186v-585h-23z" />
    <glyph glyph-name="uni0163" unicode="&#x163;" horiz-adv-x="388" 
d="M341.5 -71c25 -18.667 37.5 -45.668 37.5 -81.001c0 -36 -12.833 -63.667 -38.5 -83s-57.167 -29 -94.5 -29h-142v82h119c16 0 28.167 2.33301 36.5 7s12.5 13 12.5 25s-4.16699 20.167 -12.5 24.5s-20.5 6.5 -36.5 6.5h-62v142c-46.667 26.667 -70 76.334 -70 149.001
v267h-66v115h66v137h141v-137h124v-115h-124v-268c0 -18.667 4.5 -32.167 13.5 -40.5s24.167 -12.5 45.5 -12.5h65v-118h-88c-8.66699 -0 -15 0.333008 -19 1v-44c36.667 0 67.5 -9.33301 92.5 -28z" />
    <glyph glyph-name="Tcaron" unicode="&#x164;" horiz-adv-x="577" 
d="M544 698v-113h-186v-585h-140v585h-186v113h512zM436 819l-148 -81l-149 81v102l149 -86l148 86v-102z" />
    <glyph glyph-name="tcaron" unicode="&#x165;" horiz-adv-x="391" 
d="M424 756.5c2.66699 -14.333 4 -29.168 4 -44.501c0 -38 -10.5 -67 -31.5 -87s-52.5 -30 -94.5 -30v57c34 0 51 11 51 33v16h-58v109h116c6 -21.333 10.333 -39.166 13 -53.499zM232 553.998h124v-115h-124v-268c0 -18.667 4.5 -32.167 13.5 -40.5
s24.167 -12.5 45.5 -12.5h65v-118h-88c-118 0 -177 57.333 -177 172v267h-66v115h66v137h141v-137z" />
    <glyph glyph-name="Utilde" unicode="&#x168;" horiz-adv-x="697" 
d="M207 698l-0.000976562 -432c0 -47.333 12.333 -83.5 37 -108.5s59.334 -37.5 104.001 -37.5c45.333 0 80.333 12.5 105 37.5s37 61.167 37 108.5v432h141v-431c0 -59.333 -12.833 -109.5 -38.5 -150.5s-60 -71.833 -103 -92.5s-90.833 -31 -143.5 -31
c-52 0 -99.167 10.333 -141.5 31s-75.833 51.5 -100.5 92.5s-37 91.167 -37 150.5v431h140zM210.499 850.5c21.667 21.667 49.168 32.5 82.501 32.5c14 0 26.333 -2.16699 37 -6.5s22.667 -10.5 36 -18.5c20 -12.667 36.667 -19 50 -19c24.667 0 39 14.333 43 43h75
c-6 -44 -19.833 -76.833 -41.5 -98.5s-49.167 -32.5 -82.5 -32.5c-14 0 -26.333 2.16699 -37 6.5s-22.667 10.5 -36 18.5c-19.333 13.333 -36 20 -50 20c-24.667 0 -39.334 -14.667 -44.001 -44h-74c6 44 19.833 76.833 41.5 98.5z" />
    <glyph glyph-name="utilde" unicode="&#x169;" horiz-adv-x="661" 
d="M592 554l-0.000976562 -554h-141v70c-18 -24 -41.5 -42.833 -70.5 -56.5s-60.5 -20.5 -94.5 -20.5c-43.333 0 -81.666 9.16699 -114.999 27.5s-59.5 45.333 -78.5 81s-28.5 78.167 -28.5 127.5v325h140v-305c0 -44 11 -77.833 33 -101.5s52 -35.5 90 -35.5
c38.667 0 69 11.833 91 35.5s33 57.5 33 101.5v305h141zM192.499 705.5c21.667 21.667 49.168 32.5 82.501 32.5c14 0 26.333 -2.16699 37 -6.5s22.667 -10.5 36 -18.5c20 -12.667 36.667 -19 50 -19c24.667 0 39 14.333 43 43h75c-6 -44 -19.833 -76.833 -41.5 -98.5
s-49.167 -32.5 -82.5 -32.5c-14 0 -26.333 2.16699 -37 6.5s-22.667 10.5 -36 18.5c-19.333 13.333 -36 20 -50 20c-24.667 0 -39.334 -14.667 -44.001 -44h-74c6 44 19.833 76.833 41.5 98.5z" />
    <glyph glyph-name="Umacron" unicode="&#x16a;" horiz-adv-x="697" 
d="M207 698l-0.000976562 -432c0 -47.333 12.333 -83.5 37 -108.5s59.334 -37.5 104.001 -37.5c45.333 0 80.333 12.5 105 37.5s37 61.167 37 108.5v432h141v-431c0 -59.333 -12.833 -109.5 -38.5 -150.5s-60 -71.833 -103 -92.5s-90.833 -31 -143.5 -31
c-52 0 -99.167 10.333 -141.5 31s-75.833 51.5 -100.5 92.5s-37 91.167 -37 150.5v431h140zM539.999 877v-100h-382v100h382z" />
    <glyph glyph-name="umacron" unicode="&#x16b;" horiz-adv-x="661" 
d="M592 554l-0.000976562 -554h-141v70c-18 -24 -41.5 -42.833 -70.5 -56.5s-60.5 -20.5 -94.5 -20.5c-43.333 0 -81.666 9.16699 -114.999 27.5s-59.5 45.333 -78.5 81s-28.5 78.167 -28.5 127.5v325h140v-305c0 -44 11 -77.833 33 -101.5s52 -35.5 90 -35.5
c38.667 0 69 11.833 91 35.5s33 57.5 33 101.5v305h141zM521.999 732v-100h-382v100h382z" />
    <glyph glyph-name="Ubreve" unicode="&#x16c;" horiz-adv-x="697" 
d="M207 698l-0.000976562 -432c0 -47.333 12.333 -83.5 37 -108.5s59.334 -37.5 104.001 -37.5c45.333 0 80.333 12.5 105 37.5s37 61.167 37 108.5v432h141v-431c0 -59.333 -12.833 -109.5 -38.5 -150.5s-60 -71.833 -103 -92.5s-90.833 -31 -143.5 -31
c-52 0 -99.167 10.333 -141.5 31s-75.833 51.5 -100.5 92.5s-37 91.167 -37 150.5v431h140zM464.999 784c-28.667 -27.333 -67.667 -41 -117 -41c-48 0 -86.5 13.833 -115.5 41.5s-43.5 65.5 -43.5 113.5v20h74c0 -22.667 6.33301 -39.834 19 -51.501s34.667 -17.5 66 -17.5
s53.333 5.83301 66 17.5s19 28.834 19 51.501h75v-21c0 -48 -14.333 -85.667 -43 -113z" />
    <glyph glyph-name="ubreve" unicode="&#x16d;" horiz-adv-x="661" 
d="M592 554l-0.000976562 -554h-141v70c-18 -24 -41.5 -42.833 -70.5 -56.5s-60.5 -20.5 -94.5 -20.5c-43.333 0 -81.666 9.16699 -114.999 27.5s-59.5 45.333 -78.5 81s-28.5 78.167 -28.5 127.5v325h140v-305c0 -44 11 -77.833 33 -101.5s52 -35.5 90 -35.5
c38.667 0 69 11.833 91 35.5s33 57.5 33 101.5v305h141zM447.999 639c-28.667 -27.333 -67.667 -41 -117 -41c-48 0 -86.5 13.833 -115.5 41.5s-43.5 65.5 -43.5 113.5v20h74c0 -22.667 6.33301 -39.834 19 -51.501s34.667 -17.5 66 -17.5s53.333 5.83301 66 17.5
s19 28.834 19 51.501h75v-21c0 -48 -14.333 -85.667 -43 -113z" />
    <glyph glyph-name="Uring" unicode="&#x16e;" horiz-adv-x="697" 
d="M207 698l-0.000976562 -432c0 -47.333 12.333 -83.5 37 -108.5s59.334 -37.5 104.001 -37.5c45.333 0 80.333 12.5 105 37.5s37 61.167 37 108.5v432h141v-431c0 -59.333 -12.833 -109.5 -38.5 -150.5s-60 -71.833 -103 -92.5s-90.833 -31 -143.5 -31
c-52 0 -99.167 10.333 -141.5 31s-75.833 51.5 -100.5 92.5s-37 91.167 -37 150.5v431h140zM432.499 778.5c-22.333 -21 -50.166 -31.5 -83.499 -31.5c-32.667 0 -60.334 10.5 -83.001 31.5s-34 48.833 -34 83.5s11.333 62.5 34 83.5s50.334 31.5 83.001 31.5
c33.333 0 61.166 -10.5 83.499 -31.5s33.5 -48.833 33.5 -83.5s-11.167 -62.5 -33.5 -83.5zM382.999 898.5c-9.33301 9 -20.666 13.5 -33.999 13.5s-24.666 -4.5 -33.999 -13.5s-14 -21.167 -14 -36.5c0 -14 4.66699 -25.833 14 -35.5s20.666 -14.5 33.999 -14.5
s24.666 4.83301 33.999 14.5s14 21.5 14 35.5c0 15.333 -4.66699 27.5 -14 36.5z" />
    <glyph glyph-name="uring" unicode="&#x16f;" horiz-adv-x="661" 
d="M592 554l-0.000976562 -554h-141v70c-18 -24 -41.5 -42.833 -70.5 -56.5s-60.5 -20.5 -94.5 -20.5c-43.333 0 -81.666 9.16699 -114.999 27.5s-59.5 45.333 -78.5 81s-28.5 78.167 -28.5 127.5v325h140v-305c0 -44 11 -77.833 33 -101.5s52 -35.5 90 -35.5
c38.667 0 69 11.833 91 35.5s33 57.5 33 101.5v305h141zM414.499 633.5c-22.333 -21 -50.166 -31.5 -83.499 -31.5c-32.667 0 -60.334 10.5 -83.001 31.5s-34 48.833 -34 83.5s11.333 62.5 34 83.5s50.334 31.5 83.001 31.5c33.333 0 61.166 -10.5 83.499 -31.5
s33.5 -48.833 33.5 -83.5s-11.167 -62.5 -33.5 -83.5zM364.999 753.5c-9.33301 9 -20.666 13.5 -33.999 13.5s-24.666 -4.5 -33.999 -13.5s-14 -21.167 -14 -36.5c0 -14 4.66699 -25.833 14 -35.5s20.666 -14.5 33.999 -14.5s24.666 4.83301 33.999 14.5s14 21.5 14 35.5
c0 15.333 -4.66699 27.5 -14 36.5z" />
    <glyph glyph-name="Uhungarumlaut" unicode="&#x170;" horiz-adv-x="697" 
d="M207 698l-0.000976562 -432c0 -47.333 12.333 -83.5 37 -108.5s59.334 -37.5 104.001 -37.5c45.333 0 80.333 12.5 105 37.5s37 61.167 37 108.5v432h141v-431c0 -59.333 -12.833 -109.5 -38.5 -150.5s-60 -71.833 -103 -92.5s-90.833 -31 -143.5 -31
c-52 0 -99.167 10.333 -141.5 31s-75.833 51.5 -100.5 92.5s-37 91.167 -37 150.5v431h140zM292.999 746h-88l72 188h116zM468.999 746h-89l82 188h116z" />
    <glyph glyph-name="uhungarumlaut" unicode="&#x171;" horiz-adv-x="661" 
d="M592 554l-0.000976562 -554h-141v70c-18 -24 -41.5 -42.833 -70.5 -56.5s-60.5 -20.5 -94.5 -20.5c-43.333 0 -81.666 9.16699 -114.999 27.5s-59.5 45.333 -78.5 81s-28.5 78.167 -28.5 127.5v325h140v-305c0 -44 11 -77.833 33 -101.5s52 -35.5 90 -35.5
c38.667 0 69 11.833 91 35.5s33 57.5 33 101.5v305h141zM274.999 601h-88l72 188h116zM450.999 601h-89l82 188h116z" />
    <glyph glyph-name="Uogonek" unicode="&#x172;" horiz-adv-x="697" 
d="M631 698v-431c0 -72.667 -19 -131.5 -57 -176.5s-87.667 -74.5 -149 -88.5v-1l-47 -24c-22.667 -11.333 -38.667 -22.166 -48 -32.499s-14 -21.5 -14 -33.5s4.5 -21.667 13.5 -29s21.167 -11 36.5 -11c21.333 0 45 5 71 15v-84c-28.667 -10 -58.334 -15 -89.001 -15
c-39.333 0 -72.5 9.16699 -99.5 27.5s-40.5 46.166 -40.5 83.499c0 39.333 19.333 74 58 104c-60 14 -108.167 43.5 -144.5 88.5s-54.5 103.833 -54.5 176.5v431h140v-432c0 -47.333 12.333 -83.5 37 -108.5s59.334 -37.5 104.001 -37.5c45.333 0 80.333 12.5 105 37.5
s37 61.167 37 108.5v432h141z" />
    <glyph glyph-name="uogonek" unicode="&#x173;" horiz-adv-x="661" 
d="M604 -116v-84c-28.667 -10 -58.334 -15 -89.001 -15c-39.333 0 -72.5 9.16699 -99.5 27.5s-40.5 46.166 -40.5 83.499c0 45.333 25.333 84 76 116v58c-18 -24 -41.5 -42.833 -70.5 -56.5s-60.5 -20.5 -94.5 -20.5c-43.333 0 -81.666 9.16699 -114.999 27.5
s-59.5 45.333 -78.5 81s-28.5 78.167 -28.5 127.5v325h140v-305c0 -44 11 -77.833 33 -101.5s52 -35.5 90 -35.5c38.667 0 69 11.833 91 35.5s33 57.5 33 101.5v305h141v-555l-47 -24c-22.667 -11.333 -38.667 -22.166 -48 -32.499s-14 -21.5 -14 -33.5
s4.5 -21.667 13.5 -29s21.167 -11 36.5 -11c21.333 0 45 5 71 15z" />
    <glyph glyph-name="Wcircumflex" unicode="&#x174;" horiz-adv-x="1024" 
d="M1002 698l-195 -698h-165l-131 497l-137 -497l-164 -1l-188 699h150l123 -542l142 542h156l134 -539l124 539h151zM509 826l-149 -84v102l149 81l148 -81v-102z" />
    <glyph glyph-name="wcircumflex" unicode="&#x175;" horiz-adv-x="844" 
d="M837 554l-162 -554h-151l-101 387l-101 -387h-152l-163 554h142l98 -422l106 422h148l104 -421l98 421h134zM423 677l-149 -84v102l149 81l148 -81v-102z" />
    <glyph glyph-name="Ycircumflex" unicode="&#x176;" horiz-adv-x="636" 
d="M624 698l-236 -455v-243h-140v243l-237 455h158l150 -319l149 319h156zM319 822l-149 -84v102l149 81l148 -81v-102z" />
    <glyph glyph-name="ycircumflex" unicode="&#x177;" horiz-adv-x="605" 
d="M599 554l-343 -816h-149l120 276l-222 540h157l143 -387l145 387h149zM303 677l-149 -84v102l149 81l148 -81v-102z" />
    <glyph glyph-name="Ydieresis" unicode="&#x178;" horiz-adv-x="636" 
d="M624 698l-236 -455v-243h-140v243l-237 455h158l150 -319l149 319h156zM178 784c-12.667 12.667 -19 28.334 -19 47.001s6.33301 34.5 19 47.5s28.334 19.5 47.001 19.5s34.5 -6.5 47.5 -19.5s19.5 -28.833 19.5 -47.5s-6.5 -34.334 -19.5 -47.001s-28.833 -19 -47.5 -19
s-34.334 6.33301 -47.001 19zM363 784c-12.667 12.667 -19 28.334 -19 47.001s6.33301 34.5 19 47.5s28.334 19.5 47.001 19.5s34.5 -6.5 47.5 -19.5s19.5 -28.833 19.5 -47.5s-6.5 -34.334 -19.5 -47.001s-28.833 -19 -47.5 -19s-34.334 6.33301 -47.001 19z" />
    <glyph glyph-name="Zacute" unicode="&#x179;" horiz-adv-x="576" 
d="M212 118h314v-118h-476v108l312 472h-312v118h476v-108zM397 843l-230 -105v100l230 119v-114z" />
    <glyph glyph-name="zacute" unicode="&#x17a;" horiz-adv-x="483" 
d="M197 115h247v-115h-406v113l242 326h-241v115h402v-113zM352 698l-230 -105v100l230 119v-114z" />
    <glyph glyph-name="Zdotaccent" unicode="&#x17b;" horiz-adv-x="576" 
d="M212 118h314v-118h-476v108l312 472h-312v118h476v-108zM240 784c-12.667 12.667 -19 28.334 -19 47.001s6.33301 34.5 19 47.5s28.334 19.5 47.001 19.5s34.5 -6.5 47.5 -19.5s19.5 -28.833 19.5 -47.5s-6.5 -34.334 -19.5 -47.001s-28.833 -19 -47.5 -19
s-34.334 6.33301 -47.001 19z" />
    <glyph glyph-name="zdotaccent" unicode="&#x17c;" horiz-adv-x="483" 
d="M197 115h247v-115h-406v113l242 326h-241v115h402v-113zM196 639c-12.667 12.667 -19 28.334 -19 47.001s6.33301 34.5 19 47.5s28.334 19.5 47.001 19.5s34.5 -6.5 47.5 -19.5s19.5 -28.833 19.5 -47.5s-6.5 -34.334 -19.5 -47.001s-28.833 -19 -47.5 -19
s-34.334 6.33301 -47.001 19z" />
    <glyph glyph-name="Zcaron" unicode="&#x17d;" horiz-adv-x="576" 
d="M212 118h314v-118h-476v108l312 472h-312v118h476v-108zM436 819l-148 -81l-149 81v102l149 -86l148 86v-102z" />
    <glyph glyph-name="zcaron" unicode="&#x17e;" horiz-adv-x="483" 
d="M197 115h247v-115h-406v113l242 326h-241v115h402v-113zM392 674l-148 -81l-149 81v102l149 -86l148 86v-102z" />
    <glyph glyph-name="uni018F" unicode="&#x18f;" horiz-adv-x="781" 
d="M567.5 665c51.667 -30 91.8301 -72.168 120.497 -126.501s43 -116.833 43 -187.5s-14.167 -133 -42.5 -187s-68.166 -96 -119.499 -126s-110.666 -45 -177.999 -45c-66.667 0 -125.5 13.333 -176.5 40s-90.5 65.334 -118.5 116.001s-42 111 -42 181
c0 24 1.33301 45.667 4 65h523c-3.33301 57.333 -22.5 103 -57.5 137s-79.167 51 -132.5 51c-40.667 0 -76 -9.16699 -106 -27.5s-51.667 -43.833 -65 -76.5h-156c22 70 61.833 126 119.5 168s126.5 63 206.5 63c66.667 0 125.834 -15 177.501 -45zM520.496 164.999
c35.667 29.333 55.833 69.333 60.5 120h-382c2 -49.333 20.667 -89 56 -119s80.333 -45 135 -45c51.333 0 94.833 14.667 130.5 44z" />
    <glyph glyph-name="florin" unicode="&#x192;" horiz-adv-x="334" 
d="M254 642c-14 -11.333 -22.3301 -30.333 -24.9971 -57l-3 -31h91l-11 -115h-93l-54 -511c-6 -60.667 -25.5 -103.834 -58.5 -129.501s-78.167 -38.5 -135.5 -38.5h-24l12 118h21c13.333 0 23.666 4 30.999 12s12 20.667 14 38l54 511h-60l12 115h60l3 31
c7.33301 66.667 30.666 115.334 69.999 146.001s97.666 46 174.999 46l-12 -118c-30.667 0 -53 -5.66699 -67 -17z" />
    <glyph glyph-name="uni01FC" unicode="&#x1fc;" horiz-adv-x="937" 
d="M617 589v-180h232v-108h-232v-190h262v-111h-403v131h-245l-69 -131h-153l372 699h498v-110h-262zM476 239v358l-188 -358h188zM647 844l-230 -105v100l230 119v-114z" />
    <glyph glyph-name="uni01FD" unicode="&#x1fd;" horiz-adv-x="1080" 
d="M1040 238l-426.998 -0.000976562c5.33301 -42 21.833 -74.333 49.5 -97s58.834 -34 93.501 -34c32 0 58.333 6 79 18s35.334 28.333 44.001 49h151c-15.333 -53.333 -44 -97.166 -86 -131.499s-93 -51.5 -153 -51.5c-40.667 0 -77.834 8.33301 -111.501 25
s-60.167 38.667 -79.5 66v-82h-128v82c-20.667 -27.333 -47 -49.333 -79 -66s-67.667 -25 -107 -25c-46.667 0 -89.334 12 -128.001 36s-69.167 57.833 -91.5 101.5s-33.5 93.834 -33.5 150.501s11.167 106.5 33.5 149.5s53.166 76.167 92.499 99.5s83.333 35 132 35
c77.333 0 138.333 -29 183 -87v78h126v-78c24 30 51.667 52 83 66s67.333 21 108 21c49.333 0 93.166 -11.5 131.499 -34.5s68.333 -55.333 90 -97s32.5 -88.834 32.5 -141.501c0 -14.667 -1.66699 -32 -5 -52zM900.002 322.999c-0.666992 38 -14.333 68.333 -41 91
s-60 34 -100 34c-36.667 0 -68.5 -11.167 -95.5 -33.5s-43.833 -52.833 -50.5 -91.5h287zM395.003 133.499c22.667 13 40.668 31.666 54.001 55.999s20 53.5 20 87.5s-6.66699 63.167 -20 87.5s-31.333 43 -54 56s-47 19.5 -73 19.5s-50 -6.33301 -72 -19
s-39.833 -31.167 -53.5 -55.5s-20.5 -53.166 -20.5 -86.499s6.83301 -62.5 20.5 -87.5s31.667 -44.167 54 -57.5s46.166 -20 71.499 -20c26 0 50.333 6.5 73 19.5zM697.004 697.998l-230 -105v100l230 119v-114z" />
    <glyph glyph-name="uni0218" unicode="&#x218;" horiz-adv-x="624" 
d="M178.5 18c-39 16.667 -69.8369 40.667 -92.5039 72s-34.334 68.333 -35.001 111h150c2 -28.667 12.167 -51.334 30.5 -68.001s43.5 -25 75.5 -25c32.667 0 58.334 7.83301 77.001 23.5s28 36.167 28 61.5c0 20.667 -6.33301 37.667 -19 51s-28.5 23.833 -47.5 31.5
s-45.167 16.167 -78.5 25.5c-45.333 13.333 -82.166 26.5 -110.499 39.5s-52.666 32.667 -72.999 59s-30.5 61.5 -30.5 105.5c0 41.333 10.333 77.333 31 108s49.667 54.167 87 70.5s80 24.5 128 24.5c72 0 130.5 -17.5 175.5 -52.5s69.833 -83.833 74.5 -146.5h-154
c-1.33301 24 -11.5 43.833 -30.5 59.5s-44.167 23.5 -75.5 23.5c-27.333 0 -49.166 -7 -65.499 -21s-24.5 -34.333 -24.5 -61c0 -18.667 6.16699 -34.167 18.5 -46.5s27.666 -22.333 45.999 -30s44.166 -16.5 77.499 -26.5c45.333 -13.333 82.333 -26.666 111 -39.999
s53.334 -33.333 74.001 -60s31 -61.667 31 -105c0 -37.333 -9.66699 -72 -29 -104s-47.666 -57.5 -84.999 -76.5s-81.666 -28.5 -132.999 -28.5c-48.667 0 -92.5 8.33301 -131.5 25zM384.996 -151c0 -44 -10.668 -78 -32.001 -102s-52.666 -36 -93.999 -36v57
c33.333 0 50 20.667 50 62v18h-57v109h116c11.333 -38 17 -74 17 -108z" />
    <glyph glyph-name="uni0219" unicode="&#x219;" horiz-adv-x="545" 
d="M159 15.5c-36 16.333 -64.501 38.499 -85.501 66.499s-32.5 59 -34.5 93h141c2.66699 -21.333 13.167 -39 31.5 -53s41.166 -21 68.499 -21c26.667 0 47.5 5.33301 62.5 16s22.5 24.334 22.5 41.001c0 18 -9.16699 31.5 -27.5 40.5s-47.5 18.833 -87.5 29.5
c-41.333 10 -75.166 20.333 -101.499 31s-49 27 -68 49s-28.5 51.667 -28.5 89c0 30.667 8.83301 58.667 26.5 84s43 45.333 76 60s71.833 22 116.5 22c66 0 118.667 -16.5 158 -49.5s61 -77.5 65 -133.5h-134c-2 22 -11.167 39.5 -27.5 52.5s-38.166 19.5 -65.499 19.5
c-25.333 0 -44.833 -4.66699 -58.5 -14s-20.5 -22.333 -20.5 -39c0 -18.667 9.33301 -32.834 28 -42.501s47.667 -19.5 87 -29.5c40 -10 73 -20.333 99 -31s48.5 -27.167 67.5 -49.5s28.833 -51.833 29.5 -88.5c0 -32 -8.83301 -60.667 -26.5 -86s-43 -45.166 -76 -59.499
s-71.5 -21.5 -115.5 -21.5c-45.333 0 -86 8.16699 -122 24.5zM343.999 -151.001c0 -44 -10.5 -78 -31.5 -102s-52.167 -36 -93.5 -36v57c33.333 0 50 20.667 50 62v18h-57v109h116c10.667 -38.667 16 -74.667 16 -108z" />
    <glyph glyph-name="uni021A" unicode="&#x21a;" horiz-adv-x="577" 
d="M544 698v-113h-186v-585h-140v585h-186v113h512zM360 -151c0 -44 -10.5 -78 -31.5 -102s-52.167 -36 -93.5 -36v57c34 0 51 20.667 51 62v18h-58v109h116c10.667 -38.667 16 -74.667 16 -108z" />
    <glyph glyph-name="uni021B" unicode="&#x21b;" horiz-adv-x="388" 
d="M232 439v-268c0 -18.667 4.5 -32.167 13.5 -40.5s24.167 -12.5 45.5 -12.5h65v-118h-88c-118 -0 -177 57.333 -177 172v267h-66v115h66v137h141v-137h124v-115h-124zM252 -43c11.333 -38 16.999 -74 16.999 -108c0 -44 -10.667 -78 -32 -102s-52.666 -36 -93.999 -36v57
c33.333 0 50 20.667 50 62v18h-57v109h116z" />
    <glyph glyph-name="uni0259" unicode="&#x259;" horiz-adv-x="617" 
d="M449.5 527.5c42.333 -23.667 75.335 -57.1689 99.002 -100.502s35.5 -93.333 35.5 -150c0 -57.333 -11.667 -107.666 -35 -150.999s-56 -76.666 -98 -99.999s-90.333 -35 -145 -35c-52.667 0 -99.834 11.333 -141.501 34s-74 54.834 -97 96.501s-34.5 89.5 -34.5 143.5
c0 20 1.33301 38 4 54h405c-3.33301 40 -17.333 71.333 -42 94s-55 34 -91 34c-52 0 -89 -22.333 -111 -67h-151c16 53.333 46.667 97.166 92 131.499s101 51.5 167 51.5c53.333 0 101.166 -11.833 143.499 -35.5zM397.502 137.498c23.667 21 38.166 50.167 43.499 87.5
h-263c0.666992 -36 13.667 -64.833 39 -86.5s56.333 -32.5 93 -32.5c34.667 0 63.834 10.5 87.501 31.5z" />
    <glyph glyph-name="uni02BC" unicode="&#x2bc;" horiz-adv-x="275" 
d="M97 698h147l-108 -252h-96z" />
    <glyph glyph-name="circumflex" unicode="&#x2c6;" horiz-adv-x="317" 
d="M159 677l-149 -84v102l149 81l148 -81v-102z" />
    <glyph glyph-name="caron" unicode="&#x2c7;" horiz-adv-x="317" 
d="M307 674l-148 -81l-149 81v102l149 -86l148 86v-102z" />
    <glyph glyph-name="uni02C9" unicode="&#x2c9;" horiz-adv-x="402" 
d="M392 732v-100h-382v100h382z" />
    <glyph glyph-name="breve" unicode="&#x2d8;" horiz-adv-x="339" 
d="M286 639c-28.667 -27.333 -67.667 -41 -117 -41c-48 0 -86.5 13.833 -115.5 41.5s-43.5 65.5 -43.5 113.5v20h74c0 -22.667 6.33301 -39.834 19 -51.501s34.667 -17.5 66 -17.5s53.333 5.83301 66 17.5s19 28.834 19 51.501h75v-21c0 -48 -14.333 -85.667 -43 -113z" />
    <glyph glyph-name="dotaccent" unicode="&#x2d9;" horiz-adv-x="153" 
d="M29 639c-12.667 12.667 -19 28.334 -19 47.001s6.33301 34.5 19 47.5s28.334 19.5 47.001 19.5s34.5 -6.5 47.5 -19.5s19.5 -28.833 19.5 -47.5s-6.5 -34.334 -19.5 -47.001s-28.833 -19 -47.5 -19s-34.334 6.33301 -47.001 19z" />
    <glyph glyph-name="ring" unicode="&#x2da;" horiz-adv-x="249" 
d="M208.5 633.5c-22.333 -21 -50.166 -31.5 -83.499 -31.5c-32.667 0 -60.334 10.5 -83.001 31.5s-34 48.833 -34 83.5s11.333 62.5 34 83.5s50.334 31.5 83.001 31.5c33.333 0 61.166 -10.5 83.499 -31.5s33.5 -48.833 33.5 -83.5s-11.167 -62.5 -33.5 -83.5zM159 753.5
c-9.33301 9 -20.666 13.5 -33.999 13.5s-24.666 -4.5 -33.999 -13.5s-14 -21.167 -14 -36.5c0 -14 4.66699 -25.833 14 -35.5s20.666 -14.5 33.999 -14.5s24.666 4.83301 33.999 14.5s14 21.5 14 35.5c0 15.333 -4.66699 27.5 -14 36.5z" />
    <glyph glyph-name="ogonek" unicode="&#x2db;" horiz-adv-x="251" 
d="M229 0l-47 -24.001c-22.667 -11.333 -38.667 -22.166 -48 -32.499s-14 -21.5 -14 -33.5s4.5 -21.667 13.5 -29s21.167 -11 36.5 -11c21.333 0 45 5 71 15v-84c-28.667 -10 -58.334 -15 -89.001 -15c-39.333 0 -72.5 9.16699 -99.5 27.5s-40.5 46.166 -40.5 83.499
c0 29.333 10.833 56.333 32.5 81s58.834 48.334 111.501 71.001l40 18z" />
    <glyph glyph-name="tilde" unicode="&#x2dc;" horiz-adv-x="381" 
d="M49.5 705.5c21.667 21.667 49.168 32.5 82.501 32.5c14 0 26.333 -2.16699 37 -6.5s22.667 -10.5 36 -18.5c20 -12.667 36.667 -19 50 -19c24.667 0 39 14.333 43 43h75c-6 -44 -19.833 -76.833 -41.5 -98.5s-49.167 -32.5 -82.5 -32.5c-14 0 -26.333 2.16699 -37 6.5
s-22.667 10.5 -36 18.5c-19.333 13.333 -36 20 -50 20c-24.667 0 -39.334 -14.667 -44.001 -44h-74c6 44 19.833 76.833 41.5 98.5z" />
    <glyph glyph-name="hungarumlaut" unicode="&#x2dd;" horiz-adv-x="401" 
d="M98 601h-88l72 188h116zM274 601h-89l82 188h116z" />
    <glyph glyph-name="pi" unicode="&#x3c0;" horiz-adv-x="706" 
d="M678 554v-108h-74v-446h-140v446h-224v-446h-141v446h-73v108h652z" />
    <glyph glyph-name="dvCandrabindu" unicode="&#x901;" horiz-adv-x="0" 
d="M-123.5 999.5c-10.333 -10.333 -23.166 -15.502 -38.499 -15.502c-14.667 0 -27.167 5.33301 -37.5 16s-15.5 23.334 -15.5 38.001s5.16699 27.167 15.5 37.5s22.833 15.5 37.5 15.5c15.333 0 28.166 -5.16699 38.499 -15.5s15.5 -22.833 15.5 -37.5
c0 -15.333 -5.16699 -28.166 -15.5 -38.499zM5.5 867.498c-39 -35.667 -94.501 -53.5 -166.501 -53.5c-72.667 0 -128.5 17.833 -167.5 53.5s-58.5 83.5 -58.5 143.5h103c0 -28.667 10.833 -53.334 32.5 -74.001s51.834 -31 90.501 -31c38 0 67.667 10.333 89 31
s32 45.334 32 74.001h104c0 -60 -19.5 -107.833 -58.5 -143.5z" />
    <glyph glyph-name="dvAnusvara" unicode="&#x902;" horiz-adv-x="0" 
d="M-100.5 844.5c-15 -15 -33.5 -22.5 -55.5 -22.5s-40.5 7.5 -55.5 22.5s-22.5 33.167 -22.5 54.5c0 22 7.5 40.5 22.5 55.5s33.5 22.5 55.5 22.5s40.5 -7.5 55.5 -22.5s22.5 -33.5 22.5 -55.5c0 -21.333 -7.5 -39.5 -22.5 -54.5z" />
    <glyph glyph-name="dvVisarga" unicode="&#x903;" horiz-adv-x="262" 
d="M186 422.5c-15.333 -15 -33.666 -22.5 -54.999 -22.5c-22 0 -40.667 7.5 -56 22.5s-23 33.167 -23 54.5c0 22 7.66699 40.5 23 55.5s34 22.5 56 22.5c21.333 0 39.666 -7.5 54.999 -22.5s23 -33.5 23 -55.5c0 -21.333 -7.66699 -39.5 -23 -54.5zM186 126.5
c-15.333 -15 -33.666 -22.5 -54.999 -22.5c-22 0 -40.667 7.5 -56 22.5s-23 33.5 -23 55.5c0 21.333 7.66699 39.5 23 54.5s34 22.5 56 22.5c21.333 0 39.666 -7.5 54.999 -22.5s23 -33.167 23 -54.5c0 -22 -7.66699 -40.5 -23 -55.5z" />
    <glyph glyph-name="dvA" unicode="&#x905;" horiz-adv-x="835" 
d="M855 740l0.000976562 -108.001h-111v-632h-129v287l-117 1c2 -12.667 3 -25 3 -37c0 -58.667 -18.667 -105.667 -56 -141s-87 -53 -149 -53c-45.333 0 -85.5 8.66699 -120.5 26s-62.167 41.833 -81.5 73.5s-29 67.834 -29 108.501h121c0 -28 9.33301 -51.167 28 -69.5
s43 -27.5 73 -27.5s53.667 8.83301 71 26.5s26 40.5 26 68.5c0 27.333 -9.33301 50.5 -28 69.5s-46.334 28.5 -83.001 28.5h-43v104h43c32 0 57 8.33301 75 25s27 37 27 61c0 26.667 -8.5 48.167 -25.5 64.5s-38.167 24.5 -63.5 24.5c-27.333 0 -50 -8 -68 -24
s-27 -36.667 -27 -62h-119c0 38.667 9 72.834 27 102.501s43.167 52.5 75.5 68.5s69.5 24 111.5 24c61.333 0 110.666 -16.333 147.999 -49s56 -76.334 56 -131.001c0 -36.667 -9.66699 -68.5 -29 -95.5s-46.666 -45.833 -81.999 -56.5v-2
c17.333 -3.33301 34 -10.333 50 -21h186v346h240z" />
    <glyph glyph-name="dvAA" unicode="&#x906;" horiz-adv-x="1139" 
d="M1165 632l-110.999 -0.000976562v-632h-129v632h-181v-632h-129v287l-117 1c2 -12.667 3 -25 3 -37c0 -58.667 -18.667 -105.667 -56 -141s-87 -53 -149 -53c-45.333 0 -85.5 8.66699 -120.5 26s-62.167 41.833 -81.5 73.5s-29 67.834 -29 108.501h121
c0 -28 9.33301 -51.167 28 -69.5s43 -27.5 73 -27.5s53.667 8.83301 71 26.5s26 40.5 26 68.5c0 27.333 -9.33301 50.5 -28 69.5s-46.334 28.5 -83.001 28.5h-43v104h43c32 0 57 8.33301 75 25s27 37 27 61c0 26.667 -8.5 48.167 -25.5 64.5s-38.167 24.5 -63.5 24.5
c-27.333 0 -50 -8 -68 -24s-27 -36.667 -27 -62h-119c0 38.667 9 72.834 27 102.501s43.167 52.5 75.5 68.5s69.5 24 111.5 24c61.333 0 110.666 -16.333 147.999 -49s56 -76.334 56 -131.001c0 -36.667 -9.66699 -68.5 -29 -95.5s-46.666 -45.833 -81.999 -56.5v-2
c17.333 -3.33301 34 -10.333 50 -21h186v346h550v-108z" />
    <glyph glyph-name="dvI" unicode="&#x907;" horiz-adv-x="579" 
d="M223.5 435c-17 -9.33301 -25.5029 -25 -25.5029 -47c0 -20 7.16699 -34.833 21.5 -44.5s33.5 -14.5 57.5 -14.5h44c58.667 0 107.667 -13.833 147 -41.5s59 -72.5 59 -134.5c0 -49.333 -15.5 -89.833 -46.5 -121.5s-74.167 -47.5 -129.5 -47.5c-36 0 -65.833 7 -89.5 21
s-41.5 29.333 -53.5 46v-132h-122v256h116c2.66699 -29.333 13.834 -52.5 33.501 -69.5s45.834 -25.5 78.501 -25.5c29.333 0 51.833 7.16699 67.5 21.5s23.5 32.5 23.5 54.5c0 28.667 -10 49.5 -30 62.5s-46 19.5 -78 19.5h-59c-47.333 2 -87.333 15.333 -120 40
s-49 61.667 -49 111c0 52 17.333 90.5 52 115.5s78.334 37.5 131.001 37.5h91v90h-370v108h633v-108h-139v-183h-181c-24.667 0 -45.5 -4.66699 -62.5 -14z" />
    <glyph glyph-name="dvII" unicode="&#x908;" horiz-adv-x="579" 
d="M599 825c0.666992 25.333 -4.83496 45.501 -16.502 60.501s-27.834 22.5 -48.501 22.5c-23.333 0 -40.666 -8.33301 -51.999 -25s-17 -41.334 -17 -74.001v-69h141v-108h-139v-183h-181c-24.667 0 -45.5 -4.66699 -62.5 -14s-25.5 -25 -25.5 -47
c0 -20 7.16699 -34.833 21.5 -44.5s33.5 -14.5 57.5 -14.5h44c58.667 0 107.667 -13.833 147 -41.5s59 -72.5 59 -134.5c0 -49.333 -15.5 -89.833 -46.5 -121.5s-74.167 -47.5 -129.5 -47.5c-36 0 -65.833 7 -89.5 21s-41.5 29.333 -53.5 46v-132h-122v256h116
c2.66699 -29.333 13.834 -52.5 33.501 -69.5s45.834 -25.5 78.501 -25.5c29.333 0 51.833 7.16699 67.5 21.5s23.5 32.5 23.5 54.5c0 28.667 -10 49.5 -30 62.5s-46 19.5 -78 19.5h-59c-47.333 2 -87.333 15.333 -120 40s-49 61.667 -49 111c0 52 17.333 90.5 52 115.5
s78.334 37.5 131.001 37.5h91v90h-370v108h372v68c0 60 14.667 109.667 44 149s76.666 59 141.999 59c59.333 0 105 -17.167 137 -51.5s46.667 -80.833 44 -139.5h-113z" />
    <glyph glyph-name="dvU" unicode="&#x909;" horiz-adv-x="569" 
d="M461.5 455c-18.333 -26.667 -42.165 -43 -71.498 -49v-2c38 -10 68.5 -31.833 91.5 -65.5s34.5 -73.167 34.5 -118.5c0 -42.667 -9 -80.334 -27 -113.001s-43.833 -58.167 -77.5 -76.5s-73.834 -27.5 -120.501 -27.5c-48 0 -90.667 9.5 -128 28.5s-66.5 46 -87.5 81
s-31.5 75.5 -31.5 121.5h123c0 -33.333 11.167 -60.833 33.5 -82.5s50.5 -32.5 84.5 -32.5c33.333 0 59.833 10.333 79.5 31s29.5 47.334 29.5 80.001c0 31.333 -9.66699 58.333 -29 81s-48.333 34 -87 34h-55v113h37c33.333 0 59.166 9.16699 77.499 27.5
s27.5 43.833 27.5 76.5v70h-386v108h611v-108h-101v-77c0 -40 -9.16699 -73.333 -27.5 -100z" />
    <glyph glyph-name="dvUU" unicode="&#x90a;" horiz-adv-x="857" 
d="M461.5 455c-18.333 -26.667 -42.166 -43.001 -71.499 -49.001v-2h189c71.333 0 128 -16.333 170 -49s63 -82 63 -148c0 -58 -17.167 -103.333 -51.5 -136s-81.166 -49 -140.499 -49c-14.667 0 -32.667 1.66699 -54 5v98c7.33301 -0.666992 18 -1 32 -1
c27.333 0 49.166 7.16699 65.499 21.5s24.5 36.5 24.5 66.5s-9.83301 52.333 -29.5 67s-45.5 22 -77.5 22h-84c12 -26 18 -55.333 18 -88c0 -40 -9 -76 -27 -108s-43.833 -57 -77.5 -75s-73.5 -27 -119.5 -27c-48 0 -90.667 9.5 -128 28.5s-66.5 46 -87.5 81
s-31.5 75.5 -31.5 121.5h123c0 -33.333 11.167 -60.833 33.5 -82.5s50.5 -32.5 84.5 -32.5c33.333 0 59.833 10.333 79.5 31s29.5 47.334 29.5 80.001c0 31.333 -9.66699 58.333 -29 81s-48.333 34 -87 34h-55v113h37c33.333 0 59.166 9.16699 77.499 27.5
s27.5 43.833 27.5 76.5v70h-386v108h898v-108h-388v-77c0 -40 -9.16699 -73.333 -27.5 -100z" />
    <glyph glyph-name="dvvR" unicode="&#x90b;" horiz-adv-x="1040" 
d="M604 632l-0.000976562 -186.002h158c47.333 0 71 20.667 71 62v45h111v-351h-23c-31.333 0 -55.166 -7.83301 -71.499 -23.5s-24.5 -35.834 -24.5 -60.501c0 -28 9.16699 -48.667 27.5 -62s42.833 -20 73.5 -20c16.667 0 35.667 2.66699 57 8v-103
c-26.667 -5.33301 -51.667 -8 -75 -8c-60.667 0 -110.334 15.167 -149.001 45.5s-58 72.833 -58 127.5c0 42.667 11.833 78.334 35.5 107.001s55.834 48.334 96.501 59.001v89c-25.333 -11.333 -55.333 -17 -90 -17h-139v-344h-119v209l-220 -209h-163v6l382 331
c-8 30 -24 54 -48 72s-53 27 -87 27c-46.667 0 -84 -14.5 -112 -43.5s-42 -67.5 -42 -115.5h-129c0 52.667 10 99.334 30 140.001s48.5 72.167 85.5 94.5s80.167 33.5 129.5 33.5c76 0 134 -26.667 174 -80v167h-506v108h1082v-108h-457z" />
    <glyph glyph-name="dvvL" unicode="&#x90c;" horiz-adv-x="904" 
d="M701 632l0.00390625 -106.002c43.333 -13.333 78.166 -39.666 104.499 -78.999s39.5 -88.666 39.5 -147.999c0 -34.667 -5.33301 -68 -16 -100h-7c-38 0 -66.167 -7.83301 -84.5 -23.5s-27.5 -36.167 -27.5 -61.5c0 -27.333 9.5 -47.5 28.5 -60.5
s43.833 -19.5 74.5 -19.5c22.667 0 42 2.33301 58 7v-103c-26.667 -4.66699 -51.334 -7 -74.001 -7c-62.667 0 -113.5 15.167 -152.5 45.5s-58.5 74.166 -58.5 131.499c0 38.667 12 72.334 36 101.001s54.667 47.667 92 57c1.33301 7.33301 2 18.666 2 33.999
c0 36 -8.83301 65.333 -26.5 88s-42.5 34 -74.5 34c-35.333 0 -61.833 -13.167 -79.5 -39.5s-26.5 -60.833 -26.5 -103.5v-25h-108v25c0 42 -8.66699 76.333 -26 103s-43 40 -77 40c-34.667 0 -61.334 -11.5 -80.001 -34.5s-28 -53.167 -28 -90.5
c0 -43.333 11.167 -76.833 33.5 -100.5s53.5 -35.5 93.5 -35.5l27 2v-113c-8.66699 -0.666992 -20 -1 -34 -1c-80 0 -141.833 22.667 -185.5 68s-65.5 106 -65.5 182c0 50.667 9.66699 93.834 29 129.501s45.833 62.5 79.5 80.5s71.167 27 112.5 27
c45.333 0 82.166 -12 110.499 -36s48.833 -54.333 61.5 -91h3c10 28 25 52.667 45 74s45.333 36.333 76 45v104h-597v108h945v-108h-223z" />
    <glyph glyph-name="dvEcandra" unicode="&#x90d;" horiz-adv-x="652" 
d="M673 632l-97.001 -0.00195312v-93c0 -69.333 -13.667 -121.666 -41 -156.999s-72.333 -53 -135 -53c-15.333 0 -31.666 1 -48.999 3v116c4.66699 -0.666992 11.667 -1 21 -1c27.333 0 47.333 7.83301 60 23.5s19 39.834 19 72.501v89h-232v-366
c0 -44 10.333 -77.833 31 -101.5s49.667 -35.5 87 -35.5c35.333 0 63 10.333 83 31s30 49.334 30 86.001h126c0 -71.333 -21.167 -127 -63.5 -167s-99.833 -60 -172.5 -60c-82 0 -144.167 22.667 -186.5 68s-63.5 106.666 -63.5 183.999l-1 361h-110v108h694v-108z
M496.499 880.498c-37.667 -36.333 -93.833 -54.5 -168.5 -54.5s-131 18.167 -169 54.5s-57 83.833 -57 142.5h111c0 -28.667 9.5 -52.667 28.5 -72s47.833 -29 86.5 -29c38 0 66.667 9.66699 86 29s29 43.333 29 72h110c0 -58.667 -18.833 -106.167 -56.5 -142.5z" />
    <glyph glyph-name="dvE" unicode="&#x90f;" horiz-adv-x="652" 
d="M673 632l-97.001 -0.00195312v-93c0 -69.333 -13.667 -121.666 -41 -156.999s-72.333 -53 -135 -53c-15.333 0 -31.666 1 -48.999 3v116c4.66699 -0.666992 11.667 -1 21 -1c27.333 0 47.333 7.83301 60 23.5s19 39.834 19 72.501v89h-232v-366
c0 -44 10.333 -77.833 31 -101.5s49.667 -35.5 87 -35.5c35.333 0 63 10.333 83 31s30 49.334 30 86.001h126c0 -71.333 -21.167 -127 -63.5 -167s-99.833 -60 -172.5 -60c-82 0 -144.167 22.667 -186.5 68s-63.5 106.666 -63.5 183.999l-1 361h-110v108h694v-108z" />
    <glyph glyph-name="dvAI" unicode="&#x910;" horiz-adv-x="652" 
d="M673 632l-97.001 0.000976562v-93c0 -69.333 -13.667 -121.666 -41 -156.999s-72.333 -53 -135 -53c-15.333 0 -31.666 1 -48.999 3v116c4.66699 -0.666992 11.667 -1 21 -1c27.333 0 47.333 7.83301 60 23.5s19 39.834 19 72.501v89h-232v-366
c0 -44 10.333 -77.833 31 -101.5s49.667 -35.5 87 -35.5c35.333 0 63 10.333 83 31s30 49.334 30 86.001h126c0 -71.333 -21.167 -127 -63.5 -167s-99.833 -60 -172.5 -60c-82 0 -144.167 22.667 -186.5 68s-63.5 106.666 -63.5 183.999l-1 361h-110v108h468
c-29.333 45.333 -53.166 78.166 -71.499 98.499s-36.833 33.666 -55.5 39.999s-44.334 9.5 -77.001 9.5h-49v105h46c53.333 -0.666992 95.5 -6.33398 126.5 -17.001s61.667 -33.5 92 -68.5s67.5 -90.833 111.5 -167.5h103v-108z" />
    <glyph glyph-name="dvOcandra" unicode="&#x911;" horiz-adv-x="1144" 
d="M1165 632l-110.999 -0.000976562v-632h-129v632h-181v-632h-129v287l-117 1c2 -12.667 3 -25 3 -37c0 -58.667 -18.667 -105.667 -56 -141s-87 -53 -149 -53c-45.333 0 -85.5 8.66699 -120.5 26s-62.167 41.833 -81.5 73.5s-29 67.834 -29 108.501h121
c0 -28 9.33301 -51.167 28 -69.5s43 -27.5 73 -27.5s53.667 8.83301 71 26.5s26 40.5 26 68.5c0 27.333 -9.33301 50.5 -28 69.5s-46.334 28.5 -83.001 28.5h-43v104h43c32 0 57 8.33301 75 25s27 37 27 61c0 26.667 -8.5 48.167 -25.5 64.5s-38.167 24.5 -63.5 24.5
c-27.333 0 -50 -8 -68 -24s-27 -36.667 -27 -62h-119c0 38.667 9 72.834 27 102.501s43.167 52.5 75.5 68.5s69.5 24 111.5 24c61.333 0 110.666 -16.333 147.999 -49s56 -76.334 56 -131.001c0 -36.667 -9.66699 -68.5 -29 -95.5s-46.666 -45.833 -81.999 -56.5v-2
c17.333 -3.33301 34 -10.333 50 -21h186v346h550v-108zM1006.5 880.499c-37.667 -36.333 -93.833 -54.5 -168.5 -54.5s-131 18.167 -169 54.5s-57 83.833 -57 142.5h111c0 -28.667 9.5 -52.667 28.5 -72s47.833 -29 86.5 -29c38 0 66.667 9.66699 86 29s29 43.333 29 72h110
c0 -58.667 -18.833 -106.167 -56.5 -142.5z" />
    <glyph glyph-name="dvO" unicode="&#x913;" horiz-adv-x="1144" 
d="M1165 740l0.000976562 -107.998h-111v-632h-129v632h-181v-632h-129v287l-117 1c2 -12.667 3 -25 3 -37c0 -58.667 -18.667 -105.667 -56 -141s-87 -53 -149 -53c-45.333 0 -85.5 8.66699 -120.5 26s-62.167 41.833 -81.5 73.5s-29 67.834 -29 108.501h121
c0 -28 9.33301 -51.167 28 -69.5s43 -27.5 73 -27.5s53.667 8.83301 71 26.5s26 40.5 26 68.5c0 27.333 -9.33301 50.5 -28 69.5s-46.334 28.5 -83.001 28.5h-43v104h43c32 0 57 8.33301 75 25s27 37 27 61c0 26.667 -8.5 48.167 -25.5 64.5s-38.167 24.5 -63.5 24.5
c-27.333 0 -50 -8 -68 -24s-27 -36.667 -27 -62h-119c0 38.667 9 72.834 27 102.501s43.167 52.5 75.5 68.5s69.5 24 111.5 24c61.333 0 110.666 -16.333 147.999 -49s56 -76.334 56 -131.001c0 -36.667 -9.66699 -68.5 -29 -95.5s-46.666 -45.833 -81.999 -56.5v-2
c17.333 -3.33301 34 -10.333 50 -21h186v346h310c-29.333 45.333 -53.166 78.166 -71.499 98.499s-36.833 33.666 -55.5 39.999s-44.334 9.5 -77.001 9.5h-49v105h46c53.333 -0.666992 95.5 -6.33398 126.5 -17.001s61.667 -33.5 92 -68.5s67.5 -90.833 111.5 -167.5h117z
" />
    <glyph glyph-name="dvAU" unicode="&#x914;" horiz-adv-x="1144" 
d="M1165 740l0.000976562 -108.002h-111v-632h-129v632h-181v-632h-129v287l-117 1c2 -12.667 3 -25 3 -37c0 -58.667 -18.667 -105.667 -56 -141s-87 -53 -149 -53c-45.333 0 -85.5 8.66699 -120.5 26s-62.167 41.833 -81.5 73.5s-29 67.834 -29 108.501h121
c0 -28 9.33301 -51.167 28 -69.5s43 -27.5 73 -27.5s53.667 8.83301 71 26.5s26 40.5 26 68.5c0 27.333 -9.33301 50.5 -28 69.5s-46.334 28.5 -83.001 28.5h-43v104h43c32 0 57 8.33301 75 25s27 37 27 61c0 26.667 -8.5 48.167 -25.5 64.5s-38.167 24.5 -63.5 24.5
c-27.333 0 -50 -8 -68 -24s-27 -36.667 -27 -62h-119c0 38.667 9 72.834 27 102.501s43.167 52.5 75.5 68.5s69.5 24 111.5 24c61.333 0 110.666 -16.333 147.999 -49s56 -76.334 56 -131.001c0 -36.667 -9.66699 -68.5 -29 -95.5s-46.666 -45.833 -81.999 -56.5v-2
c17.333 -3.33301 34 -10.333 50 -21h186v346h318c-40 27.333 -68.833 45.833 -86.5 55.5s-35.167 15.834 -52.5 18.501s-45.333 4 -84 4h-50v81h47c37.333 0 65 -1.16699 83 -3.5s36.167 -8 54.5 -17s41.166 -24.167 68.499 -45.5c-25.333 45.333 -48.333 78.333 -69 99
s-40.167 33.5 -58.5 38.5s-42.833 7.5 -73.5 7.5h-52v82h50c53.333 0 93.833 -5.83301 121.5 -17.5s56.834 -39 87.501 -82s72.667 -116.5 126 -220.5h120z" />
    <glyph glyph-name="dvKA" unicode="&#x915;" horiz-adv-x="976" 
d="M557 632l-0.00292969 -173c14.667 25.333 35.167 45.5 61.5 60.5s57.5 22.5 93.5 22.5c41.333 0 77.5 -10 108.5 -30s54.833 -47.333 71.5 -82s25 -73.667 25 -117c0 -47.333 -8.83301 -88.166 -26.5 -122.499s-42.167 -60.5 -73.5 -78.5s-67 -27 -107 -27
c-23.333 0 -45.333 2.33301 -66 7v102c8 -2.66699 18.333 -4 31 -4c32.667 0 59.334 10.667 80.001 32s31 50.666 31 87.999c0 35.333 -10.667 64.333 -32 87s-48.666 34 -81.999 34c-37.333 0 -65.833 -12.667 -85.5 -38s-29.5 -56 -29.5 -92v-301h-124v162
c-15.333 -26.667 -37 -47.5 -65 -62.5s-61.333 -22.5 -100 -22.5c-42 0 -78.667 9.66699 -110 29s-55.666 46.666 -72.999 81.999s-26 76 -26 122s8.83301 86.5 26.5 121.5s42.667 62.167 75 81.5s69.833 29 112.5 29c37.333 0 69.333 -7.16699 96 -21.5
s48 -34.166 64 -59.499v171h-454v108h1017v-108h-439zM377.497 203c18.333 12 32.167 27.502 41.5 46.502s14 38.833 14 59.5c0 33.333 -10.5 62.166 -31.5 86.499s-50.833 36.5 -89.5 36.5c-34.667 0 -63.667 -11.333 -87 -34s-35 -52.334 -35 -89.001
c0 -37.333 11.333 -67.333 34 -90s51.667 -34 87 -34c26 0 48.167 6 66.5 18z" />
    <glyph glyph-name="dvKHA" unicode="&#x916;" horiz-adv-x="950" 
d="M971 740l-0.000976562 -107.999h-111v-632h-128v181c-28.667 -40 -72.334 -60 -131.001 -60c-7.33301 0 -18.333 0.666992 -33 2c-22.667 -38.667 -53.167 -69.667 -91.5 -93s-83.166 -35 -134.499 -35c-83.333 0 -149.166 23.667 -197.499 71s-72.5 113.333 -72.5 198
v137h30c44.667 0 78.667 10.667 102 32s35 56.666 35 105.999v93h-260v108h992zM468.999 170.001c-20 18.667 -35.334 41.5 -46.001 68.5s-16 56.833 -16 89.5c0 39.333 8.33301 74.5 25 105.5s39.834 55.167 69.501 72.5s62.834 26 99.501 26c57.333 0 101 -20 131 -60v160
h-363v-110c0 -66.667 -15.333 -117.667 -46 -153s-71.667 -55 -123 -59v-61c0 -42.667 12.833 -77.167 38.5 -103.5s61.167 -39.5 106.5 -39.5c55.333 0 96.666 21.333 123.999 64zM704.998 252.001c18 21.333 27 46.333 27 75s-8.83301 53.5 -26.5 74.5
s-43.167 31.5 -76.5 31.5c-30.667 0 -56.167 -9.5 -76.5 -28.5s-30.5 -44.5 -30.5 -76.5c0 -34 10.167 -60.5 30.5 -79.5s45.833 -28.5 76.5 -28.5c32.667 0 58 10.667 76 32z" />
    <glyph glyph-name="dvGA" unicode="&#x917;" horiz-adv-x="789" 
d="M809 740v-108h-111v-632h-129v632h-145v-242c0 -59.333 -15.667 -107.5 -47 -144.5s-79 -55.5 -143 -55.5c-62 0 -109.833 17 -143.5 51s-50.5 81.333 -50.5 142c0 14 0.333008 24.333 1 31h125v-31c0 -24 5.16699 -43.833 15.5 -59.5s26.833 -23.5 49.5 -23.5
c42 0 63 28 63 84v248h-315v108h830z" />
    <glyph glyph-name="dvGHA" unicode="&#x918;" horiz-adv-x="703" 
d="M724 632h-110.002v-632h-130v189c-20.667 -29.333 -47.667 -51.833 -81 -67.5s-70.666 -23.5 -111.999 -23.5c-64 0 -116.5 16 -157.5 48s-61.5 77 -61.5 135c0 38.667 11.333 71 34 97s50.334 42.667 83.001 50v3c-31.333 7.33301 -56.333 22.5 -75 45.5
s-28 55.5 -28 97.5v58h-107v108h745v-108zM483.998 632l-269 -0.00195312v-52c0 -31.333 8.5 -55.333 25.5 -72s44.5 -25 82.5 -25h42v-104h-52c-36.667 0 -64.167 -7.83301 -82.5 -23.5s-27.5 -36.167 -27.5 -61.5c0 -29.333 11 -51.666 33 -66.999s50.667 -23 86 -23
c30 0 57.333 6.33301 82 19s44.167 30.834 58.5 54.501s21.5 50.5 21.5 80.5v274z" />
    <glyph glyph-name="dvNGA" unicode="&#x919;" horiz-adv-x="686" 
d="M707 740l-0.000976562 -107.999h-236v-183h-182c-24.667 0 -45.334 -4.5 -62.001 -13.5s-25 -24.5 -25 -46.5c0 -20.667 7.33301 -35.834 22 -45.501s33.334 -14.5 56.001 -14.5h45c57.333 0 105.833 -13.833 145.5 -41.5s59.5 -71.5 59.5 -131.5
c0 -53.333 -19 -95.666 -57 -126.999s-92 -47 -162 -47c-74 0 -134 17.167 -180 51.5s-70.333 81.5 -73 141.5h129c0.666992 -29.333 11.834 -52.5 33.501 -69.5s50.5 -25.5 86.5 -25.5c32 0 56.833 7 74.5 21s26.5 32.667 26.5 56c0 28 -9.83301 48.5 -29.5 61.5
s-45.5 19.5 -77.5 19.5h-37c-51.333 0 -96 11.5 -134 34.5s-57 63.167 -57 120.5c0 49.333 17.167 86.166 51.5 110.499s77.833 36.5 130.5 36.5h91v92h-367v108h728zM651.499 428.501c13.667 -13.667 20.5 -30.5 20.5 -50.5c0 -19.333 -6.83301 -35.833 -20.5 -49.5
s-30.5 -20.5 -50.5 -20.5s-36.833 6.83301 -50.5 20.5s-20.5 30.167 -20.5 49.5c0 20 6.83301 36.833 20.5 50.5s30.5 20.5 50.5 20.5s36.833 -6.83301 50.5 -20.5z" />
    <glyph glyph-name="dvCA" unicode="&#x91a;" horiz-adv-x="746" 
d="M767 632h-111.003v-632h-129v176c-19.333 -27.333 -44.666 -48.666 -75.999 -63.999s-66.333 -23 -105 -23c-39.333 0 -74.666 7.66699 -105.999 23s-56.166 37.666 -74.499 66.999s-27.5 64 -27.5 104c0 27.333 5.33301 52.5 16 75.5s26 42.167 46 57.5h-150v102h367
v-102h-39c-35.333 0 -63.833 -10.333 -85.5 -31s-32.5 -47.334 -32.5 -80.001c0 -34 11.833 -60.667 35.5 -80s53.167 -29 88.5 -29c43.333 0.666992 78 16.334 104 47.001s39 70 39 118v271h-548v108h788v-108z" />
    <glyph glyph-name="dvCHA" unicode="&#x91b;" horiz-adv-x="821" 
d="M642 632l0.000976562 -97c41.333 -11.333 74.166 -34.5 98.499 -69.5s36.5 -79.5 36.5 -133.5c0 -62.667 -15.167 -117.334 -45.5 -164.001s-73.833 -82.5 -130.5 -107.5s-123.667 -37.5 -201 -37.5c-101.333 0 -182.333 18.833 -243 56.5s-91 92.5 -91 164.5
c0 41.333 10.833 75.333 32.5 102s51.167 45.334 88.5 56.001v3c-30.667 6.66699 -55.5 21.667 -74.5 45s-28.5 56 -28.5 98v84h-105v108h863v-108h-200zM523.001 632l-309.999 -0.00195312v-79c0 -64 33.333 -96 100 -96h20v-104h-18c-38.667 0 -68 -9 -88 -27
s-30 -41.333 -30 -70c0 -40 17.167 -70.5 51.5 -91.5s85.166 -31.5 152.499 -31.5c82 0 146.333 17.833 193 53.5s70 85.834 70 150.501c0 34 -7.83301 61 -23.5 81s-35.167 30 -58.5 30c-22 0 -40.667 -8 -56 -24s-23 -39 -23 -69c0 -24 5 -51.667 15 -83h-107
c-10.667 28.667 -16 61 -16 97c0 46.667 11.667 83.834 35 111.501s54.333 46.167 93 55.5v96z" />
    <glyph glyph-name="dvJA" unicode="&#x91c;" horiz-adv-x="852" 
d="M873 632l-111.001 -0.00195312v-632h-129v382h-143v-55c0 -42 -8.66699 -79.167 -26 -111.5s-42.166 -57.666 -74.499 -75.999s-70.166 -27.5 -113.499 -27.5c-68.667 0 -121.834 19.667 -159.501 59s-56.5 91.333 -56.5 156v165h131v-162c0 -32 7.5 -57.5 22.5 -76.5
s35.833 -28.5 62.5 -28.5c28 0 49.667 9.33301 65 28s23 44.334 23 77.001v162h269v140h-654v108h894v-108z" />
    <glyph glyph-name="dvJHA" unicode="&#x91d;" horiz-adv-x="862" 
d="M882 632h-111.003v-632h-126v232h-148c18 -24.667 27 -55.334 27 -92.001c0 -44.667 -14.667 -81.167 -44 -109.5s-70.666 -42.5 -123.999 -42.5c-60.667 0 -108.667 20.667 -144 62v-131h-122v251h116c2.66699 -25.333 13.667 -46.166 33 -62.499s45.333 -24.5 78 -24.5
c28.667 0 50.5 7 65.5 21s22.5 31.333 22.5 52c0 26 -9.16699 46.167 -27.5 60.5s-45.166 21.5 -80.499 21.5h-59c-47.333 2 -87.333 15.333 -120 40s-49 61.667 -49 111c0 52 17.333 90.5 52 115.5s78.334 37.5 131.001 37.5h91v90h-364v108h903v-108zM644.997 329v303
h-178v-183h-181c-24.667 0 -45.5 -4.66699 -62.5 -14s-25.5 -25 -25.5 -47c0 -20 7.16699 -34.833 21.5 -44.5s33.5 -14.5 57.5 -14.5h44h324z" />
    <glyph glyph-name="dvNYA" unicode="&#x91e;" horiz-adv-x="825" 
d="M846 632l-111.004 0.000976562v-632h-129v256h-90c-9.33301 -58 -34.166 -104 -74.499 -138s-91.5 -51 -153.5 -51c-64.667 0 -117.667 17.333 -159 52s-64.666 79.667 -69.999 135h122c6 -22.667 18.5 -41.334 37.5 -56.001s42.5 -22 70.5 -22c36.667 0 65 12.333 85 37
s30 55.667 30 93c0 36 -10.167 66.333 -30.5 91s-48.5 37 -84.5 37c-28 0 -51.5 -7.5 -70.5 -22.5s-31.5 -33.5 -37.5 -55.5h-122c5.33301 56 28.5 101.333 69.5 136s94.167 52 159.5 52c60.667 0 110.834 -16.167 150.501 -48.5s64.834 -75.833 75.501 -130.5h92v267h-627
v108h867v-108z" />
    <glyph glyph-name="dvTTA" unicode="&#x91f;" horiz-adv-x="648" 
d="M236 393.5c-31.333 -25.667 -47.0029 -62.5 -47.0029 -110.5c0 -42 13.833 -76.333 41.5 -103s63.5 -40 107.5 -40c45.333 0 81.833 14 109.5 42s41.5 64 41.5 108h123c0 -52 -11.167 -97.833 -33.5 -137.5s-54 -70.334 -95 -92.001s-88.833 -32.5 -143.5 -32.5
c-54 0 -102.333 10.667 -145 32s-76 51.333 -100 90s-36 83 -36 133c0 53.333 11.833 99.333 35.5 138s57.334 68.334 101.001 89.001s94.834 31 153.501 31h5v91h-375v108h689v-108h-188v-200h-123c-49.333 0 -89.666 -12.833 -120.999 -38.5z" />
    <glyph glyph-name="dvTTHA" unicode="&#x920;" horiz-adv-x="673" 
d="M399 632v-94.002c62.667 -11.333 114.167 -38.666 154.5 -81.999s60.5 -98.666 60.5 -165.999c0 -50.667 -12.167 -95.334 -36.5 -134.001s-57.5 -68.334 -99.5 -89.001s-89.333 -31 -142 -31c-52 0 -99 10.333 -141 31s-75.167 50.334 -99.5 89.001
s-36.5 83.334 -36.5 134.001c0 67.333 19.833 122.5 59.5 165.5s90.5 70.5 152.5 82.5v94h-292v108h714v-108h-294zM444.5 394.498c-27.667 27 -63.834 40.5 -108.501 40.5c-43.333 0 -78.833 -13.5 -106.5 -40.5s-41.5 -61.833 -41.5 -104.5s13.833 -77.667 41.5 -105
s63.167 -41 106.5 -41c44.667 0 80.834 13.667 108.501 41s41.5 62.333 41.5 105s-13.833 77.5 -41.5 104.5z" />
    <glyph glyph-name="dvDDA" unicode="&#x921;" horiz-adv-x="569" 
d="M227 435.5c-16.667 -9 -25.001 -24.499 -25.001 -46.499c0 -20.667 7.33301 -35.834 22 -45.501s33.334 -14.5 56.001 -14.5h45c57.333 0 105.833 -13.833 145.5 -41.5s59.5 -71.5 59.5 -131.5c0 -53.333 -19 -95.666 -57 -126.999s-92 -47 -162 -47
c-74 0 -134 17.167 -180 51.5s-70.333 81.5 -73 141.5h129c0.666992 -29.333 11.834 -52.5 33.501 -69.5s50.5 -25.5 86.5 -25.5c32 0 56.833 7 74.5 21s26.5 32.667 26.5 56c0 28 -9.83301 48.5 -29.5 61.5s-45.5 19.5 -77.5 19.5h-37c-51.333 0 -96 11.5 -134 34.5
s-57 63.167 -57 120.5c0 49.333 17.167 86.166 51.5 110.499s77.833 36.5 130.5 36.5h88v92h-364v108h610v-108h-122v-183h-178c-24.667 0 -45.334 -4.5 -62.001 -13.5z" />
    <glyph glyph-name="dvDDHA" unicode="&#x922;" horiz-adv-x="650" 
d="M242 410c-38.667 -32 -58 -77.999 -58 -137.999c0 -53.333 17 -96.833 51 -130.5s81 -50.5 141 -50.5c41.333 0 75.5 9.66699 102.5 29s40.5 45.333 40.5 78c0 21.333 -6.83301 39 -20.5 53s-30.834 21 -51.501 21c-18.667 0 -34.334 -5.83301 -47.001 -17.5
s-19 -26.834 -19 -45.501c0 -6.66699 1 -12.667 3 -18h-93c-2.66699 16 -4 28 -4 36c0 43.333 15.333 77.166 46 101.499s70.334 36.5 119.001 36.5c54.667 0 97.834 -15.333 129.501 -46s47.5 -71 47.5 -121c0 -62 -22.5 -110.833 -67.5 -146.5
s-107.833 -53.5 -188.5 -53.5c-59.333 0 -112.833 11.167 -160.5 33.5s-85.167 54.5 -112.5 96.5s-41 91.333 -41 148c0 58 12.667 107.333 38 148s60 71.334 104 92.001s94 31 150 31h27v85h-399v108h691v-108h-170v-174h-108c-61.333 0 -111.333 -16 -150 -48z" />
    <glyph glyph-name="dvNNA" unicode="&#x923;" horiz-adv-x="880" 
d="M901 632l-111.001 -0.000976562v-632h-129v632h-157v-260c0 -63.333 -18.167 -114.666 -54.5 -153.999s-88.166 -59 -155.499 -59c-66.667 0 -118.167 20 -154.5 60s-54.5 91 -54.5 153v260h-106v108h922v-108zM376.999 631.999h-166v-272
c0 -27.333 7.5 -49.5 22.5 -66.5s35.5 -25.5 61.5 -25.5s46.167 8.33301 60.5 25s21.5 39 21.5 67v272z" />
    <glyph glyph-name="dvTA" unicode="&#x924;" horiz-adv-x="703" 
d="M723 632h-110.001v-632h-130v383h-133c-49.333 0 -88.333 -12 -117 -36s-43 -58.333 -43 -103c0 -44 12.667 -78.5 38 -103.5s62.333 -37.5 111 -37.5h20v-101h-40c-77.333 0 -140 20.667 -188 62s-72 102.333 -72 183c0 82.667 26.333 144.5 79 185.5
s121.334 61.5 206.001 61.5h139v138h-504v108h744v-108z" />
    <glyph glyph-name="dvTHA" unicode="&#x925;" horiz-adv-x="783" 
d="M804 740l0.000976562 -107.996h-111v-632h-129v204c-15.333 -32 -42.333 -59.167 -81 -81.5s-85.334 -33.5 -140.001 -33.5c-56 0 -105 11.333 -147 34s-74.5 55 -97.5 97s-34.5 91.667 -34.5 149c0 24.667 1.66699 46 5 64h91c58.667 0 105.5 9.16699 140.5 27.5
s52.5 50.166 52.5 95.499c0 24 -7 43.833 -21 59.5s-33 23.5 -57 23.5c-25.333 0 -45.333 -7.83301 -60 -23.5s-22 -36.834 -22 -63.501c0 -9.33301 1.33301 -22 4 -38h-117c-2.66699 17.333 -4 31 -4 41c0 40.667 8.83301 75.667 26.5 105s41.667 51.5 72 66.5
s64.166 22.5 101.499 22.5c38.667 0 73 -8.16699 103 -24.5s53.333 -39.5 70 -69.5s25 -64.333 25 -103c0 -66.667 -23.167 -118.667 -69.5 -156s-111.166 -56 -194.499 -56h-21c2 -42.667 17.5 -77.334 46.5 -104.001s71.167 -40 126.5 -40c37.333 0 71.333 8 102 24
s55 39.667 73 71s27 68.666 27 111.999v337h240z" />
    <glyph glyph-name="dvDA" unicode="&#x926;" horiz-adv-x="611" 
d="M232 396c-27.333 -22.667 -40.999 -54.334 -40.999 -95.001c0 -36.667 11 -65.834 33 -87.501s51.333 -32.5 88 -32.5c30 0 55.833 9.33301 77.5 28s32.5 45.334 32.5 80.001h119v-316h-126v165c-14.667 -19.333 -34 -34.166 -58 -44.499s-51.333 -15.5 -82 -15.5
c-40 0 -76.333 8.66699 -109 26s-58.667 43 -78 77s-29 75.333 -29 124c0 50 11.5 92.833 34.5 128.5s54.667 62.5 95 80.5s86.166 27 137.499 27h50v91h-397v108h653l-1 -108h-125v-202h-167c-44 0 -79.667 -11.333 -107 -34z" />
    <glyph glyph-name="dvDHA" unicode="&#x927;" horiz-adv-x="724" 
d="M751 632l-108.998 0.000976562v-632h-129v185c-21.333 -32 -50.166 -56.667 -86.499 -74s-78.5 -26 -126.5 -26c-64 0 -117 15.667 -159 47s-63 75.333 -63 132c0 40 11.667 72.5 35 97.5s50.666 40.5 81.999 46.5v4c-35.333 9.33301 -65 28 -89 56s-36 64.333 -36 109
c0 51.333 16.833 92.833 50.5 124.5s77.167 47.5 130.5 47.5c54.667 0 97.5 -15.167 128.5 -45.5s46.5 -70.166 46.5 -119.499c0 -10.667 -0.666992 -23.334 -2 -38.001h-96l1 22c0 21.333 -6.66699 38.833 -20 52.5s-31.333 20.5 -54 20.5s-40.834 -7.33301 -54.501 -22
s-20.5 -33.334 -20.5 -56.001c0 -32 12.833 -56.5 38.5 -73.5s58.167 -25.5 97.5 -25.5h59v-104h-53c-36 0 -63.833 -7.33301 -83.5 -22s-29.5 -34.667 -29.5 -60c0 -28 11.167 -49.333 33.5 -64s52.166 -22 89.499 -22c54 0 97.667 17 131 51s50 78.667 50 134v363h238
v-108z" />
    <glyph glyph-name="dvNA" unicode="&#x928;" horiz-adv-x="810" 
d="M831 632l-111 0.000976562v-632h-129v391h-151c23.333 -32 35 -70.333 35 -115c0 -39.333 -9 -73.333 -27 -102s-42.5 -50.334 -73.5 -65.001s-65.5 -22 -103.5 -22c-40 0 -76.333 8.33301 -109 25s-58.667 40.5 -78 71.5s-29 67.5 -29 109.5c0 44 10 81.5 30 112.5
s47.167 54.333 81.5 70s72.833 23.5 115.5 23.5h309v133h-612v108h852v-108zM344 223.501c18.667 18.333 28 41.833 28 70.5c0 28 -9.33301 51.167 -28 69.5s-42.334 27.5 -71.001 27.5c-30 0 -54.5 -9.16699 -73.5 -27.5s-28.5 -41.833 -28.5 -70.5s9.5 -52 28.5 -70
s43.5 -27 73.5 -27c28.667 0 52.334 9.16699 71.001 27.5z" />
    <glyph glyph-name="dvPA" unicode="&#x92a;" horiz-adv-x="668" 
d="M689 632h-111v-632h-128v241c-35.333 -44.667 -87.333 -67 -156 -67c-70.667 0 -125 23.167 -163 69.5s-57 107.833 -57 184.5v204h-95v108h710v-108zM450 632h-246v-204c0 -45.333 10.167 -80.833 30.5 -106.5s51.166 -38.5 92.499 -38.5
c38.667 0 68.834 12.5 90.501 37.5s32.5 56.167 32.5 93.5v218z" />
    <glyph glyph-name="dvPHA" unicode="&#x92b;" horiz-adv-x="985" 
d="M561 632v-172.001c16 25.333 37.667 45.333 65 60s59.666 22 96.999 22c40.667 0 76.334 -9.83301 107.001 -29.5s54.5 -46.5 71.5 -80.5s25.5 -72.333 25.5 -115c0 -48 -8.83301 -89.5 -26.5 -124.5s-42.334 -61.667 -74.001 -80s-67.5 -27.5 -107.5 -27.5
c-25.333 0 -48.666 3 -69.999 9v100c12 -3.33301 24.333 -5 37 -5c32.667 0 59.167 11 79.5 33s30.5 51.333 30.5 88c0 35.333 -10.667 64.333 -32 87s-48.666 34 -81.999 34c-40 0 -70.167 -13.667 -90.5 -41s-30.5 -61.666 -30.5 -102.999v-287h-129v239
c-32.667 -43.333 -81.334 -65 -146.001 -65c-68 0 -120.333 22.667 -157 68s-55 105.333 -55 180v210h-95v108h1027v-108h-445zM432 631.999h-228v-210c0 -43.333 9.5 -77.333 28.5 -102s47.5 -37 85.5 -37c36 0 64 11.833 84 35.5s30 53.5 30 89.5v224z" />
    <glyph glyph-name="dvBA" unicode="&#x92c;" horiz-adv-x="689" 
d="M709 740v-108h-110v-632h-125v151c-16.667 -24.667 -39.667 -44.167 -69 -58.5s-63.333 -21.5 -102 -21.5c-46 0 -87.5 10.167 -124.5 30.5s-66.167 49 -87.5 86s-32 79.167 -32 126.5c0 46.667 10.5 88 31.5 124s49.833 64 86.5 84s78 30 124 30c38 0 71.5 -7 100.5 -21
s53.167 -33 72.5 -57v158h-495v108h730zM227 433l237 -191c11.333 24 17 48.333 17 73c0 26.667 -6 51.667 -18 75s-29.5 42 -52.5 56s-50.5 21 -82.5 21c-39.333 0 -73 -11.333 -101 -34zM193 234c14 -22.667 33 -40 57 -52s50 -18 78 -18c40 0 74 11.667 102 35l-239 191
c-12.667 -23.333 -19 -48.666 -19 -75.999c0 -30.667 7 -57.334 21 -80.001z" />
    <glyph glyph-name="dvBHA" unicode="&#x92d;" horiz-adv-x="831" 
d="M852 740v-108h-112v-632h-129v355h-139v-59c0 -69.333 -17.5 -123.333 -52.5 -162s-84.833 -58 -149.5 -58c-40.667 0 -76.667 8 -108 24s-55.666 38.667 -72.999 68s-26 63 -26 101c0 61.333 20 108.5 60 141.5s91.333 49.5 154 49.5h74v83c0 30 -5.5 53.5 -16.5 70.5
s-28.167 25.5 -51.5 25.5c-20.667 0 -37.334 -7.33301 -50.001 -22s-19 -34 -19 -58c0 -12 1.33301 -23.333 4 -34h-130c-2.66699 14.667 -4 27.667 -4 39c0 55.333 16.833 100 50.5 134s81.5 51 143.5 51c68 0 117.333 -20.667 148 -62s46 -97 46 -167v-60h139v280h241z
M351 355h-71c-29.333 0 -52.833 -7.5 -70.5 -22.5s-26.5 -35.833 -26.5 -62.5c0 -26 8 -46.667 24 -62s36.333 -23 61 -23c26.667 0 47.167 9.33301 61.5 28s21.5 44 21.5 76v66z" />
    <glyph glyph-name="dvMA" unicode="&#x92e;" horiz-adv-x="822" 
d="M842 632h-111.001v-632h-130v355h-149v-59c0 -69.333 -17.5 -123.333 -52.5 -162s-85.167 -58 -150.5 -58c-62 0 -111.833 17.667 -149.5 53s-56.5 82 -56.5 140c0 61.333 19.833 108.5 59.5 141.5s90.834 49.5 153.501 49.5h76v172h-353v108h863v-108zM600.999 632h-149
v-172h149v172zM331.999 355h-72.001c-29.333 0 -52.833 -7.5 -70.5 -22.5s-26.5 -35.833 -26.5 -62.5c0 -26 7.83301 -46.667 23.5 -62s35.834 -23 60.501 -23c26.667 0 47.5 9.33301 62.5 28s22.5 44 22.5 76v66z" />
    <glyph glyph-name="dvYA" unicode="&#x92f;" horiz-adv-x="749" 
d="M770 632l-111 -0.000976562v-632h-129v179c-20.667 -26.667 -48 -47.667 -82 -63s-73.667 -23 -119 -23c-85.333 0 -151.5 25.333 -198.5 76s-70.5 119.334 -70.5 206.001c0 12 1.33301 30.667 4 56h12c56 0 96.5 12 121.5 36s37.5 61 37.5 111v54h-256v108h791v-108z
M530 631.999h-167.001v-77c0 -58 -14.5 -103.5 -43.5 -136.5s-72.833 -51.833 -131.5 -56.5c0 -48.667 14.833 -87.667 44.5 -117s70.834 -44 123.501 -44c52 0 94 16 126 48s48 73 48 123v260z" />
    <glyph glyph-name="dvRA" unicode="&#x930;" horiz-adv-x="533" 
d="M198 314v-113c0 -30 6.83301 -54.167 20.5 -72.5s33.834 -27.5 60.501 -27.5c24.667 0 44.167 8.5 58.5 25.5s21.5 39.5 21.5 67.5v25h124c0.666992 -6 1 -13 1 -21c0 -63.333 -18 -113.666 -54 -150.999s-85.667 -56 -149 -56c-68 0 -120.167 20 -156.5 60
s-54.5 92 -54.5 156v212h103c53.333 0 92.166 12.167 116.499 36.5s36.5 60.166 36.5 107.499v69h-347v108h574v-108h-98v-69c0 -166 -78.333 -249 -235 -249h-22z" />
    <glyph glyph-name="dvRxA" unicode="&#x931;" horiz-adv-x="533" 
d="M198 314v-113c0 -30 6.83301 -54.167 20.5 -72.5s33.834 -27.5 60.501 -27.5c24.667 0 44.167 8.5 58.5 25.5s21.5 39.5 21.5 67.5v25h124c0.666992 -6 1 -13 1 -21c0 -63.333 -18 -113.666 -54 -150.999s-85.667 -56 -149 -56c-68 0 -120.167 20 -156.5 60
s-54.5 92 -54.5 156v212h103c53.333 0 92.166 12.167 116.499 36.5s36.5 60.166 36.5 107.499v69h-347v108h574v-108h-98v-69c0 -166 -78.333 -249 -235 -249h-22zM167 -170.5c-15.333 -15 -34 -22.5 -56 -22.5c-21.333 0 -39.666 7.5 -54.999 22.5s-23 33.167 -23 54.5
c0 22 7.66699 40.667 23 56s33.666 23 54.999 23c22 0 40.667 -7.66699 56 -23s23 -34 23 -56c0 -21.333 -7.66699 -39.5 -23 -54.5z" />
    <glyph glyph-name="dvLA" unicode="&#x932;" horiz-adv-x="910" 
d="M717 632l-0.00292969 -115.002c40.667 -15.333 73.167 -42.166 97.5 -80.499s36.5 -85.5 36.5 -141.5c0 -48.667 -9.66699 -92 -29 -130s-47.833 -67.667 -85.5 -89s-83.167 -32 -136.5 -32c-5.33301 0 -16.666 0.666992 -33.999 2v113l27 -2
c39.333 0 70.333 12.333 93 37s34 57.667 34 99c0 36.667 -9.16699 66.667 -27.5 90s-44.166 35 -77.499 35c-35.333 0 -61.833 -13.167 -79.5 -39.5s-26.5 -60.833 -26.5 -103.5v-21h-108v21c0 42 -8.66699 76.333 -26 103s-43 40 -77 40
c-34.667 0 -61.334 -11.5 -80.001 -34.5s-28 -53.167 -28 -90.5c0 -41.333 11.333 -74.333 34 -99s53.667 -37 93 -37l27 2v-113c-17.333 -1.33301 -28.666 -2 -33.999 -2c-52.667 0 -98 10.833 -136 32.5s-66.667 51.334 -86 89.001s-29 80.834 -29 129.501
c0 50.667 9.66699 93.667 29 129s45.833 62 79.5 80s71.167 27 112.5 27c46 0 83.167 -11.667 111.5 -35s48.833 -53.333 61.5 -90h3c11.333 30.667 27.833 56.667 49.5 78s49.834 35.666 84.501 42.999v105h-611v108h951v-108h-213z" />
    <glyph glyph-name="dvLLA" unicode="&#x933;" horiz-adv-x="975" 
d="M767 632l0.00195312 -114.999c44.667 -14.667 80.667 -41.334 108 -80.001s41 -85 41 -139c0 -45.333 -10 -85.333 -30 -120s-47.333 -61.5 -82 -80.5s-73.334 -28.5 -116.001 -28.5c-46.667 0 -87.5 11.167 -122.5 33.5s-60.5 52.833 -76.5 91.5h-4
c-15.333 -38.667 -40.5 -69.167 -75.5 -91.5s-75.833 -33.5 -122.5 -33.5c-42.667 0 -81.334 9.5 -116.001 28.5s-62 45.833 -82 80.5s-30 74.667 -30 120c0 46 10 86.667 30 122s47.333 62.5 82 81.5s73 28.5 115 28.5c44.667 0 84 -10.5 118 -31.5s61.333 -51.5 82 -91.5
h3c32.667 66 83.667 105.667 153 119v106h-663v108h1016v-108h-228zM391.002 212.501c22 22.333 32.998 50.834 32.998 85.501c0 36 -11 65.333 -33 88s-50.667 34 -86 34s-64.166 -11.333 -86.499 -34s-33.5 -52.334 -33.5 -89.001c0 -35.333 11.333 -63.833 34 -85.5
s51.334 -32.5 86.001 -32.5c35.333 0 64 11.167 86 33.5zM755.5 211.502c22.333 21.667 33.501 50.166 33.501 85.499c0 36.667 -11 66.334 -33 89.001s-50.667 34 -86 34s-64 -11.333 -86 -34s-33 -52 -33 -88c0 -35.333 11 -64 33 -86s50.333 -33 85 -33
c35.333 0 64.166 10.833 86.499 32.5z" />
    <glyph glyph-name="dvVA" unicode="&#x935;" horiz-adv-x="670" 
d="M690 740l-0.00195312 -108h-110v-632h-126v158c-17.333 -26 -40.5 -46.333 -69.5 -61s-62.167 -22 -99.5 -22c-45.333 0 -85.166 10.167 -119.499 30.5s-60.666 48.5 -78.999 84.5s-27.5 77.333 -27.5 124c0 44.667 9.33301 84.667 28 120s45.167 62.833 79.5 82.5
s73.833 29.5 118.5 29.5c38 0 71.333 -7.33301 100 -22s51.667 -35 69 -61v169h-475v108h711zM392.498 197c20.333 12.667 35.668 29 46.001 49s15.5 41 15.5 63v1c0 36 -11.833 67 -35.5 93s-56.834 39 -99.501 39c-38.667 0 -70.5 -12 -95.5 -36s-37.5 -55.667 -37.5 -95
c0 -40 12.5 -72.167 37.5 -96.5s56.833 -36.5 95.5 -36.5c28.667 0 53.167 6.33301 73.5 19z" />
    <glyph glyph-name="dvSHA" unicode="&#x936;" horiz-adv-x="840" 
d="M206 299l0.000976562 -85.002c0 -33.333 7.66699 -60 23 -80s39.666 -30 72.999 -30c28 0 50 9.16699 66 27.5s24 42.833 24 73.5v14h126v-16c0 -66 -19 -117.667 -57 -155s-90 -56 -156 -56c-72 0 -128.333 20.833 -169 62.5s-61 97.834 -61 168.501v185h142
c52.667 0 96 10.5 130 31.5s51 53.833 51 98.5c0 30 -8.16699 54 -24.5 72s-38.5 27 -66.5 27s-50 -9 -66 -27s-24 -42 -24 -72l1 -38h-128c-2 14 -3 28 -3 42c0 40.667 9 76.667 27 108s43.667 55.666 77 72.999s72 26 116 26c66.667 0 120.167 -19.167 160.5 -57.5
s60.5 -92.166 60.5 -161.499c0 -75.333 -24.5 -132.666 -73.5 -171.999s-112.5 -59 -190.5 -59h-58zM861.001 739.998v-108h-111v-632h-131v740h242z" />
    <glyph glyph-name="dvSSA" unicode="&#x937;" horiz-adv-x="680" 
d="M701 632h-111v-632h-127v235c-34.667 -46.667 -88.334 -70 -161.001 -70c-73.333 0 -129.666 24 -168.999 72s-59 111.667 -59 191v204h-95v108h722v-108zM463 632h-262l262 -192v192zM407 296c21.333 14.667 36.667 34.333 46 59l-254 184v-115
c0 -46 10.833 -82.5 32.5 -109.5s54.167 -40.5 97.5 -40.5c30.667 0 56.667 7.33301 78 22z" />
    <glyph glyph-name="dvSA" unicode="&#x938;" horiz-adv-x="825" 
d="M846 632l-112 0.000976562v-632h-128v319h-408v-116c0 -30.667 7 -55.334 21 -74.001s35 -28 63 -28c26 0 46.333 8.66699 61 26s22 39.666 22 66.999v13h124c0.666992 -5.33301 1 -11.666 1 -18.999c0 -60.667 -18.333 -108.667 -55 -144s-87 -53 -151 -53
c-68 0 -120.667 20.167 -158 60.5s-56 92.833 -56 157.5v202h81c53.333 0 92.333 12.833 117 38.5s37 61.167 37 106.5v76h-326v108h867v-108zM606 632.001h-173v-76c0 -50.667 -11.667 -94.667 -35 -132h208v208z" />
    <glyph glyph-name="dvHA" unicode="&#x939;" horiz-adv-x="586" 
d="M239 438c-14.667 -9.33301 -22.002 -24.668 -22.002 -46.001c0 -13.333 3.66699 -25 11 -35s17.333 -17.667 30 -23c14 2.66699 30.667 4 50 4c68.667 0 122.334 -16.667 161.001 -50s61.334 -76 68.001 -128h-124c-4.66699 20 -16.334 37.5 -35.001 52.5
s-42.667 22.5 -72 22.5c-34.667 0 -62.5 -11 -83.5 -33s-31.5 -50.667 -31.5 -86s10.5 -63.833 31.5 -85.5s48.833 -32.5 83.5 -32.5c28 0 51.5 7.16699 70.5 21.5s31.167 31.5 36.5 51.5h124c-6 -53.333 -29.833 -96.666 -71.5 -129.999s-94.834 -50 -159.501 -50
c-49.333 0 -92.166 9.66699 -128.499 29s-64.166 46.166 -83.499 80.499s-29 73.833 -29 118.5c0 39.333 8.5 74.5 25.5 105.5s40.833 56.167 71.5 75.5c-23.333 12.667 -41.333 28.834 -54 48.501s-19 42.5 -19 68.5c0 40 14.5 71.333 43.5 94s68.167 34 117.5 34h100v87
h-371v108h627v-108h-133v-180h-177c-23.333 0 -42.333 -4.66699 -57 -14z" />
    <glyph glyph-name="dvNukta" unicode="&#x93c;" horiz-adv-x="0" 
d="M-256 -196.5c-15.333 -15 -34 -22.5 -56 -22.5c-21.333 0 -39.666 7.5 -54.999 22.5s-23 33.167 -23 54.5c0 22 7.66699 40.667 23 56s33.666 23 54.999 23c22 0 40.667 -7.66699 56 -23s23 -34 23 -56c0 -21.333 -7.66699 -39.5 -23 -54.5z" />
    <glyph glyph-name="dvAvagraha" unicode="&#x93d;" horiz-adv-x="589" 
d="M64 52l-0.00195312 108.998h235c20.667 0 36.667 4.33301 48 13s17 20.334 17 35.001c0 17.333 -7.33301 34 -22 50s-37.667 36.333 -69 61c-30.667 24.667 -56 46.5 -76 65.5s-37 41.5 -51 67.5s-21 54.333 -21 85c0 44.667 14.833 78.167 44.5 100.5
s68.834 33.5 117.501 33.5h218v-109h-186c-18.667 0 -33.667 -3.16699 -45 -9.5s-17 -18.166 -17 -35.499s7.33301 -34 22 -50s37.667 -36.333 69 -61c30.667 -24.667 55.834 -46.5 75.501 -65.5s36.5 -41.5 50.5 -67.5s21 -54 21 -84c0 -42 -14.833 -75.5 -44.5 -100.5
s-69.5 -37.5 -119.5 -37.5h-267z" />
    <glyph glyph-name="dvmAA" unicode="&#x93e;" 
d="M90 0v632h-111v108h351v-108h-111v-632h-129z" />
    <glyph glyph-name="dvmI" unicode="&#x93f;" 
d="M704 983c61.333 -23.333 109.334 -57.002 144.001 -101.002s52 -95.333 52 -154v-17h-129v15c0 42 -13.167 76.833 -39.5 104.5s-60.5 48.167 -102.5 61.5s-86.667 20 -134 20c-75.333 0 -139.5 -13.667 -192.5 -41s-81.167 -71 -84.5 -131h112v-108h-111v-632h-129v632
h-111v108h111c2 58.667 20.5 108.834 55.5 150.501s82.667 73.334 143 95.001s129.166 32.5 206.499 32.5c78 0 147.667 -11.667 209 -35z" />
    <glyph glyph-name="dvmII" unicode="&#x940;" 
d="M330 740l-0.000976562 -108h-111v-632h-129v632h-111v108h115v40c0 36 -6.66699 66.5 -20 91.5s-37.666 37.5 -72.999 37.5c-36 0 -60.833 -12.5 -74.5 -37.5s-20.5 -55.5 -20.5 -91.5v-69h-125v62c0 75.333 17.5 135 52.5 179s90.833 66 167.5 66
c145.333 0 218 -81.667 218 -245v-33h111z" />
    <glyph glyph-name="dvmU" unicode="&#x941;" horiz-adv-x="0" 
d="M-51 -275c-38 -32.667 -89.668 -49.001 -155.001 -49.001c-71.333 0 -130.666 18.333 -177.999 55s-70.333 92.667 -69 168h114c-1.33301 -41.333 10 -72.166 34 -92.499s56 -30.5 96 -30.5c32.667 0 58.334 7.33301 77.001 22s28 35.334 28 62.001
c0 22 -7.33301 40.333 -22 55s-35.667 22 -63 22h-30v101h30c63.333 0 111.666 -16.167 144.999 -48.5s50 -75.833 50 -130.5c0 -56.667 -19 -101.334 -57 -134.001z" />
    <glyph glyph-name="dvmUU" unicode="&#x942;" horiz-adv-x="0" 
d="M-185 -312c-52 0 -95.1641 14.6631 -129.497 43.9961s-51.5 71 -51.5 125c0 54.667 19.167 97.834 57.5 129.501s88.166 47.5 149.499 47.5c89.333 0 154.666 -27.333 195.999 -82s62 -125 62 -211c0 -11.333 -0.666992 -27 -2 -47h-105v54
c0 60.667 -13.167 107.334 -39.5 140.001s-63.833 49 -112.5 49c-30 0 -54.667 -7.16699 -74 -21.5s-29 -34.166 -29 -59.499c0 -23.333 8.33301 -41.666 25 -54.999s37 -20 61 -20c12.667 0 22.667 0.333008 30 1v-93c-8.66699 -0.666992 -21.334 -1 -38.001 -1z" />
    <glyph glyph-name="dvmvR" unicode="&#x943;" horiz-adv-x="0" 
d="M-137 -326c-58 0 -107.334 14.832 -148.001 44.499s-61 75.5 -61 137.5c0 53.333 18.333 96.5 55 129.5s87.334 49.5 152.001 49.5c26.667 0 43 -0.333008 49 -1v-88h-39c-29.333 0 -52 -8 -68 -24s-24 -36.333 -24 -61c0 -29.333 9.83301 -50.666 29.5 -63.999
s44.834 -20 75.501 -20c25.333 0 51.666 4 78.999 12v-100c-30 -10 -63.333 -15 -100 -15z" />
    <glyph glyph-name="dvmvRR" unicode="&#x944;" horiz-adv-x="0" 
d="M-59 -463c-22 -3.33301 -43.666 -5 -64.999 -5c-54.667 0 -101 11.833 -139 35.5s-57 60.167 -57 109.5c0 31.333 9 57.5 27 78.5s41.333 34.5 70 40.5v4c-28.667 6.66699 -51.834 19.167 -69.501 37.5s-26.5 43.166 -26.5 74.499c0 42.667 15.5 73.834 46.5 93.501
s66.833 29.5 107.5 29.5h75v-71h-25c-53.333 0 -80 -19.667 -80 -59c0 -20 7.66699 -34.5 23 -43.5s35 -13.5 59 -13.5h54v-96h-48c-59.333 0 -89 -20.333 -89 -61c0 -21.333 8.66699 -36.5 26 -45.5s39.333 -13.5 66 -13.5c18.667 0 37.5 1.66699 56.5 5
s33.167 6.66602 42.5 9.99902v-97c-14 -5.33301 -32 -9.66602 -54 -12.999z" />
    <glyph glyph-name="dvmEcandra" unicode="&#x945;" horiz-adv-x="0" 
d="M7.5 868.5c-37.667 -36.333 -93.833 -54.5 -168.5 -54.5s-131 18.167 -169 54.5s-57 83.833 -57 142.5h111c0 -28.667 9.5 -52.667 28.5 -72s47.833 -29 86.5 -29c38 0 66.667 9.66699 86 29s29 43.333 29 72h110c0 -58.667 -18.833 -106.167 -56.5 -142.5z" />
    <glyph glyph-name="dvmE" unicode="&#x947;" horiz-adv-x="0" 
d="M-213 736c-30 46.667 -54.332 80.334 -72.999 101.001s-37.5 34.334 -56.5 41.001s-44.833 10 -77.5 10h-49v105h46c53.333 -0.666992 95.666 -6.33398 126.999 -17.001s62.333 -33.834 93 -69.501s68 -92.5 112 -170.5h-122z" />
    <glyph glyph-name="dvmAI" unicode="&#x948;" horiz-adv-x="0" 
d="M-307.5 1042.5c27.667 -11.667 57.001 -39.168 88.001 -82.501s73.5 -117.666 127.5 -222.999h-110c-42 28.667 -72 48 -90 58s-35.667 16.333 -53 19s-45.333 4 -84 4h-50v81h47c37.333 0 65 -1.16699 83 -3.5s36.167 -8 54.5 -17s41.166 -24.167 68.499 -45.5
c-25.333 45.333 -48.333 78.333 -69 99s-40.167 33.5 -58.5 38.5s-42.833 7.5 -73.5 7.5h-52v82h50c53.333 0 93.833 -5.83301 121.5 -17.5z" />
    <glyph glyph-name="dvmOcandra" unicode="&#x949;" horiz-adv-x="311" 
d="M90 0v632h-111v108h351v-108h-111v-632h-129zM324.5 868.5c-37.667 -36.333 -93.833 -54.5 -168.5 -54.5s-131 18.167 -169 54.5s-57 83.833 -57 142.5h111c0 -28.667 9.5 -52.667 28.5 -72s47.833 -29 86.5 -29c38 0 66.667 9.66699 86 29s29 43.333 29 72h110
c0 -58.667 -18.833 -106.167 -56.5 -142.5z" />
    <glyph glyph-name="dvmO" unicode="&#x94b;" horiz-adv-x="310" 
d="M330 740v-107.997h-111v-632h-129v632h-111v108h115c-29.333 45.333 -53.166 78.166 -71.499 98.499s-36.833 33.666 -55.5 39.999s-44.334 9.5 -77.001 9.5h-49v105h46c53.333 -0.666992 95.5 -6.33398 126.5 -17.001s61.667 -33.5 92 -68.5s67.5 -90.833 111.5 -167.5
h113z" />
    <glyph glyph-name="dvmAU" unicode="&#x94c;" 
d="M330 740v-108.001h-111v-632h-129v632h-111v108h121c-40 27.333 -68.833 45.833 -86.5 55.5s-35.167 15.834 -52.5 18.501s-45.333 4 -84 4h-50v81h47c37.333 0 65 -1.16699 83 -3.5s36.167 -8 54.5 -17s41.166 -24.167 68.499 -45.5
c-25.333 45.333 -48.333 78.333 -69 99s-40.167 33.5 -58.5 38.5s-42.833 7.5 -73.5 7.5h-52v82h50c53.333 0 93.833 -5.83301 121.5 -17.5s56.834 -39 87.501 -82s72.667 -116.5 126 -220.5h118z" />
    <glyph glyph-name="dvVirama" unicode="&#x94d;" horiz-adv-x="0" 
d="M-90 -271l-126 214h129l130 -214h-133z" />
    </font>
</defs>
</svg>
